<svg aria-hidden="true" style="position: absolute; width: 0; height: 0; overflow: hidden;" version="1.1" xmlns="http://www.w3.org/2000/svg" xmlns:xlink="http://www.w3.org/1999/xlink">
<defs>
<symbol id="icon-advantage_map" viewBox="0 0 32 32">
<path d="M14.928 1.073c4 0 8 0 12 0 0.415 0 0.852 0.098 0.817-0.582-0.016-0.296 0.258-0.473 0.563-0.476 0.617 0 1.242-0.047 1.85 0.030 1.116 0.148 1.837 1.079 1.84 2.325 0.006 3.53 0.006 7.060 0 10.59 0 4.072 0 8.145 0 12.219 0 1.721-0.815 2.528-2.545 2.53-2.568 0-5.137 0.010-7.709 0-0.43 0-0.775 0.067-1.010 0.445-0.025 0.041-0.070 0.071-0.096 0.111-1.278 1.895-3.137 2.922-5.27 3.546-0.265 0.079-0.528 0.188-0.772-0.013-0.276-0.23-0.197-0.519-0.11-0.817 0.261-0.9 0.498-1.806 0.763-2.705 0.108-0.37 0.13-0.575-0.384-0.572-3.012 0.021-6.025 0.016-9.043 0-0.387 0-0.514 0.114-0.505 0.504 0.024 0.987-0.009 1.975 0.013 2.964 0.013 0.609-0.255 0.852-0.848 0.828-0.543-0.021-1.087 0-1.631 0-1.717-0.030-2.851-1.16-2.851-2.908 0-5.925 0-11.849 0-17.773 0-2.42 0-4.839 0-7.262 0.007-1.889 1.096-2.979 2.999-2.983 3.976-0.006 7.952-0.006 11.928-0.001zM14.967 2.167h-11.784c-1.605 0-2.11 0.513-2.11 2.143v21.933c0 0.123 0 0.247 0 0.37-0.022 0.365 0.082 0.522 0.461 0.319 0.497-0.267 1.038-0.268 1.589-0.268 4.151 0 8.302 0 12.453 0 0.197 0 0.396 0 0.593 0 0.1-0.002 0.197-0.037 0.276-0.099s0.134-0.149 0.159-0.246c0.064-0.196-0.114-0.308-0.255-0.408-0.241-0.177-0.53-0.277-0.829-0.287-0.42-0.010-0.839-0.018-1.259-0.010-0.366 0-0.391-0.233-0.371-0.495 0.016-0.222-0.11-0.56 0.276-0.572 0.959-0.028 1.97-0.181 2.777 0.492 0.445 0.369 0.64 0.283 0.987-0.107 2.314-2.602 4.664-5.174 6.984-7.77 0.651-0.729 1.407-1.054 2.372-0.849 0.138 0.028 0.359 0.209 0.397-0.092s-0.218-0.203-0.365-0.204c-0.841-0.009-1.681-0.009-2.52 0-0.406 0-0.79-0.065-0.769-0.568 0.019-0.462 0.403-0.489 0.769-0.488 0.79 0 1.582-0.019 2.372 0 0.414 0.015 0.565-0.11 0.551-0.538-0.028-0.889-0.028-1.778 0-2.668 0.015-0.445-0.148-0.544-0.559-0.532-0.814 0.025-1.631 0.009-2.445 0-0.388 0-0.712-0.13-0.694-0.579 0.018-0.408 0.338-0.504 0.689-0.505 0.792 0 1.582-0.024 2.372 0 0.463 0.016 0.66-0.099 0.639-0.611-0.038-1.011-0.040-2.026 0-3.037 0.021-0.513-0.175-0.621-0.637-0.603-0.814 0.030-1.631 0.013-2.445 0-0.368 0-0.636-0.175-0.618-0.578 0.018-0.369 0.296-0.483 0.623-0.491 0.371-0.007 0.741 0.012 1.112-0.009 0.634-0.034 1.482 0.279 1.844-0.148 0.311-0.36 0.056-1.186 0.12-1.792s-0.191-0.728-0.741-0.725c-4.003 0.030-8.005 0.021-12.008 0.021h-0.007zM30.931 12.718c0-3.359 0-6.715 0-10.068 0.012-0.27-0.014-0.54-0.076-0.803-0.184-0.63-0.873-0.923-1.726-0.763-0.64 0.12-0.337 0.637-0.338 0.956-0.019 6.636-0.022 13.272-0.010 19.907 0 0.464-0.181 1.012 0.093 1.368 0.248 0.32 0.792 0.067 1.196 0.148 0.050 0.002 0.1 0.011 0.148 0.027 0.701 0.322 0.729-0.061 0.726-0.624-0.025-3.385-0.015-6.765-0.015-10.147zM27.713 20.534c-1.067 0.948-5.175 5.578-5.433 6.122 2.56 0 5.094 0.019 7.627-0.013 0.62-0.007 1.010-0.445 1.001-1.071s-0.405-0.993-1.038-1.037c-0.445-0.028-0.89-0.027-1.334-0.012-0.593 0.021-0.845-0.249-0.832-0.848 0.019-1 0.009-2.011 0.009-3.14zM4.29 29.332c0-1.815 0-1.815-1.726-1.614-0.050 0.003-0.099 0.009-0.148 0.018-0.636 0.173-1.104 0.53-1.278 1.194-0.080 0.274-0.080 0.566 0.002 0.84s0.241 0.518 0.459 0.704c0.722 0.671 1.66 0.566 2.453 0.379 0.551-0.129 0.116-0.905 0.234-1.375 0.006-0.049 0.007-0.098 0.001-0.147h0.001zM16.993 28.166c0.23-0.018 0.329-0.207 0.457-0.348 1.982-2.19 3.963-4.383 5.94-6.578 0.082-0.092 0.16-0.187 0.24-0.28 0.028-0.025 0.050-0.055 0.063-0.090s0.019-0.072 0.016-0.109c-0.003-0.037-0.016-0.073-0.036-0.104s-0.047-0.058-0.079-0.077c-0.022-0.020-0.048-0.036-0.076-0.046s-0.058-0.014-0.088-0.013c-0.030 0.002-0.059 0.010-0.086 0.023s-0.050 0.032-0.070 0.055c-0.105 0.104-0.203 0.213-0.296 0.323l-5.848 6.464c-0.121 0.122-0.231 0.255-0.328 0.397-0.142 0.225 0.030 0.302 0.188 0.382h0.002zM24.929 21.88c-0.064-0.089-0.099-0.194-0.172-0.231-0.286-0.148-0.391 0.123-0.526 0.271-2.009 2.211-4.013 4.427-6.011 6.647-0.141 0.157-0.483 0.331-0.168 0.593s0.428-0.119 0.566-0.268c1.995-2.19 3.983-4.387 5.964-6.59 0.113-0.126 0.215-0.262 0.345-0.421h0.002zM27.76 18.323c-0.006-0.222-0.081-0.436-0.213-0.614-0.38-0.489-1.063-0.529-1.561-0.116-0.663 0.551 0.016 0.741 0.268 1.049 0.091 0.117 0.202 0.217 0.328 0.296 0.228 0.132 0.353 0.566 0.707 0.335 0.155-0.103 0.28-0.245 0.363-0.412s0.12-0.352 0.107-0.538l0.001-0.002zM26.331 20.352c0.016-0.231-0.13-0.305-0.233-0.402-0.286-0.27-0.593-0.517-0.87-0.796s-0.464-0.234-0.722 0.044c-0.277 0.296-0.308 0.513 0.031 0.774 0.297 0.225 0.547 0.494 0.829 0.732 0.139 0.117 0.28 0.333 0.497 0.148 0.166-0.157 0.321-0.324 0.467-0.499l0.001-0.002zM15.819 30.41c0.471-0.097 0.922-0.272 1.334-0.519-0.264-0.341-0.583-0.636-0.944-0.871-0.211 0.437-0.343 0.907-0.39 1.39z"></path>
<path d="M10.299 8.558c-1.508-2.325-1.561-3.64-0.256-4.727 0.505-0.406 1.139-0.617 1.787-0.595s1.267 0.274 1.744 0.712c1.186 1.117 1.069 2.626-0.436 4.607 0.935-0.031 1.779 0.157 2.6-0.178 0.858-0.354 1.294-1.037 1.309-1.972 0.015-0.889 0.027-1.778 0-2.668-0.016-0.465 0.208-0.507 0.581-0.516 0.399-0.010 0.513 0.148 0.503 0.519-0.019 0.79 0 1.58 0 2.371-0.009 2.207-1.297 3.506-3.493 3.511-3.061 0-6.124-0.007-9.191 0-1.356 0-2.271 0.96-2.201 2.245 0.021 0.435 0.176 0.853 0.445 1.196s0.638 0.594 1.055 0.718c0.91 0.27 1.101 0.148 1.143-0.794 0.021-0.501 0.242-0.707 0.734-0.702 1.259 0.010 2.52 0.019 3.777 0 0.615-0.010 0.889 0.267 0.818 0.848-0.077 0.63 0.184 0.797 0.792 0.762 0.935-0.047 1.875-0.021 2.817-0.009 1.918 0.022 3.288 1.343 3.297 3.161 0.009 1.841-1.391 3.217-3.327 3.228-3.137 0.016-6.274 0-9.409 0.012-1.257 0-2.13 0.88-2.144 2.075s0.836 2.075 2.075 2.15c0.148 0.016 0.297 0.016 0.445 0 0.636-0.101 0.682 0.277 0.636 0.751 0.004 0.084-0.024 0.166-0.080 0.23s-0.133 0.103-0.217 0.11c-1.21 0.273-2.777-0.409-3.476-1.529-0.342-0.563-0.504-1.217-0.463-1.874s0.282-1.287 0.692-1.802c0.692-0.837 1.586-1.202 2.668-1.197 2.965 0.015 5.93 0 8.895 0 0.297 0.009 0.595-0.008 0.889-0.049 0.516-0.086 0.982-0.363 1.304-0.775s0.479-0.93 0.438-1.452c-0.021-0.514-0.235-1-0.6-1.363s-0.852-0.574-1.366-0.592c-1.136-0.044-2.273 0-3.41-0.021-0.371 0-0.48 0.148-0.445 0.483 0.015 0.196-0.013 0.396 0 0.593 0.056 0.682-0.138 1.128-0.935 1.030-0.123-0.019-0.248 0.003-0.357 0.063s-0.195 0.153-0.246 0.266c-0.086 0.148-0.191 0.286-0.289 0.43-0.802 1.165-0.955 1.172-1.717-0.012-0.297-0.445-0.535-0.861-1.195-0.763-0.43 0.064-0.584-0.259-0.593-0.664-0.013-0.445 0.182-0.997-0.096-1.285-0.23-0.239-0.781-0.148-1.186-0.244-0.768-0.174-1.443-0.628-1.893-1.274s-0.643-1.436-0.54-2.216c0.172-1.572 1.478-2.758 3.131-2.789 0.815-0.019 1.631 0 2.446 0l2.539-0.006zM8.527 13.338c-1.57 0-1.576 0-1.567 1.559 0 0.535-0.225 1.236 0.741 1.186 0.569 0.997 1.133 0.983 1.69-0.010 0.922 0.080 0.741-0.581 0.741-1.114 0.003-1.62 0.002-1.62-1.605-1.62zM13.329 5.912c0.003-0.213-0.037-0.424-0.117-0.621s-0.199-0.376-0.349-0.526c-0.15-0.15-0.33-0.269-0.527-0.349s-0.408-0.12-0.621-0.117-0.423 0.049-0.617 0.134c-0.195 0.085-0.37 0.209-0.517 0.363s-0.26 0.337-0.335 0.536-0.109 0.411-0.1 0.624c0.015 1.048 0.833 1.562 1.45 2.211 0.073 0.076 0.157 0.068 0.262 0.024 0.596-0.252 1.472-1.595 1.471-2.279z"></path>
<path d="M22.945 5.66c0 1.978 0.148 1.827-1.849 1.824-2.112 0-1.886 0.178-1.89-1.927 0-1.972-0.175-1.83 1.838-1.83 2.083 0.006 1.903-0.148 1.9 1.933zM20.989 6.372c0.511 0.082 0.949 0.092 0.889-0.683-0.039-0.538 0-0.966-0.759-0.889-0.473 0.052-0.95-0.058-0.851 0.691 0.065 0.473-0.154 1.088 0.72 0.882z"></path>
<path d="M21.068 17.054c-2.037-0.012-1.86 0.233-1.863-1.858s-0.157-1.858 1.866-1.858c1.992 0 1.878-0.209 1.875 1.864s0.139 1.841-1.878 1.852zM21.839 15.227c0.148-0.593-0.013-0.889-0.722-0.858-0.583 0.019-0.924 0.059-0.855 0.784 0.050 0.529-0.018 0.953 0.759 0.868 0.541-0.059 1.023-0.003 0.818-0.794z"></path>
<path d="M22.945 10.42c0.009 2.054 0.13 1.87-1.877 1.869s-1.865 0.196-1.863-1.872c0.001-2.067-0.181-1.854 1.868-1.855s1.875-0.213 1.872 1.858zM20.301 10.397c-0.139 0.634 0.080 0.857 0.755 0.849 0.637 0 0.841-0.163 0.835-0.821-0.007-0.627-0.148-0.846-0.811-0.827-0.62 0.018-0.955 0.111-0.778 0.799z"></path>
<path d="M7.965 24.535c0.455-0.073 0.612 0.089 0.608 0.519 0 0.405-0.114 0.566-0.544 0.563s-0.575-0.119-0.562-0.544c0.012-0.384 0.067-0.657 0.498-0.538z"></path>
<path d="M10.659 25.094c0.092 0.456-0.163 0.507-0.544 0.523-0.468 0.019-0.488-0.219-0.507-0.582-0.024-0.445 0.181-0.514 0.565-0.526 0.46-0.013 0.55 0.203 0.486 0.585z"></path>
<path d="M12.269 24.528c0.445-0.076 0.532 0.156 0.54 0.547 0 0.427-0.162 0.536-0.565 0.542-0.436 0-0.528-0.172-0.534-0.568-0.006-0.427 0.151-0.587 0.559-0.522z"></path>
<path d="M11.713 5.348c0.314 0.021 0.526 0.182 0.553 0.489 0.010 0.068 0.004 0.137-0.016 0.202s-0.054 0.126-0.1 0.177c-0.046 0.051-0.102 0.091-0.165 0.118s-0.131 0.040-0.2 0.038c-0.068 0.013-0.137 0.010-0.204-0.008s-0.128-0.050-0.18-0.095c-0.052-0.045-0.094-0.101-0.121-0.164s-0.040-0.131-0.038-0.2c-0.024-0.314 0.165-0.488 0.47-0.557z"></path>
</symbol>
<symbol id="icon-advantage_best-price" viewBox="0 0 33 32">
<path d="M0.935 23.833c0-1.67 0-3.339 0-5.009 0-1.304 0.481-1.791 1.761-1.791 1.692 0 3.385 0.013 5.076-0.008 0.789-0.011 1.411 0.203 1.683 1.007 0.134 0.394 0.343 0.166 0.513 0.077 1.552-0.809 2.288-2.173 2.573-3.842 0.155-0.906 0.134-1.817 0.155-2.729 0.015-0.621 0-1.317 0.736-1.572 0.699-0.246 1.253 0.144 1.723 0.612 0.641 0.638 0.943 1.469 1.078 2.33 0.267 1.744 0.198 3.473-0.629 5.076-0.215 0.419-0.158 0.522 0.313 0.518 2.092-0.017 4.185 0.012 6.278-0.017 0.815-0.012 1.469 0.208 1.798 0.982 0.313 0.732 0.146 1.405-0.482 1.918-0.212 0.174-0.158 0.287-0.051 0.496 0.508 0.983 0.355 1.603-0.562 2.296-0.196 0.147-0.232 0.228-0.134 0.472 0.43 1.105 0.207 1.7-0.858 2.307-0.239 0.134-0.226 0.232-0.154 0.461 0.442 1.397-0.334 2.446-1.799 2.448-2.984 0-5.967-0.007-8.95 0.008-0.468 0-0.871-0.281-1.278-0.285-0.443 0-0.393 0.709-0.818 0.914-0.298 0.149-0.627 0.228-0.96 0.23-1.803 0-3.606 0-5.41 0-1.067-0.007-1.59-0.54-1.602-1.622 0-1.759 0-3.518 0-5.276zM15.475 29.268c1.513 0 3.027 0.008 4.542 0 0.748 0 1.288-0.496 1.305-1.142s-0.462-1.027-1.276-1.034c-1.069-0.008-2.137 0-3.206-0.015-0.254 0-0.621 0.081-0.628-0.299s0.354-0.321 0.614-0.322c1.445 0 2.892 0 4.338-0.009 0.781 0 1.209-0.385 1.202-1.030-0.013-0.616-0.435-0.986-1.17-0.995-0.846-0.012-1.691 0-2.538 0-0.251 0-0.621 0.083-0.608-0.314 0.012-0.375 0.377-0.301 0.632-0.303 1.046-0.007 2.092 0 3.138 0 0.871 0 1.274-0.321 1.282-1s-0.409-1.033-1.245-1.045c-0.334 0-0.668 0-1.002 0h-2.004c-0.218 0-0.421-0.052-0.401-0.322 0.012-0.235 0.216-0.25 0.401-0.259 0.155-0.007 0.311 0 0.468 0 1.046 0 2.092 0 3.138-0.007 0.43 0 0.791-0.155 0.971-0.576 0.088-0.182 0.122-0.385 0.098-0.586s-0.104-0.39-0.232-0.547c-0.283-0.363-0.692-0.357-1.097-0.357-2.382 0-4.764 0-7.145 0-0.194 0-0.418 0.047-0.542-0.164s0.039-0.378 0.151-0.534c1.26-1.771 1.264-3.748 0.908-5.765-0.121-0.736-0.523-1.396-1.121-1.842-0.234-0.175-0.5-0.341-0.801-0.223-0.335 0.134-0.302 0.466-0.317 0.747-0.051 0.911-0.028 1.829-0.134 2.732-0.248 2.152-1.232 3.842-3.266 4.774-0.401 0.186-0.401 0.472-0.401 0.811 0 2.781 0 5.563 0 8.346 0 0.809 0.334 1.196 1.137 1.301 0.155 0.013 0.312 0.016 0.468 0.009l4.338-0.029zM8.9 23.874c0-1.692 0-3.384 0-5.076 0-0.926-0.219-1.162-1.118-1.171-0.534 0-1.069 0.033-1.603-0.011s-0.628 0.176-0.62 0.653c0.025 1.69 0.009 3.381 0.008 5.076 0.004 0.178-0.003 0.357-0.021 0.534-0.002 0.068-0.029 0.133-0.076 0.183s-0.111 0.079-0.179 0.084c-0.039 0.006-0.079 0.004-0.117-0.007s-0.073-0.030-0.103-0.056c-0.030-0.026-0.053-0.059-0.069-0.095s-0.023-0.076-0.021-0.115c-0.018-0.177-0.025-0.356-0.021-0.534 0-1.712-0.012-3.426 0.007-5.139 0-0.437-0.14-0.593-0.577-0.573-0.598 0.028-1.202 0-1.801 0.009-0.792 0.015-1.037 0.254-1.038 1.047-0.007 3.473-0.007 6.943 0 10.41 0 0.781 0.267 1.043 1.042 1.046 1.734 0.008 3.47 0.008 5.209 0 0.854 0 1.101-0.267 1.102-1.126-0.002-1.713-0.003-3.426-0.004-5.139z"></path>
<path stroke-linejoin="miter" stroke-linecap="butt" stroke-miterlimit="4" stroke-width="0.5333" d="M0.935 23.833c0-1.67 0-3.339 0-5.009 0-1.304 0.481-1.791 1.761-1.791 1.692 0 3.385 0.013 5.076-0.008 0.789-0.011 1.411 0.203 1.683 1.007 0.134 0.394 0.343 0.166 0.513 0.077 1.552-0.809 2.288-2.173 2.573-3.842 0.155-0.906 0.134-1.817 0.155-2.729 0.015-0.621 0-1.317 0.736-1.572 0.699-0.246 1.253 0.144 1.723 0.612 0.641 0.638 0.943 1.469 1.078 2.33 0.267 1.744 0.198 3.473-0.629 5.076-0.215 0.419-0.158 0.522 0.313 0.518 2.092-0.017 4.185 0.012 6.278-0.017 0.815-0.012 1.469 0.208 1.798 0.982 0.313 0.732 0.146 1.405-0.482 1.918-0.212 0.174-0.158 0.287-0.051 0.496 0.508 0.983 0.355 1.603-0.562 2.296-0.196 0.147-0.232 0.228-0.134 0.472 0.43 1.105 0.207 1.7-0.858 2.307-0.239 0.134-0.226 0.232-0.154 0.461 0.442 1.397-0.334 2.446-1.799 2.448-2.984 0-5.967-0.007-8.95 0.008-0.468 0-0.871-0.281-1.278-0.285-0.443 0-0.393 0.709-0.818 0.914-0.298 0.149-0.627 0.228-0.96 0.23-1.803 0-3.606 0-5.41 0-1.067-0.007-1.59-0.54-1.602-1.622 0-1.759 0-3.518 0-5.276zM15.475 29.268c1.513 0 3.027 0.008 4.542 0 0.748 0 1.288-0.496 1.305-1.142s-0.462-1.027-1.276-1.034c-1.069-0.008-2.137 0-3.206-0.015-0.254 0-0.621 0.081-0.628-0.299s0.354-0.321 0.614-0.322c1.445 0 2.892 0 4.338-0.009 0.781 0 1.209-0.385 1.202-1.030-0.013-0.616-0.435-0.986-1.17-0.995-0.846-0.012-1.691 0-2.538 0-0.251 0-0.621 0.083-0.608-0.314 0.012-0.375 0.377-0.301 0.632-0.303 1.046-0.007 2.092 0 3.138 0 0.871 0 1.274-0.321 1.282-1s-0.409-1.033-1.245-1.045c-0.334 0-0.668 0-1.002 0h-2.004c-0.218 0-0.421-0.052-0.401-0.322 0.012-0.235 0.216-0.25 0.401-0.259 0.155-0.007 0.311 0 0.468 0 1.046 0 2.092 0 3.138-0.007 0.43 0 0.791-0.155 0.971-0.576 0.088-0.182 0.122-0.385 0.098-0.586s-0.104-0.39-0.232-0.547c-0.283-0.363-0.692-0.357-1.097-0.357-2.382 0-4.764 0-7.145 0-0.194 0-0.418 0.047-0.542-0.164s0.039-0.378 0.151-0.534c1.26-1.771 1.264-3.748 0.908-5.765-0.121-0.736-0.523-1.396-1.121-1.842-0.234-0.175-0.5-0.341-0.801-0.223-0.335 0.134-0.302 0.466-0.317 0.747-0.051 0.911-0.028 1.829-0.134 2.732-0.248 2.152-1.232 3.842-3.266 4.774-0.401 0.186-0.401 0.472-0.401 0.811 0 2.781 0 5.563 0 8.346 0 0.809 0.334 1.196 1.137 1.301 0.155 0.013 0.312 0.016 0.468 0.009l4.338-0.029zM8.9 23.874c0-1.692 0-3.384 0-5.076 0-0.926-0.219-1.162-1.118-1.171-0.534 0-1.069 0.033-1.603-0.011s-0.628 0.176-0.62 0.653c0.025 1.69 0.009 3.381 0.008 5.076 0.004 0.178-0.003 0.357-0.021 0.534-0.002 0.068-0.029 0.133-0.076 0.183s-0.111 0.079-0.179 0.084c-0.039 0.006-0.079 0.004-0.117-0.007s-0.073-0.030-0.103-0.056c-0.030-0.026-0.053-0.059-0.069-0.095s-0.023-0.076-0.021-0.115c-0.018-0.177-0.025-0.356-0.021-0.534 0-1.712-0.012-3.426 0.007-5.139 0-0.437-0.14-0.593-0.577-0.573-0.598 0.028-1.202 0-1.801 0.009-0.792 0.015-1.037 0.254-1.038 1.047-0.007 3.473-0.007 6.943 0 10.41 0 0.781 0.267 1.043 1.042 1.046 1.734 0.008 3.47 0.008 5.209 0 0.854 0 1.101-0.267 1.102-1.126-0.002-1.713-0.003-3.426-0.004-5.139z"></path>
<path d="M22.478 1.271c4.356 0.032 8.039 3.072 8.935 7.372 0.867 4.157-1.318 8.473-5.183 10.181-0.358 0.159-0.899 0.653-1.154 0.092s0.488-0.562 0.811-0.712c3.707-1.724 5.701-5.722 4.787-9.666-0.896-3.874-4.433-6.615-8.435-6.545-1.771 0.030-3.488 0.617-4.906 1.678s-2.466 2.542-2.995 4.232c-0.053 0.17-0.1 0.341-0.158 0.509-0.010 0.050-0.031 0.096-0.062 0.137s-0.069 0.074-0.114 0.098-0.094 0.038-0.144 0.041c-0.051 0.003-0.101-0.005-0.148-0.024-0.208-0.061-0.267-0.232-0.223-0.425 0.044-0.218 0.101-0.433 0.17-0.644 0.609-1.854 1.791-3.466 3.376-4.603s3.491-1.74 5.442-1.722z"></path>
<path stroke-linejoin="miter" stroke-linecap="butt" stroke-miterlimit="4" stroke-width="0.5333" d="M22.478 1.271c4.356 0.032 8.039 3.072 8.935 7.372 0.867 4.157-1.318 8.473-5.183 10.181-0.358 0.159-0.899 0.653-1.154 0.092s0.488-0.562 0.811-0.712c3.707-1.724 5.701-5.722 4.787-9.666-0.896-3.874-4.433-6.615-8.435-6.545-1.771 0.030-3.488 0.617-4.906 1.678s-2.466 2.542-2.995 4.232c-0.053 0.17-0.1 0.341-0.158 0.509-0.010 0.050-0.031 0.096-0.062 0.137s-0.069 0.074-0.114 0.098-0.094 0.038-0.144 0.041c-0.051 0.003-0.101-0.005-0.148-0.024-0.208-0.061-0.267-0.232-0.223-0.425 0.044-0.218 0.101-0.433 0.17-0.644 0.609-1.854 1.791-3.466 3.376-4.603s3.491-1.74 5.442-1.722z"></path>
<path d="M24.249 12.603c0-0.793-0.506-1.444-1.361-1.684-0.447-0.126-0.923-0.167-1.362-0.315-1.069-0.361-1.659-1.221-1.652-2.328 0-1.138 0.564-1.95 1.675-2.292 0.41-0.126 0.525-0.318 0.493-0.704-0.023-0.267-0.028-0.597 0.333-0.621 0.425-0.028 0.426 0.333 0.401 0.618-0.049 0.453 0.188 0.554 0.57 0.62 0.946 0.162 1.54 0.757 1.847 1.643 0.098 0.283 0.246 0.676-0.142 0.817-0.458 0.168-0.449-0.299-0.546-0.565-0.342-0.927-1.157-1.388-2.239-1.248-0.97 0.124-1.58 0.685-1.672 1.535-0.099 0.903 0.389 1.61 1.336 1.89 0.468 0.134 0.963 0.188 1.42 0.353 1.058 0.378 1.627 1.21 1.623 2.281 0 1.123-0.573 1.948-1.667 2.313-0.371 0.123-0.569 0.267-0.534 0.684 0.025 0.267 0.072 0.651-0.346 0.668s-0.409-0.353-0.379-0.634c0.044-0.429-0.134-0.545-0.542-0.625-1.069-0.211-1.799-0.987-1.95-1.948-0.037-0.24-0.048-0.459 0.236-0.534s0.389 0.092 0.478 0.334c0.486 1.316 1.264 1.736 2.631 1.417 0.387-0.074 0.735-0.284 0.982-0.59s0.378-0.691 0.368-1.085z"></path>
<path stroke-linejoin="miter" stroke-linecap="butt" stroke-miterlimit="4" stroke-width="0.5333" d="M24.249 12.603c0-0.793-0.506-1.444-1.361-1.684-0.447-0.126-0.923-0.167-1.362-0.315-1.069-0.361-1.659-1.221-1.652-2.328 0-1.138 0.564-1.95 1.675-2.292 0.41-0.126 0.525-0.318 0.493-0.704-0.023-0.267-0.028-0.597 0.333-0.621 0.425-0.028 0.426 0.333 0.401 0.618-0.049 0.453 0.188 0.554 0.57 0.62 0.946 0.162 1.54 0.757 1.847 1.643 0.098 0.283 0.246 0.676-0.142 0.817-0.458 0.168-0.449-0.299-0.546-0.565-0.342-0.927-1.157-1.388-2.239-1.248-0.97 0.124-1.58 0.685-1.672 1.535-0.099 0.903 0.389 1.61 1.336 1.89 0.468 0.134 0.963 0.188 1.42 0.353 1.058 0.378 1.627 1.21 1.623 2.281 0 1.123-0.573 1.948-1.667 2.313-0.371 0.123-0.569 0.267-0.534 0.684 0.025 0.267 0.072 0.651-0.346 0.668s-0.409-0.353-0.379-0.634c0.044-0.429-0.134-0.545-0.542-0.625-1.069-0.211-1.799-0.987-1.95-1.948-0.037-0.24-0.048-0.459 0.236-0.534s0.389 0.092 0.478 0.334c0.486 1.316 1.264 1.736 2.631 1.417 0.387-0.074 0.735-0.284 0.982-0.59s0.378-0.691 0.368-1.085z"></path>
<path d="M6.703 26.902c0.15-0.006 0.3 0.018 0.44 0.072s0.268 0.136 0.375 0.242c0.107 0.105 0.192 0.232 0.248 0.371s0.084 0.289 0.080 0.439c0.008 0.155-0.016 0.311-0.070 0.456s-0.138 0.279-0.247 0.391c-0.108 0.112-0.238 0.2-0.382 0.26s-0.298 0.089-0.454 0.086c-0.668 0-1.15-0.513-1.137-1.202-0.004-0.15 0.023-0.3 0.079-0.439s0.141-0.265 0.249-0.37 0.236-0.186 0.377-0.239c0.141-0.053 0.291-0.076 0.441-0.067zM6.729 27.492c-0.353 0-0.553 0.19-0.566 0.526s0.16 0.552 0.514 0.564c0.072 0.011 0.146 0.005 0.216-0.016s0.134-0.059 0.188-0.108c0.054-0.050 0.096-0.111 0.122-0.179s0.038-0.141 0.033-0.214c0.009-0.072 0.003-0.145-0.018-0.214s-0.057-0.133-0.105-0.187c-0.048-0.054-0.107-0.097-0.174-0.127s-0.138-0.044-0.211-0.043z"></path>
<path stroke-linejoin="miter" stroke-linecap="butt" stroke-miterlimit="4" stroke-width="0.5333" d="M6.703 26.902c0.15-0.006 0.3 0.018 0.44 0.072s0.268 0.136 0.375 0.242c0.107 0.105 0.192 0.232 0.248 0.371s0.084 0.289 0.080 0.439c0.008 0.155-0.016 0.311-0.070 0.456s-0.138 0.279-0.247 0.391c-0.108 0.112-0.238 0.2-0.382 0.26s-0.298 0.089-0.454 0.086c-0.668 0-1.15-0.513-1.137-1.202-0.004-0.15 0.023-0.3 0.079-0.439s0.141-0.265 0.249-0.37 0.236-0.186 0.377-0.239c0.141-0.053 0.291-0.076 0.441-0.067zM6.729 27.492c-0.353 0-0.553 0.19-0.566 0.526s0.16 0.552 0.514 0.564c0.072 0.011 0.146 0.005 0.216-0.016s0.134-0.059 0.188-0.108c0.054-0.050 0.096-0.111 0.122-0.179s0.038-0.141 0.033-0.214c0.009-0.072 0.003-0.145-0.018-0.214s-0.057-0.133-0.105-0.187c-0.048-0.054-0.107-0.097-0.174-0.127s-0.138-0.044-0.211-0.043z"></path>
</symbol>
<symbol id="icon-advantage_guide" viewBox="0 0 32 32">
<path d="M9.58 17.146c0.377-0.868 0.298-1.268-0.363-1.874-0.822-0.729-1.413-1.682-1.699-2.743-0.085-0.401-0.32-0.755-0.657-0.988-1.23-0.877-1.505-2.395-0.714-3.696 0.127-0.21 0.209-0.384 0.139-0.639-0.647-2.304 0.656-4.984 3.441-6.084 1.608-0.623 3.34-0.862 5.057-0.696 1.026 0.089 1.875 0.494 2.277 1.552 0.188 0.452 0.518 0.83 0.94 1.078 1.662 1.087 1.968 1.997 1.368 3.896-0.068 0.216-0.148 0.387 0.032 0.635 0.974 1.344 0.689 3.096-0.674 4.074-0.226 0.156-0.388 0.389-0.456 0.655-0.343 1.238-1.050 2.345-2.031 3.175-0.418 0.36-0.448 1.604-0.077 1.994 0.188 0.196 0.315 0.024 0.393-0.083 0.775-1.059 1.851-0.917 2.906-0.696 2.923 0.632 4.997 2.285 5.889 5.197 0.899 2.937 0.974 5.983 0.998 9.022 0 0.626-0.38 0.696-0.877 0.696-4.662-0.007-9.324-0.007-13.987 0-3.502 0-7.004 0-10.507 0-0.916 0-0.984-0.067-0.974-1.002 0.024-2.603 0.163-5.194 0.721-7.745 0.809-3.701 3.619-6.123 7.238-6.295 0.707-0.033 0.707-0.033 1.619 0.565zM13.399 30.602c2.251 0 4.5-0.018 6.749 0.013 0.557 0 0.711-0.154 0.696-0.696-0.036-1.483-0.013-2.968-0.011-4.453 0-0.278-0.021-0.566 0.278-0.732 0.393-0.216 0.734 0.068 0.738 0.66 0.013 1.553 0.017 3.107 0 4.66 0 0.417 0.114 0.576 0.55 0.557 0.81-0.031 1.623-0.017 2.434 0 0.305 0 0.483-0.068 0.472-0.417-0.092-2.804-0.132-5.617-1.065-8.31-0.713-2.061-2.227-3.298-4.253-3.98-0.399-0.139-0.622-0.058-0.835 0.321-0.846 1.465-1.723 2.914-2.604 4.358-0.194 0.31-0.295 0.669-0.29 1.035 0.014 1.739 0.010 3.479 0 5.217 0 0.82-0.114 0.934-0.917 0.936-1.507 0-3.015 0-4.524 0-0.887 0-0.967-0.077-0.974-0.941 0-1.67-0.013-3.34 0-5.009 0.016-0.462-0.106-0.918-0.351-1.309-0.853-1.38-1.702-2.765-2.497-4.174-0.278-0.491-0.557-0.505-1.006-0.328-2.189 0.878-3.622 2.423-4.171 4.748-0.573 2.406-0.703 4.856-0.796 7.315-0.017 0.45 0.166 0.547 0.569 0.536 0.903-0.022 1.809-0.028 2.713 0 0.448 0.015 0.601-0.117 0.593-0.582-0.026-1.507-0.008-3.014-0.011-4.522 0-0.391 0.025-0.814 0.516-0.828s0.529 0.417 0.53 0.807c0 1.461 0.025 2.922-0.011 4.382-0.014 0.565 0.139 0.757 0.729 0.749 2.249-0.038 4.5-0.011 6.749-0.011zM12.99 15.687c0.071 0 0.234-0.010 0.394-0.036 2.267-0.365 3.392-1.899 3.992-3.944 0.118-0.405 0.278-0.668 0.679-0.875 1.088-0.565 1.186-2.087 0.207-2.759-0.227-0.156-0.326-0.384-0.438-0.609-0.408-0.808-0.929-1.553-1.548-2.212-0.153-0.163-0.327-0.461-0.624-0.175-0.64 0.621-1.438 0.668-2.266 0.657-1.367-0.015-2.738-0.031-4.088 0.214-0.873 0.156-1.57 0.568-1.694 1.57-0.046 0.227-0.163 0.435-0.333 0.593-0.868 0.952-0.658 2.179 0.493 2.766 0.411 0.209 0.54 0.493 0.625 0.907 0.465 2.282 2.352 3.905 4.6 3.905zM7.19 5.907c1.114-1.014 2.323-1.113 3.531-1.158 0.994-0.042 1.99-0.033 2.986-0.039 0.502 0 0.96-0.099 1.329-0.48 0.618-0.639 0.802-0.65 1.5-0.125 0.64 0.481 1.095 1.123 1.552 1.766 0.109 0.152 0.139 0.398 0.392 0.417 0.313-1.003 0.199-1.494-0.685-2.097-0.788-0.536-1.449-1.137-1.809-2.037-0.153-0.384-0.508-0.557-0.875-0.609-2.316-0.303-4.532-0.052-6.448 1.425-0.867 0.669-1.386 1.585-1.473 2.937zM18.234 17.723c-0.429-0.175-0.59 0.113-0.782 0.278-1.13 0.996-2.254 1.999-3.372 3.008-1.031 0.939-1.023 0.939-2.057-0.035-1.059-1.005-2.127-2.001-3.186-3.004-0.264-0.25-0.523-0.468-0.935-0.246 0.022 0.088 0.052 0.173 0.090 0.255 0.818 1.372 1.649 2.738 2.457 4.117 0.174 0.296 0.405 0.33 0.696 0.327 0.927 0 1.867-0.096 2.784 0.021 1.165 0.15 1.809-0.308 2.32-1.318 0.58-1.17 1.311-2.263 1.986-3.404zM10.857 26.109c0 0.718 0.015 1.435 0 2.151-0.010 0.358 0.113 0.495 0.475 0.491 1.114-0.015 2.227-0.019 3.332 0 0.434 0.008 0.557-0.166 0.557-0.575-0.018-1.392-0.018-2.78 0-4.165 0-0.426-0.139-0.565-0.557-0.557-1.087 0.021-2.175 0.025-3.263 0-0.443-0.010-0.55 0.168-0.534 0.573 0.018 0.692-0.001 1.387-0.001 2.080h-0.008zM15.324 18.216c-0.219-0.436-0.361-0.907-0.418-1.392-0.033-0.426-0.195-0.417-0.529-0.317-0.823 0.252-1.698 0.291-2.54 0.111-0.934-0.182-0.935-0.185-1.171 0.749-0.085 0.338-0.32 0.66 0.079 1.002 0.683 0.586 1.329 1.22 1.976 1.848 0.221 0.214 0.391 0.266 0.64 0.033 0.576-0.534 1.175-1.045 1.761-1.57 0.131-0.103 0.284-0.198 0.209-0.465h-0.008z"></path>
<path d="M22.901 8.903v-6.949c0-0.070 0-0.139 0-0.209 0.014-0.359 0.117-0.665 0.547-0.65 0.383 0.014 0.537 0.305 0.48 0.629-0.128 0.744 0.292 1.113 0.824 1.515 2.258 1.7 4.486 3.44 6.721 5.171 0.267 0.206 0.643 0.391 0.494 0.821s-0.54 0.365-0.888 0.365h-5.489c-1.645 0-1.645 0-1.645 1.681 0 1.529 0 3.059 0 4.592 0 0.377 0.025 0.821-0.49 0.835-0.571 0.021-0.557-0.449-0.557-0.85 0-2.316 0.001-4.633 0.003-6.95zM29.755 8.391c-1.819-1.4-3.619-2.794-5.437-4.183-0.355-0.278-0.367 0-0.367 0.256 0 1.159 0.021 2.32-0.011 3.479-0.013 0.504 0.184 0.628 0.65 0.621 1.531-0.021 3.062 0 4.593-0.011 0.171-0.001 0.367 0.064 0.572-0.161z"></path>
<path d="M13.069 24.064c0.302 0 0.604-0.014 0.905 0 0.065-0.003 0.129 0.008 0.19 0.031s0.116 0.058 0.162 0.103 0.084 0.099 0.109 0.158c0.025 0.060 0.038 0.124 0.038 0.188 0.009 0.064 0.004 0.13-0.014 0.192s-0.050 0.12-0.093 0.169c-0.043 0.049-0.095 0.088-0.155 0.115s-0.123 0.041-0.188 0.040c-0.647 0.024-1.297 0.021-1.949 0-0.065 0.002-0.13-0.011-0.189-0.036s-0.114-0.063-0.158-0.111c-0.044-0.048-0.077-0.104-0.098-0.166s-0.027-0.127-0.020-0.192c-0.003-0.065 0.008-0.129 0.031-0.19s0.059-0.115 0.104-0.162c0.045-0.046 0.1-0.082 0.16-0.106s0.125-0.035 0.189-0.034c0.327-0.013 0.651 0.001 0.976 0z"></path>
<path d="M13.068 26.595c-0.324 0-0.649 0.013-0.974 0-0.065 0.002-0.129-0.009-0.189-0.034s-0.114-0.060-0.16-0.107c-0.045-0.046-0.080-0.101-0.103-0.162s-0.033-0.125-0.030-0.19c-0.007-0.065-0-0.13 0.020-0.191s0.054-0.118 0.098-0.166c0.044-0.048 0.098-0.085 0.158-0.111s0.124-0.037 0.189-0.036c0.625-0.017 1.251-0.017 1.876 0 0.324 0.007 0.528 0.192 0.516 0.527-0.011 0.299-0.209 0.459-0.5 0.474s-0.6-0.006-0.902-0.007z"></path>
<path d="M13.016 28.118c-0.299 0-0.6 0-0.901 0-0.064 0.004-0.129-0.004-0.189-0.026s-0.116-0.056-0.163-0.1c-0.047-0.044-0.084-0.098-0.109-0.157s-0.038-0.123-0.037-0.187c-0.010-0.064-0.006-0.129 0.012-0.191s0.049-0.12 0.092-0.169c0.042-0.049 0.095-0.088 0.154-0.114s0.123-0.039 0.188-0.038c0.646-0.018 1.294-0.017 1.94 0 0.065-0.003 0.129 0.008 0.189 0.032s0.114 0.061 0.158 0.108c0.044 0.047 0.078 0.103 0.099 0.164s0.028 0.126 0.021 0.191c0.003 0.064-0.008 0.128-0.031 0.188s-0.059 0.114-0.104 0.16c-0.045 0.046-0.1 0.081-0.16 0.104s-0.124 0.034-0.188 0.031c-0.323 0.017-0.647 0-0.974 0l0.003 0.003z"></path>
</symbol>
<symbol id="icon-advantage_experience" viewBox="0 0 33 32">
<path d="M21.776 30.963c0.447-0.65 0.857-1.203 1.219-1.788 0.122-0.225 0.306-0.409 0.532-0.529s0.481-0.172 0.736-0.148c0.509 0.021 1.021-0.039 1.53-0.010 0.622 0.035 0.586-0.199 0.328-0.623-0.288-0.474-0.534-0.974-0.8-1.464-0.164-0.301-0.199-0.597 0.149-0.772 0.321-0.163 0.525 0.057 0.668 0.319 0.388 0.712 0.79 1.418 1.148 2.145 0.32 0.65-0.018 1.205-0.76 1.266-0.576 0.067-1.157 0.087-1.736 0.061-0.644-0.052-1.034 0.213-1.334 0.746-0.227 0.402-0.506 0.776-0.772 1.155-0.647 0.92-1.302 0.892-1.839-0.090-1.011-1.85-2.024-3.701-3.008-5.565-0.243-0.463-0.454-0.755-1.032-0.467-0.17 0.080-0.356 0.121-0.544 0.12s-0.373-0.045-0.542-0.128c-0.545-0.267-0.748-0.013-0.985 0.438-0.974 1.846-1.976 3.674-2.97 5.507-0.601 1.113-1.357 1.202-1.921 0.090-0.751-1.478-1.825-1.985-3.431-1.873-1.269 0.089-1.56-0.522-0.945-1.654 0.928-1.711 1.855-3.423 2.783-5.134 0.424-0.785 0.303-1.345-0.452-1.871-0.39-0.251-0.798-0.472-1.222-0.661-1.094-0.533-1.707-1.38-1.55-2.611 0.161-1.274-0.156-2.356-0.922-3.377-0.687-0.914-0.679-1.928 0.011-2.841 0.373-0.472 0.647-1.016 0.803-1.597s0.193-1.188 0.108-1.784c-0.147-1.197 0.417-2.077 1.517-2.549 1.074-0.461 1.86-1.151 2.308-2.259 0.508-1.252 1.505-1.8 2.835-1.615 0.515 0.080 1.041 0.051 1.544-0.085s0.972-0.375 1.378-0.702c1.092-0.835 2.24-0.835 3.329 0 0.417 0.332 0.898 0.573 1.413 0.709s1.053 0.162 1.579 0.078c1.27-0.167 2.24 0.355 2.733 1.557 0.459 1.121 1.237 1.853 2.342 2.321s1.67 1.352 1.518 2.547c-0.084 0.596-0.047 1.202 0.109 1.783s0.429 1.124 0.801 1.597c0.708 0.943 0.682 1.967-0.022 2.902-0.737 0.974-1.048 2.020-0.888 3.247 0.17 1.288-0.459 2.165-1.61 2.717-0.64 0.307-1.323 0.557-1.718 1.237-0.207 0.358-0.264 0.65-0.033 1.018 0.295 0.47 0.538 0.974 0.8 1.464 0.16 0.299 0.192 0.604-0.16 0.771-0.319 0.152-0.518-0.067-0.664-0.331-0.044-0.081-0.086-0.164-0.139-0.245-0.185-0.32-0.299-0.776-0.577-0.922-0.32-0.167-0.488 0.366-0.779 0.523-0.696 0.378-1.436 0.323-2.175 0.278-0.658-0.039-1.298-0.033-1.873 0.36-0.207 0.139-0.373 0.25-0.21 0.545 1.124 2.029 2.23 4.061 3.396 6.197zM12.087 2.36c-1.391-0.351-2.175 0.291-2.644 1.53-0.384 1.020-1.178 1.645-2.161 2.037-1.018 0.408-1.489 1.103-1.318 2.226 0.098 0.571 0.069 1.157-0.083 1.716s-0.425 1.078-0.799 1.521c-0.666 0.815-0.672 1.653-0.007 2.467 0.377 0.443 0.652 0.964 0.806 1.525s0.184 1.149 0.087 1.722c-0.166 1.113 0.264 1.818 1.308 2.226 0.527 0.188 1.005 0.49 1.401 0.885s0.699 0.873 0.888 1.399c0.388 1.045 1.113 1.485 2.226 1.316 0.562-0.099 1.138-0.074 1.689 0.073s1.063 0.413 1.5 0.78c0.857 0.696 1.728 0.707 2.589 0.007 0.436-0.367 0.947-0.635 1.498-0.783s1.127-0.175 1.688-0.078c1.099 0.168 1.835-0.255 2.226-1.304 0.188-0.527 0.491-1.005 0.886-1.401s0.873-0.7 1.399-0.889c1.037-0.399 1.485-1.102 1.318-2.215-0.098-0.574-0.069-1.162 0.084-1.723s0.428-1.082 0.803-1.527c0.662-0.81 0.673-1.647 0-2.465-0.377-0.443-0.653-0.964-0.807-1.525s-0.184-1.15-0.086-1.723c0.17-1.113-0.278-1.83-1.306-2.226-0.535-0.197-1.021-0.51-1.422-0.915s-0.709-0.894-0.901-1.431c-0.373-0.974-1.060-1.409-2.115-1.252-1.231 0.171-2.355-0.097-3.329-0.89-0.851-0.696-1.67-0.633-2.521 0.029s-1.792 1.053-2.897 0.888zM10.772 30.959c1.159-2.122 2.253-4.134 3.36-6.137 0.166-0.302 0.061-0.437-0.189-0.607-0.696-0.47-1.46-0.373-2.226-0.334-0.853 0.042-1.685 0-2.287-0.722-0.249-0.299-0.365-0.139-0.493 0.092-0.874 1.607-1.747 3.213-2.618 4.817-0.164 0.302-0.090 0.417 0.248 0.417 0.579 0 1.159 0.039 1.736 0.018s0.959 0.212 1.252 0.696c0.359 0.557 0.758 1.095 1.217 1.76z"></path>
<path d="M16.36 2.934c2.546 0.036 4.976 1.071 6.767 2.881s2.797 4.253 2.804 6.799c0.007 2.546-0.987 4.993-2.768 6.814s-4.205 2.868-6.751 2.917c-7.096 0.124-11.965-7.41-8.932-13.816 0.079-0.168 0.163-0.334 0.256-0.494 0.184-0.317 0.355-0.754 0.824-0.483 0.426 0.246 0.159 0.601 0 0.907-1.224 2.401-1.408 4.87-0.429 7.392 1.391 3.603 5.148 5.895 9.011 5.507s7.096-3.381 7.751-7.178c0.658-3.819-1.133-7.462-4.591-9.322-3.181-1.718-7.275-1.153-10.017 1.377-0.115 0.115-0.237 0.222-0.366 0.32-0.089 0.066-0.2 0.096-0.31 0.085s-0.213-0.062-0.288-0.144c-0.075-0.082-0.117-0.188-0.119-0.299s0.038-0.218 0.111-0.302c0.27-0.287 0.558-0.555 0.864-0.803 1.809-1.466 3.875-2.165 6.184-2.161z"></path>
<path d="M11.669 17.817c0.147-0.897 0.288-1.86 0.469-2.817 0.041-0.155 0.037-0.318-0.013-0.471s-0.142-0.288-0.266-0.389c-0.63-0.582-1.231-1.194-1.852-1.785-0.401-0.381-0.62-0.813-0.428-1.369 0.185-0.53 0.612-0.712 1.13-0.781 0.803-0.106 1.601-0.259 2.407-0.344 0.465-0.049 0.754-0.227 0.949-0.666 0.346-0.783 0.75-1.54 1.127-2.311 0.223-0.454 0.575-0.744 1.084-0.744s0.861 0.291 1.084 0.746c0.377 0.769 0.782 1.53 1.127 2.311 0.195 0.442 0.488 0.612 0.95 0.664 0.85 0.095 1.695 0.249 2.543 0.37 0.476 0.067 0.835 0.294 0.991 0.757 0.171 0.491 0.029 0.914-0.333 1.267-0.646 0.633-1.286 1.272-1.948 1.888-0.124 0.101-0.216 0.237-0.266 0.389s-0.054 0.316-0.013 0.471c0.161 0.818 0.278 1.646 0.417 2.467 0.099 0.557 0.086 1.075-0.417 1.439-0.481 0.339-0.963 0.223-1.44-0.035-0.756-0.406-1.522-0.79-2.272-1.206-0.125-0.079-0.27-0.121-0.417-0.121s-0.293 0.042-0.417 0.121c-0.811 0.445-1.625 0.892-2.463 1.29-0.925 0.435-1.759-0.106-1.734-1.139zM12.643 17.668c-0.090 0.54 0.139 0.557 0.54 0.344 0.776-0.417 1.567-0.804 2.336-1.233 0.227-0.141 0.489-0.215 0.757-0.215s0.529 0.074 0.757 0.215c0.708 0.394 1.43 0.762 2.152 1.133 0.199 0.102 0.417 0.337 0.629 0.189 0.241-0.17 0.079-0.477 0.043-0.715-0.121-0.801-0.256-1.601-0.417-2.397-0.060-0.248-0.050-0.509 0.028-0.752s0.224-0.46 0.418-0.626c0.659-0.618 1.298-1.252 1.948-1.894 0.114-0.111 0.278-0.228 0.21-0.406s-0.252-0.175-0.417-0.199c-0.87-0.129-1.738-0.289-2.612-0.385-0.623-0.068-1.009-0.365-1.265-0.928-0.364-0.801-0.775-1.581-1.169-2.365-0.070-0.139-0.113-0.327-0.316-0.324s-0.242 0.189-0.312 0.33c-0.417 0.835-0.828 1.66-1.23 2.495-0.092 0.214-0.24 0.398-0.428 0.535s-0.409 0.221-0.641 0.243c-0.892 0.122-1.784 0.262-2.677 0.401-0.182 0.026-0.409 0-0.477 0.21s0.139 0.327 0.263 0.454c0.577 0.57 1.141 1.156 1.746 1.695 0.52 0.462 0.721 0.974 0.572 1.67-0.181 0.832-0.296 1.684-0.44 2.528z"></path>
</symbol>
</defs>
</svg>
