<svg aria-hidden="true" style="position: absolute; width: 0; height: 0; overflow: hidden;" version="1.1" xmlns="http://www.w3.org/2000/svg" xmlns:xlink="http://www.w3.org/1999/xlink">
<defs>
<symbol id="icon-card_ticket" viewBox="0 0 31 32">
<path d="M15.303 26.607h-14.238c-0.984 0-1.054-0.073-1.054-1.069 0-1.533 0.014-3.068-0.009-4.602-0.009-0.558 0.186-0.814 0.761-0.899 0.494-0.054 0.95-0.292 1.277-0.667s0.502-0.858 0.489-1.355c0.005-0.486-0.17-0.957-0.491-1.323s-0.765-0.6-1.248-0.658c-0.597-0.083-0.759-0.352-0.754-0.895 0.016-1.605 0.024-3.211-0.004-4.816-0.011-0.614 0.259-0.843 0.834-0.928 7.844-1.151 15.686-2.313 23.528-3.486 1.036-0.155 2.080-0.299 3.115-0.493 0.621-0.115 0.949 0.027 1.017 0.71 0.088 0.882 0.275 1.753 0.36 2.635 0.049 0.501 0.204 0.706 0.744 0.696 1.054-0.020 1.089 0.046 1.090 1.093 0 1.51-0.010 3.020 0 4.53 0 0.549-0.106 0.876-0.766 0.953-0.483 0.053-0.93 0.283-1.254 0.646s-0.502 0.833-0.5 1.319c-0.015 0.497 0.156 0.982 0.48 1.358s0.778 0.619 1.271 0.678c0.595 0.091 0.734 0.383 0.726 0.92-0.021 1.582-0.030 3.164 0 4.746 0.013 0.69-0.244 0.92-0.929 0.918-4.809-0.022-9.627-0.013-14.444-0.013zM11.57 25.698c3.308 0 6.616 0 9.924 0 0.45 0 0.719-0.059 0.699-0.613-0.016-0.387-0.201-1.018 0.431-1.027 0.692-0.011 0.491 0.642 0.489 1.053s0.102 0.594 0.559 0.588c1.845-0.022 3.691-0.017 5.536 0 0.416 0 0.605-0.108 0.597-0.564-0.023-1.221-0.019-2.445 0-3.666 0-0.371-0.122-0.526-0.482-0.654-1.294-0.465-1.973-1.438-1.986-2.777-0.012-1.26 0.719-2.316 1.993-2.782 0.388-0.144 0.515-0.332 0.509-0.719-0.019-1.175-0.026-2.349 0-3.522 0.013-0.501-0.158-0.666-0.66-0.659-1.677 0.024-3.354 0.009-5.034 0.009-0.964 0-0.971 0-1.007 0.982-0.012 0.337-0.047 0.664-0.455 0.685s-0.482-0.309-0.483-0.646c0-0.144-0.014-0.288 0-0.431 0.046-0.446-0.164-0.575-0.588-0.575-6.686 0.009-13.371 0.009-20.056 0-0.431 0-0.595 0.128-0.587 0.575 0.023 1.221 0.020 2.445 0 3.666 0 0.38 0.144 0.528 0.492 0.653 1.273 0.449 1.999 1.496 2.002 2.782s-0.71 2.292-2.014 2.763c-0.362 0.131-0.48 0.288-0.473 0.66 0.019 1.151 0.047 2.301-0.010 3.452-0.033 0.669 0.221 0.788 0.823 0.784 3.262-0.029 6.521-0.016 9.78-0.016zM7.543 9.344l0.013 0.144h14.076c1.939 0 3.883-0.017 5.816 0.011 0.541 0.007 0.657-0.178 0.559-0.67-0.127-0.633-0.219-1.274-0.288-1.916-0.050-0.431-0.226-0.545-0.66-0.473-1.417 0.236-2.837 0.431-4.26 0.637-1.168 0.165-1.172 0.158-1.117 1.294 0.014 0.296-0.052 0.544-0.377 0.593s-0.467-0.173-0.521-0.463c-0.040-0.141-0.063-0.285-0.069-0.431 0.020-0.561-0.236-0.666-0.758-0.584-2.741 0.431-5.488 0.831-8.232 1.241-1.397 0.209-2.792 0.415-4.185 0.617h0.003z"></path>
<path stroke-linejoin="miter" stroke-linecap="butt" stroke-miterlimit="4" stroke-width="0.512" d="M15.303 26.607h-14.238c-0.984 0-1.054-0.073-1.054-1.069 0-1.533 0.014-3.068-0.009-4.602-0.009-0.558 0.186-0.814 0.761-0.899 0.494-0.054 0.95-0.292 1.277-0.667s0.502-0.858 0.489-1.355c0.005-0.486-0.17-0.957-0.491-1.323s-0.765-0.6-1.248-0.658c-0.597-0.083-0.759-0.352-0.754-0.895 0.016-1.605 0.024-3.211-0.004-4.816-0.011-0.614 0.259-0.843 0.834-0.928 7.844-1.151 15.686-2.313 23.528-3.486 1.036-0.155 2.080-0.299 3.115-0.493 0.621-0.115 0.949 0.027 1.017 0.71 0.088 0.882 0.275 1.753 0.36 2.635 0.049 0.501 0.204 0.706 0.744 0.696 1.054-0.020 1.089 0.046 1.090 1.093 0 1.51-0.010 3.020 0 4.53 0 0.549-0.106 0.876-0.766 0.953-0.483 0.053-0.93 0.283-1.254 0.646s-0.502 0.833-0.5 1.319c-0.015 0.497 0.156 0.982 0.48 1.358s0.778 0.619 1.271 0.678c0.595 0.091 0.734 0.383 0.726 0.92-0.021 1.582-0.030 3.164 0 4.746 0.013 0.69-0.244 0.92-0.929 0.918-4.809-0.022-9.627-0.013-14.444-0.013zM11.57 25.698c3.308 0 6.616 0 9.924 0 0.45 0 0.719-0.059 0.699-0.613-0.016-0.387-0.201-1.018 0.431-1.027 0.692-0.011 0.491 0.642 0.489 1.053s0.102 0.594 0.559 0.588c1.845-0.022 3.691-0.017 5.536 0 0.416 0 0.605-0.108 0.597-0.564-0.023-1.221-0.019-2.445 0-3.666 0-0.371-0.122-0.526-0.482-0.654-1.294-0.465-1.973-1.438-1.986-2.777-0.012-1.26 0.719-2.316 1.993-2.782 0.388-0.144 0.515-0.332 0.509-0.719-0.019-1.175-0.026-2.349 0-3.522 0.013-0.501-0.158-0.666-0.66-0.659-1.677 0.024-3.354 0.009-5.034 0.009-0.964 0-0.971 0-1.007 0.982-0.012 0.337-0.047 0.664-0.455 0.685s-0.482-0.309-0.483-0.646c0-0.144-0.014-0.288 0-0.431 0.046-0.446-0.164-0.575-0.588-0.575-6.686 0.009-13.371 0.009-20.056 0-0.431 0-0.595 0.128-0.587 0.575 0.023 1.221 0.020 2.445 0 3.666 0 0.38 0.144 0.528 0.492 0.653 1.273 0.449 1.999 1.496 2.002 2.782s-0.71 2.292-2.014 2.763c-0.362 0.131-0.48 0.288-0.473 0.66 0.019 1.151 0.047 2.301-0.010 3.452-0.033 0.669 0.221 0.788 0.823 0.784 3.262-0.029 6.521-0.016 9.78-0.016zM7.543 9.344l0.013 0.144h14.076c1.939 0 3.883-0.017 5.816 0.011 0.541 0.007 0.657-0.178 0.559-0.67-0.127-0.633-0.219-1.274-0.288-1.916-0.050-0.431-0.226-0.545-0.66-0.473-1.417 0.236-2.837 0.431-4.26 0.637-1.168 0.165-1.172 0.158-1.117 1.294 0.014 0.296-0.052 0.544-0.377 0.593s-0.467-0.173-0.521-0.463c-0.040-0.141-0.063-0.285-0.069-0.431 0.020-0.561-0.236-0.666-0.758-0.584-2.741 0.431-5.488 0.831-8.232 1.241-1.397 0.209-2.792 0.415-4.185 0.617h0.003z"></path>
<path d="M11.425 19.961c-1.726 0-3.452 0-5.178 0-0.358 0-0.795 0.027-0.782-0.495 0.011-0.469 0.419-0.446 0.756-0.446 3.52 0 7.040 0 10.559 0 0.339 0 0.742-0.016 0.746 0.455 0 0.524-0.431 0.485-0.792 0.486-1.766 0.003-3.538 0-5.31 0z"></path>
<path stroke-linejoin="miter" stroke-linecap="butt" stroke-miterlimit="4" stroke-width="0.512" d="M11.425 19.961c-1.726 0-3.452 0-5.178 0-0.358 0-0.795 0.027-0.782-0.495 0.011-0.469 0.419-0.446 0.756-0.446 3.52 0 7.040 0 10.559 0 0.339 0 0.742-0.016 0.746 0.455 0 0.524-0.431 0.485-0.792 0.486-1.766 0.003-3.538 0-5.31 0z"></path>
<path d="M11.569 21.884c1.726 0 3.452 0 5.178 0 0.358 0 0.804-0.045 0.791 0.479s-0.462 0.463-0.817 0.463c-3.474 0-6.947 0-10.421 0-0.072 0-0.144 0-0.216 0-0.311-0.010-0.607-0.083-0.618-0.453-0.013-0.42 0.303-0.489 0.644-0.489h5.459z"></path>
<path stroke-linejoin="miter" stroke-linecap="butt" stroke-miterlimit="4" stroke-width="0.512" d="M11.569 21.884c1.726 0 3.452 0 5.178 0 0.358 0 0.804-0.045 0.791 0.479s-0.462 0.463-0.817 0.463c-3.474 0-6.947 0-10.421 0-0.072 0-0.144 0-0.216 0-0.311-0.010-0.607-0.083-0.618-0.453-0.013-0.42 0.303-0.489 0.644-0.489h5.459z"></path>
<path d="M11.42 17.073c-1.726 0-3.452 0-5.167 0-0.351 0-0.803 0.049-0.781-0.485 0.019-0.462 0.431-0.431 0.764-0.431h10.551c0.341 0 0.735-0.012 0.747 0.456s-0.393 0.466-0.729 0.467c-1.795-0.004-3.588-0.007-5.383-0.007z"></path>
<path stroke-linejoin="miter" stroke-linecap="butt" stroke-miterlimit="4" stroke-width="0.512" d="M11.42 17.073c-1.726 0-3.452 0-5.167 0-0.351 0-0.803 0.049-0.781-0.485 0.019-0.462 0.431-0.431 0.764-0.431h10.551c0.341 0 0.735-0.012 0.747 0.456s-0.393 0.466-0.729 0.467c-1.795-0.004-3.588-0.007-5.383-0.007z"></path>
<path d="M8.746 13.267h2.51c0.325 0 0.67 0.016 0.679 0.444s-0.331 0.464-0.659 0.464c-1.72 0-3.44 0-5.16 0-0.325 0-0.676-0.029-0.644-0.47 0.027-0.408 0.365-0.439 0.695-0.431l2.58-0.007z"></path>
<path stroke-linejoin="miter" stroke-linecap="butt" stroke-miterlimit="4" stroke-width="0.512" d="M8.746 13.267h2.51c0.325 0 0.67 0.016 0.679 0.444s-0.331 0.464-0.659 0.464c-1.72 0-3.44 0-5.16 0-0.325 0-0.676-0.029-0.644-0.47 0.027-0.408 0.365-0.439 0.695-0.431l2.58-0.007z"></path>
<path d="M23.123 15.41c0 0.454 0.007 0.91 0 1.363-0.009 0.322-0.144 0.575-0.505 0.562-0.329-0.014-0.431-0.266-0.431-0.554-0.006-0.909-0.006-1.82 0-2.733 0-0.321 0.131-0.575 0.501-0.561 0.318 0.019 0.431 0.257 0.44 0.552-0.001 0.46-0.004 0.915-0.004 1.369z"></path>
<path stroke-linejoin="miter" stroke-linecap="butt" stroke-miterlimit="4" stroke-width="0.512" d="M23.123 15.41c0 0.454 0.007 0.91 0 1.363-0.009 0.322-0.144 0.575-0.505 0.562-0.329-0.014-0.431-0.266-0.431-0.554-0.006-0.909-0.006-1.82 0-2.733 0-0.321 0.131-0.575 0.501-0.561 0.318 0.019 0.431 0.257 0.44 0.552-0.001 0.46-0.004 0.915-0.004 1.369z"></path>
<path d="M23.124 20.68c0 0.453 0.007 0.908 0 1.362 0 0.318-0.129 0.575-0.498 0.575-0.334-0.009-0.431-0.262-0.439-0.548-0.009-0.909-0.009-1.817 0-2.726 0-0.316 0.126-0.595 0.492-0.575s0.45 0.305 0.45 0.623l-0.006 1.289z"></path>
<path stroke-linejoin="miter" stroke-linecap="butt" stroke-miterlimit="4" stroke-width="0.512" d="M23.124 20.68c0 0.453 0.007 0.908 0 1.362 0 0.318-0.129 0.575-0.498 0.575-0.334-0.009-0.431-0.262-0.439-0.548-0.009-0.909-0.009-1.817 0-2.726 0-0.316 0.126-0.595 0.492-0.575s0.45 0.305 0.45 0.623l-0.006 1.289z"></path>
</symbol>
<symbol id="icon-card_discount" viewBox="0 0 31 32">
<path d="M15.422 6.8h14.304c0.955 0 0.987 0.040 0.987 0.987 0 1.175-0.017 2.349 0.007 3.525 0.010 0.493-0.141 0.749-0.65 0.905-1.808 0.564-2.885 2.030-2.871 3.818 0.014 1.754 1.091 3.192 2.872 3.748 0.46 0.141 0.657 0.348 0.649 0.835-0.023 1.269-0.025 2.538 0 3.807 0.013 0.581-0.218 0.787-0.791 0.787-9.7-0.009-19.401-0.009-29.101 0-0.606 0-0.846-0.211-0.826-0.825 0.031-1.244 0.023-2.49 0-3.735 0-0.467 0.141-0.705 0.616-0.859 1.834-0.57 2.912-2.006 2.912-3.79s-1.076-3.217-2.904-3.793c-0.479-0.149-0.62-0.395-0.62-0.86 0.027-1.222 0.042-2.446 0-3.664-0.021-0.682 0.228-0.897 0.902-0.897 4.838 0.021 9.672 0.011 14.515 0.011zM11.234 7.683c-3.217 0-6.436 0.013-9.654-0.011-0.534-0.004-0.698 0.161-0.674 0.682 0.038 0.797 0.031 1.597 0 2.397-0.015 0.44 0.141 0.653 0.553 0.83 1.692 0.722 2.687 2.033 2.907 3.851 0.228 1.885-0.391 3.617-2.051 4.46-1.407 0.715-1.506 1.651-1.401 2.892 0.028 0.257 0.028 0.517 0 0.774-0.089 0.632 0.173 0.783 0.785 0.78 6.13-0.023 12.267-0.013 18.391-0.015 0.423 0 0.899 0.093 1.245-0.075s0.097-0.687 0.173-1.042c0.054-0.258 0.165-0.451 0.454-0.437s0.393 0.224 0.412 0.482c0.015 0.188 0.018 0.376 0.008 0.564-0.021 0.343 0.086 0.517 0.471 0.516 2.162-0.011 4.324-0.011 6.486 0 0.371 0 0.494-0.141 0.489-0.501-0.013-0.915-0.014-1.833 0-2.747 0-0.343-0.154-0.481-0.451-0.609-1.974-0.846-3.037-2.359-3.030-4.491 0-2.102 1.067-3.604 3.006-4.434 0.375-0.161 0.484-0.362 0.477-0.735-0.018-0.846-0.028-1.692 0-2.538 0.017-0.468-0.154-0.606-0.609-0.601-1.809 0.020-3.618 0-5.425 0.013-0.439 0-0.945-0.171-1.301 0.104-0.275 0.212-0.065 0.667-0.123 1.008-0.044 0.262-0.166 0.448-0.454 0.438-0.251-0.008-0.371-0.179-0.402-0.413-0.026-0.139-0.031-0.282-0.017-0.423 0.090-0.602-0.178-0.74-0.752-0.736-3.171 0.030-6.342 0.016-9.513 0.016z"></path>
<path stroke-linejoin="miter" stroke-linecap="butt" stroke-miterlimit="4" stroke-width="0.512" d="M15.422 6.8h14.304c0.955 0 0.987 0.040 0.987 0.987 0 1.175-0.017 2.349 0.007 3.525 0.010 0.493-0.141 0.749-0.65 0.905-1.808 0.564-2.885 2.030-2.871 3.818 0.014 1.754 1.091 3.192 2.872 3.748 0.46 0.141 0.657 0.348 0.649 0.835-0.023 1.269-0.025 2.538 0 3.807 0.013 0.581-0.218 0.787-0.791 0.787-9.7-0.009-19.401-0.009-29.101 0-0.606 0-0.846-0.211-0.826-0.825 0.031-1.244 0.023-2.49 0-3.735 0-0.467 0.141-0.705 0.616-0.859 1.834-0.57 2.912-2.006 2.912-3.79s-1.076-3.217-2.904-3.793c-0.479-0.149-0.62-0.395-0.62-0.86 0.027-1.222 0.042-2.446 0-3.664-0.021-0.682 0.228-0.897 0.902-0.897 4.838 0.021 9.672 0.011 14.515 0.011zM11.234 7.683c-3.217 0-6.436 0.013-9.654-0.011-0.534-0.004-0.698 0.161-0.674 0.682 0.038 0.797 0.031 1.597 0 2.397-0.015 0.44 0.141 0.653 0.553 0.83 1.692 0.722 2.687 2.033 2.907 3.851 0.228 1.885-0.391 3.617-2.051 4.46-1.407 0.715-1.506 1.651-1.401 2.892 0.028 0.257 0.028 0.517 0 0.774-0.089 0.632 0.173 0.783 0.785 0.78 6.13-0.023 12.267-0.013 18.391-0.015 0.423 0 0.899 0.093 1.245-0.075s0.097-0.687 0.173-1.042c0.054-0.258 0.165-0.451 0.454-0.437s0.393 0.224 0.412 0.482c0.015 0.188 0.018 0.376 0.008 0.564-0.021 0.343 0.086 0.517 0.471 0.516 2.162-0.011 4.324-0.011 6.486 0 0.371 0 0.494-0.141 0.489-0.501-0.013-0.915-0.014-1.833 0-2.747 0-0.343-0.154-0.481-0.451-0.609-1.974-0.846-3.037-2.359-3.030-4.491 0-2.102 1.067-3.604 3.006-4.434 0.375-0.161 0.484-0.362 0.477-0.735-0.018-0.846-0.028-1.692 0-2.538 0.017-0.468-0.154-0.606-0.609-0.601-1.809 0.020-3.618 0-5.425 0.013-0.439 0-0.945-0.171-1.301 0.104-0.275 0.212-0.065 0.667-0.123 1.008-0.044 0.262-0.166 0.448-0.454 0.438-0.251-0.008-0.371-0.179-0.402-0.413-0.026-0.139-0.031-0.282-0.017-0.423 0.090-0.602-0.178-0.74-0.752-0.736-3.171 0.030-6.342 0.016-9.513 0.016z"></path>
<path d="M8.31 20.598c-0.336-0.070-0.529-0.264-0.333-0.636 0.117-0.177 0.259-0.336 0.423-0.471 2.49-2.493 4.981-4.984 7.473-7.473l0.151-0.141c0.22-0.217 0.465-0.361 0.732-0.099s0.103 0.512-0.11 0.723c-1.115 1.107-2.229 2.216-3.343 3.327-1.462 1.462-2.923 2.923-4.384 4.385-0.165 0.164-0.314 0.358-0.609 0.384z"></path>
<path stroke-linejoin="miter" stroke-linecap="butt" stroke-miterlimit="4" stroke-width="0.512" d="M8.31 20.598c-0.336-0.070-0.529-0.264-0.333-0.636 0.117-0.177 0.259-0.336 0.423-0.471 2.49-2.493 4.981-4.984 7.473-7.473l0.151-0.141c0.22-0.217 0.465-0.361 0.732-0.099s0.103 0.512-0.11 0.723c-1.115 1.107-2.229 2.216-3.343 3.327-1.462 1.462-2.923 2.923-4.384 4.385-0.165 0.164-0.314 0.358-0.609 0.384z"></path>
<path d="M9.524 11.167c0.264-0 0.526 0.052 0.769 0.153s0.465 0.25 0.652 0.437c0.186 0.187 0.334 0.409 0.434 0.654s0.151 0.506 0.15 0.77c-0.003 0.266-0.058 0.529-0.163 0.774s-0.256 0.466-0.447 0.652-0.415 0.333-0.662 0.432c-0.247 0.099-0.511 0.148-0.777 0.145s-0.529-0.059-0.774-0.163c-0.245-0.105-0.466-0.257-0.652-0.447s-0.333-0.415-0.432-0.662c-0.099-0.247-0.148-0.511-0.145-0.777 0.005-0.264 0.061-0.524 0.167-0.766s0.258-0.46 0.448-0.643c0.19-0.183 0.415-0.326 0.661-0.422s0.508-0.142 0.772-0.136zM9.483 14.304c0.149 0.003 0.297-0.023 0.436-0.077s0.265-0.135 0.373-0.238c0.107-0.103 0.194-0.226 0.253-0.363s0.092-0.283 0.095-0.432c0.003-0.149-0.023-0.297-0.077-0.436s-0.135-0.265-0.238-0.373-0.226-0.194-0.363-0.253c-0.136-0.060-0.283-0.092-0.432-0.095-0.301-0.006-0.591 0.107-0.808 0.316s-0.342 0.494-0.348 0.795c-0.006 0.301 0.107 0.591 0.316 0.808s0.494 0.342 0.795 0.348z"></path>
<path stroke-linejoin="miter" stroke-linecap="butt" stroke-miterlimit="4" stroke-width="0.512" d="M9.524 11.167c0.264-0 0.526 0.052 0.769 0.153s0.465 0.25 0.652 0.437c0.186 0.187 0.334 0.409 0.434 0.654s0.151 0.506 0.15 0.77c-0.003 0.266-0.058 0.529-0.163 0.774s-0.256 0.466-0.447 0.652-0.415 0.333-0.662 0.432c-0.247 0.099-0.511 0.148-0.777 0.145s-0.529-0.059-0.774-0.163c-0.245-0.105-0.466-0.257-0.652-0.447s-0.333-0.415-0.432-0.662c-0.099-0.247-0.148-0.511-0.145-0.777 0.005-0.264 0.061-0.524 0.167-0.766s0.258-0.46 0.448-0.643c0.19-0.183 0.415-0.326 0.661-0.422s0.508-0.142 0.772-0.136zM9.483 14.304c0.149 0.003 0.297-0.023 0.436-0.077s0.265-0.135 0.373-0.238c0.107-0.103 0.194-0.226 0.253-0.363s0.092-0.283 0.095-0.432c0.003-0.149-0.023-0.297-0.077-0.436s-0.135-0.265-0.238-0.373-0.226-0.194-0.363-0.253c-0.136-0.060-0.283-0.092-0.432-0.095-0.301-0.006-0.591 0.107-0.808 0.316s-0.342 0.494-0.348 0.795c-0.006 0.301 0.107 0.591 0.316 0.808s0.494 0.342 0.795 0.348z"></path>
<path d="M17.12 18.793c0.002 0.264-0.047 0.525-0.146 0.77s-0.245 0.467-0.431 0.655c-0.185 0.188-0.406 0.337-0.649 0.439s-0.504 0.156-0.768 0.157c-0.263 0.008-0.526-0.037-0.772-0.132s-0.47-0.238-0.66-0.421c-0.19-0.183-0.341-0.402-0.444-0.645s-0.158-0.503-0.159-0.767c-0.009-0.27 0.037-0.538 0.134-0.79s0.244-0.481 0.432-0.674c0.188-0.193 0.413-0.347 0.662-0.451s0.516-0.158 0.786-0.156c0.532 0.007 1.041 0.221 1.417 0.598s0.591 0.885 0.598 1.417zM16.218 18.773c-0.002-0.146-0.033-0.29-0.091-0.424s-0.142-0.255-0.246-0.357c-0.105-0.102-0.229-0.181-0.364-0.235s-0.281-0.080-0.427-0.077c-0.152-0-0.302 0.030-0.442 0.090s-0.266 0.146-0.371 0.256c-0.105 0.109-0.188 0.239-0.242 0.38s-0.079 0.293-0.073 0.445c0.016 0.294 0.143 0.571 0.355 0.775s0.494 0.32 0.789 0.323c0.151-0.002 0.3-0.034 0.438-0.095s0.263-0.148 0.367-0.258c0.104-0.11 0.184-0.239 0.237-0.38s0.077-0.292 0.070-0.443z"></path>
<path stroke-linejoin="miter" stroke-linecap="butt" stroke-miterlimit="4" stroke-width="0.512" d="M17.12 18.793c0.002 0.264-0.047 0.525-0.146 0.77s-0.245 0.467-0.431 0.655c-0.185 0.188-0.406 0.337-0.649 0.439s-0.504 0.156-0.768 0.157c-0.263 0.008-0.526-0.037-0.772-0.132s-0.47-0.238-0.66-0.421c-0.19-0.183-0.341-0.402-0.444-0.645s-0.158-0.503-0.159-0.767c-0.009-0.27 0.037-0.538 0.134-0.79s0.244-0.481 0.432-0.674c0.188-0.193 0.413-0.347 0.662-0.451s0.516-0.158 0.786-0.156c0.532 0.007 1.041 0.221 1.417 0.598s0.591 0.885 0.598 1.417zM16.218 18.773c-0.002-0.146-0.033-0.29-0.091-0.424s-0.142-0.255-0.246-0.357c-0.105-0.102-0.229-0.181-0.364-0.235s-0.281-0.080-0.427-0.077c-0.152-0-0.302 0.030-0.442 0.090s-0.266 0.146-0.371 0.256c-0.105 0.109-0.188 0.239-0.242 0.38s-0.079 0.293-0.073 0.445c0.016 0.294 0.143 0.571 0.355 0.775s0.494 0.32 0.789 0.323c0.151-0.002 0.3-0.034 0.438-0.095s0.263-0.148 0.367-0.258c0.104-0.11 0.184-0.239 0.237-0.38s0.077-0.292 0.070-0.443z"></path>
<path d="M22.368 16.015c0 0.258 0.017 0.516 0 0.771s-0.179 0.451-0.457 0.423c-0.278-0.028-0.398-0.23-0.403-0.489-0.011-0.468-0.010-0.936 0-1.403 0-0.282 0.12-0.533 0.431-0.536s0.436 0.234 0.444 0.525c0 0.234 0 0.468 0 0.705l-0.015 0.004z"></path>
<path stroke-linejoin="miter" stroke-linecap="butt" stroke-miterlimit="4" stroke-width="0.512" d="M22.368 16.015c0 0.258 0.017 0.516 0 0.771s-0.179 0.451-0.457 0.423c-0.278-0.028-0.398-0.23-0.403-0.489-0.011-0.468-0.010-0.936 0-1.403 0-0.282 0.12-0.533 0.431-0.536s0.436 0.234 0.444 0.525c0 0.234 0 0.468 0 0.705l-0.015 0.004z"></path>
<path d="M21.503 12.029c0-0.257-0.013-0.513 0-0.768s0.141-0.46 0.423-0.461c0.282-0.001 0.423 0.196 0.431 0.454 0.018 0.489 0.017 0.98 0 1.469 0 0.282-0.141 0.505-0.464 0.489-0.293-0.015-0.389-0.23-0.403-0.482s0.011-0.467 0.013-0.701z"></path>
<path stroke-linejoin="miter" stroke-linecap="butt" stroke-miterlimit="4" stroke-width="0.512" d="M21.503 12.029c0-0.257-0.013-0.513 0-0.768s0.141-0.46 0.423-0.461c0.282-0.001 0.423 0.196 0.431 0.454 0.018 0.489 0.017 0.98 0 1.469 0 0.282-0.141 0.505-0.464 0.489-0.293-0.015-0.389-0.23-0.403-0.482s0.011-0.467 0.013-0.701z"></path>
<path d="M22.373 20.042c0 0.233 0.011 0.467 0 0.705-0.017 0.256-0.141 0.461-0.423 0.467s-0.423-0.189-0.437-0.446c-0.017-0.513-0.017-1.026 0-1.538-0.004-0.059 0.005-0.118 0.026-0.173s0.055-0.105 0.098-0.145c0.043-0.040 0.094-0.071 0.151-0.089s0.116-0.024 0.174-0.016c0.293 0.014 0.395 0.221 0.409 0.475s0.004 0.5 0.003 0.76z"></path>
<path stroke-linejoin="miter" stroke-linecap="butt" stroke-miterlimit="4" stroke-width="0.512" d="M22.373 20.042c0 0.233 0.011 0.467 0 0.705-0.017 0.256-0.141 0.461-0.423 0.467s-0.423-0.189-0.437-0.446c-0.017-0.513-0.017-1.026 0-1.538-0.004-0.059 0.005-0.118 0.026-0.173s0.055-0.105 0.098-0.145c0.043-0.040 0.094-0.071 0.151-0.089s0.116-0.024 0.174-0.016c0.293 0.014 0.395 0.221 0.409 0.475s0.004 0.5 0.003 0.76z"></path>
</symbol>
<symbol id="icon-card_location" viewBox="0 0 31 32">
<path d="M11.794 22.88c-0.752-0.967-1.473-1.885-2.186-2.809-1.237-1.605-2.458-3.217-3.261-5.104-0.847-2.012-1.005-4.248-0.449-6.36s1.793-3.98 3.52-5.316c1.709-1.306 3.801-2.013 5.952-2.011s4.242 0.711 5.949 2.020c1.725 1.338 2.959 3.21 3.508 5.323s0.385 4.348-0.469 6.358c-0.786 1.847-1.974 3.43-3.179 5.006-0.621 0.813-1.241 1.628-1.892 2.416-0.328 0.397-0.346 0.545 0.229 0.64 1.29 0.2 2.54 0.549 3.696 1.185 0.494 0.255 0.939 0.593 1.317 1.001 0.811 0.919 0.805 2.038-0.024 2.943-0.775 0.847-1.791 1.305-2.85 1.642-2.616 0.829-5.305 1.039-8.028 0.834-1.898-0.143-3.771-0.425-5.529-1.216-0.61-0.253-1.173-0.609-1.664-1.052-1.115-1.071-1.12-2.343 0.020-3.396 0.866-0.801 1.934-1.236 3.051-1.548 0.718-0.212 1.469-0.362 2.289-0.555zM23.962 11.278c0-4.735-3.455-8.481-7.959-8.829-2.172-0.159-4.324 0.509-6.025 1.87s-2.825 3.314-3.146 5.468c-0.356 2.438 0.265 4.654 1.603 6.685 2.047 3.102 4.552 5.858 6.677 8.9 0.211 0.305 0.344 0.209 0.512-0.032 0.28-0.402 0.578-0.792 0.869-1.187 1.841-2.509 3.908-4.848 5.62-7.454 1.121-1.703 1.894-3.529 1.849-5.419zM15.332 29.562c1.195 0.004 2.388-0.092 3.566-0.288 0.866-0.122 1.719-0.328 2.545-0.614 0.743-0.27 1.475-0.575 2.067-1.118s0.607-1.152-0.009-1.698c-0.275-0.236-0.576-0.441-0.896-0.612-1.254-0.691-2.636-0.95-4.026-1.189-0.398-0.069-0.628 0.065-0.85 0.384-0.566 0.801-1.159 1.582-1.743 2.369-0.473 0.64-0.804 0.633-1.28-0.019-0.328-0.447-0.651-0.896-0.979-1.344-1.122-1.535-1.122-1.535-3.005-1.12-1.152 0.256-2.268 0.605-3.239 1.304-0.99 0.711-0.98 1.483 0.026 2.184 0.565 0.384 1.183 0.683 1.835 0.888 1.946 0.627 3.954 0.836 5.986 0.873z"></path>
<path d="M19.371 11.058c-0.002 1.065-0.427 2.085-1.182 2.837s-1.777 1.172-2.842 1.17c-1.065-0.002-2.085-0.427-2.837-1.182s-1.172-1.777-1.17-2.842 0.427-2.085 1.182-2.837c0.374-0.372 0.817-0.667 1.305-0.868s1.010-0.304 1.537-0.302 1.049 0.106 1.536 0.309c0.487 0.203 0.929 0.5 1.301 0.873s0.667 0.817 0.868 1.305c0.201 0.488 0.304 1.010 0.302 1.537zM18.219 11.022c-0.008-0.759-0.316-1.484-0.858-2.015s-1.273-0.826-2.031-0.818c-0.759 0.007-1.484 0.316-2.015 0.858s-0.826 1.273-0.818 2.031c0.007 0.759 0.316 1.484 0.858 2.015s1.273 0.826 2.031 0.818c0.759-0.007 1.484-0.316 2.015-0.858s0.826-1.273 0.818-2.031z"></path>
</symbol>
<symbol id="icon-card_best-price" viewBox="0 0 31 32">
<path d="M0.64 23.519c0-1.603 0-3.206 0-4.809 0-1.252 0.462-1.72 1.69-1.72 1.625 0 3.249 0.013 4.873-0.008 0.758-0.010 1.354 0.195 1.616 0.967 0.128 0.378 0.33 0.159 0.492 0.074 1.49-0.777 2.197-2.086 2.47-3.688 0.149-0.869 0.128-1.744 0.149-2.62 0.014-0.596 0-1.264 0.707-1.509 0.671-0.236 1.203 0.138 1.654 0.587 0.616 0.613 0.905 1.411 1.035 2.236 0.256 1.675 0.19 3.334-0.604 4.873-0.206 0.403-0.151 0.502 0.3 0.498 2.008-0.017 4.018 0.012 6.027-0.017 0.782-0.012 1.411 0.2 1.726 0.943 0.3 0.703 0.14 1.349-0.463 1.841-0.204 0.167-0.151 0.276-0.049 0.476 0.487 0.944 0.341 1.539-0.54 2.204-0.188 0.141-0.223 0.219-0.128 0.453 0.413 1.060 0.199 1.632-0.823 2.215-0.23 0.128-0.217 0.223-0.147 0.442 0.424 1.341-0.321 2.348-1.727 2.35-2.865 0-5.728-0.006-8.591 0.008-0.449 0-0.836-0.269-1.227-0.273-0.426 0-0.377 0.681-0.785 0.877-0.286 0.143-0.602 0.219-0.922 0.221-1.731 0-3.462 0-5.193 0-1.025-0.006-1.526-0.518-1.538-1.557 0-1.689 0-3.378 0-5.065zM14.598 28.737c1.453 0 2.906 0.008 4.36 0 0.718 0 1.236-0.476 1.253-1.096s-0.444-0.986-1.225-0.992c-1.026-0.008-2.052 0-3.078-0.014-0.244 0-0.596 0.078-0.603-0.287s0.34-0.308 0.59-0.309c1.388 0 2.776 0 4.165-0.009 0.75 0 1.16-0.369 1.154-0.989-0.013-0.591-0.418-0.946-1.123-0.955-0.812-0.012-1.623 0-2.436 0-0.241 0-0.596 0.079-0.583-0.301 0.012-0.36 0.362-0.288 0.606-0.291 1.004-0.007 2.008 0 3.012 0 0.836 0 1.223-0.308 1.231-0.96s-0.392-0.991-1.195-1.003c-0.32 0-0.641 0-0.962 0h-1.924c-0.209 0-0.404-0.050-0.385-0.309 0.012-0.226 0.208-0.24 0.385-0.249 0.149-0.006 0.299 0 0.449 0 1.004 0 2.008 0 3.012-0.006 0.413 0 0.759-0.149 0.932-0.553 0.084-0.175 0.117-0.37 0.094-0.562s-0.1-0.375-0.223-0.525c-0.272-0.349-0.664-0.342-1.053-0.342-2.287 0-4.573 0-6.859 0-0.186 0-0.401 0.045-0.521-0.158s0.037-0.363 0.145-0.513c1.209-1.7 1.213-3.598 0.872-5.534-0.116-0.706-0.502-1.34-1.076-1.768-0.225-0.168-0.48-0.327-0.769-0.214-0.322 0.128-0.29 0.448-0.304 0.717-0.049 0.875-0.027 1.756-0.128 2.622-0.239 2.066-1.182 3.688-3.135 4.583-0.385 0.178-0.385 0.453-0.385 0.778 0 2.67 0 5.34 0 8.012 0 0.777 0.321 1.148 1.091 1.249 0.149 0.013 0.299 0.016 0.449 0.009l4.165-0.028zM8.287 23.559c0-1.624 0-3.248 0-4.873 0-0.889-0.21-1.116-1.073-1.125-0.513 0-1.026 0.032-1.539-0.010s-0.603 0.169-0.595 0.627c0.024 1.622 0.009 3.246 0.008 4.873 0.004 0.171-0.003 0.343-0.021 0.513-0.002 0.065-0.028 0.128-0.073 0.175s-0.107 0.076-0.172 0.081c-0.037 0.006-0.076 0.004-0.112-0.007s-0.070-0.029-0.099-0.054c-0.028-0.025-0.051-0.056-0.066-0.091s-0.022-0.073-0.021-0.111c-0.017-0.17-0.024-0.342-0.021-0.513 0-1.644-0.012-3.289 0.006-4.933 0-0.419-0.135-0.569-0.554-0.55-0.574 0.027-1.154 0-1.729 0.009-0.76 0.014-0.995 0.244-0.996 1.005-0.007 3.334-0.007 6.665 0 9.993 0 0.75 0.256 1.002 1 1.004 1.664 0.008 3.331 0.008 5.001 0 0.819 0 1.057-0.256 1.058-1.081-0.002-1.645-0.003-3.289-0.004-4.933z"></path>
<path stroke-linejoin="miter" stroke-linecap="butt" stroke-miterlimit="4" stroke-width="0.768" d="M0.64 23.519c0-1.603 0-3.206 0-4.809 0-1.252 0.462-1.72 1.69-1.72 1.625 0 3.249 0.013 4.873-0.008 0.758-0.010 1.354 0.195 1.616 0.967 0.128 0.378 0.33 0.159 0.492 0.074 1.49-0.777 2.197-2.086 2.47-3.688 0.149-0.869 0.128-1.744 0.149-2.62 0.014-0.596 0-1.264 0.707-1.509 0.671-0.236 1.203 0.138 1.654 0.587 0.616 0.613 0.905 1.411 1.035 2.236 0.256 1.675 0.19 3.334-0.604 4.873-0.206 0.403-0.151 0.502 0.3 0.498 2.008-0.017 4.018 0.012 6.027-0.017 0.782-0.012 1.411 0.2 1.726 0.943 0.3 0.703 0.14 1.349-0.463 1.841-0.204 0.167-0.151 0.276-0.049 0.476 0.487 0.944 0.341 1.539-0.54 2.204-0.188 0.141-0.223 0.219-0.128 0.453 0.413 1.060 0.199 1.632-0.823 2.215-0.23 0.128-0.217 0.223-0.147 0.442 0.424 1.341-0.321 2.348-1.727 2.35-2.865 0-5.728-0.006-8.591 0.008-0.449 0-0.836-0.269-1.227-0.273-0.426 0-0.377 0.681-0.785 0.877-0.286 0.143-0.602 0.219-0.922 0.221-1.731 0-3.462 0-5.193 0-1.025-0.006-1.526-0.518-1.538-1.557 0-1.689 0-3.378 0-5.065zM14.598 28.737c1.453 0 2.906 0.008 4.36 0 0.718 0 1.236-0.476 1.253-1.096s-0.444-0.986-1.225-0.992c-1.026-0.008-2.052 0-3.078-0.014-0.244 0-0.596 0.078-0.603-0.287s0.34-0.308 0.59-0.309c1.388 0 2.776 0 4.165-0.009 0.75 0 1.16-0.369 1.154-0.989-0.013-0.591-0.418-0.946-1.123-0.955-0.812-0.012-1.623 0-2.436 0-0.241 0-0.596 0.079-0.583-0.301 0.012-0.36 0.362-0.288 0.606-0.291 1.004-0.007 2.008 0 3.012 0 0.836 0 1.223-0.308 1.231-0.96s-0.392-0.991-1.195-1.003c-0.32 0-0.641 0-0.962 0h-1.924c-0.209 0-0.404-0.050-0.385-0.309 0.012-0.226 0.208-0.24 0.385-0.249 0.149-0.006 0.299 0 0.449 0 1.004 0 2.008 0 3.012-0.006 0.413 0 0.759-0.149 0.932-0.553 0.084-0.175 0.117-0.37 0.094-0.562s-0.1-0.375-0.223-0.525c-0.272-0.349-0.664-0.342-1.053-0.342-2.287 0-4.573 0-6.859 0-0.186 0-0.401 0.045-0.521-0.158s0.037-0.363 0.145-0.513c1.209-1.7 1.213-3.598 0.872-5.534-0.116-0.706-0.502-1.34-1.076-1.768-0.225-0.168-0.48-0.327-0.769-0.214-0.322 0.128-0.29 0.448-0.304 0.717-0.049 0.875-0.027 1.756-0.128 2.622-0.239 2.066-1.182 3.688-3.135 4.583-0.385 0.178-0.385 0.453-0.385 0.778 0 2.67 0 5.34 0 8.012 0 0.777 0.321 1.148 1.091 1.249 0.149 0.013 0.299 0.016 0.449 0.009l4.165-0.028zM8.287 23.559c0-1.624 0-3.248 0-4.873 0-0.889-0.21-1.116-1.073-1.125-0.513 0-1.026 0.032-1.539-0.010s-0.603 0.169-0.595 0.627c0.024 1.622 0.009 3.246 0.008 4.873 0.004 0.171-0.003 0.343-0.021 0.513-0.002 0.065-0.028 0.128-0.073 0.175s-0.107 0.076-0.172 0.081c-0.037 0.006-0.076 0.004-0.112-0.007s-0.070-0.029-0.099-0.054c-0.028-0.025-0.051-0.056-0.066-0.091s-0.022-0.073-0.021-0.111c-0.017-0.17-0.024-0.342-0.021-0.513 0-1.644-0.012-3.289 0.006-4.933 0-0.419-0.135-0.569-0.554-0.55-0.574 0.027-1.154 0-1.729 0.009-0.76 0.014-0.995 0.244-0.996 1.005-0.007 3.334-0.007 6.665 0 9.993 0 0.75 0.256 1.002 1 1.004 1.664 0.008 3.331 0.008 5.001 0 0.819 0 1.057-0.256 1.058-1.081-0.002-1.645-0.003-3.289-0.004-4.933z"></path>
<path d="M21.321 1.86c4.182 0.031 7.717 2.949 8.577 7.077 0.832 3.991-1.266 8.134-4.975 9.774-0.344 0.153-0.863 0.627-1.108 0.088s0.468-0.54 0.778-0.684c3.559-1.655 5.473-5.493 4.596-9.279-0.86-3.719-4.256-6.35-8.098-6.283-1.7 0.029-3.348 0.593-4.71 1.611s-2.368 2.44-2.875 4.063c-0.051 0.163-0.096 0.327-0.151 0.489-0.010 0.048-0.030 0.092-0.059 0.131s-0.066 0.071-0.109 0.094c-0.043 0.023-0.090 0.036-0.139 0.039s-0.097-0.005-0.142-0.023c-0.2-0.059-0.257-0.223-0.214-0.408 0.042-0.209 0.097-0.415 0.163-0.618 0.584-1.779 1.719-3.327 3.241-4.418s3.352-1.671 5.225-1.653z"></path>
<path stroke-linejoin="miter" stroke-linecap="butt" stroke-miterlimit="4" stroke-width="0.768" d="M21.321 1.86c4.182 0.031 7.717 2.949 8.577 7.077 0.832 3.991-1.266 8.134-4.975 9.774-0.344 0.153-0.863 0.627-1.108 0.088s0.468-0.54 0.778-0.684c3.559-1.655 5.473-5.493 4.596-9.279-0.86-3.719-4.256-6.35-8.098-6.283-1.7 0.029-3.348 0.593-4.71 1.611s-2.368 2.44-2.875 4.063c-0.051 0.163-0.096 0.327-0.151 0.489-0.010 0.048-0.030 0.092-0.059 0.131s-0.066 0.071-0.109 0.094c-0.043 0.023-0.090 0.036-0.139 0.039s-0.097-0.005-0.142-0.023c-0.2-0.059-0.257-0.223-0.214-0.408 0.042-0.209 0.097-0.415 0.163-0.618 0.584-1.779 1.719-3.327 3.241-4.418s3.352-1.671 5.225-1.653z"></path>
<path d="M23.022 12.739c0-0.762-0.486-1.386-1.307-1.617-0.43-0.121-0.886-0.16-1.308-0.303-1.026-0.346-1.593-1.172-1.586-2.235 0-1.093 0.541-1.872 1.608-2.2 0.394-0.121 0.504-0.305 0.473-0.676-0.022-0.256-0.027-0.573 0.319-0.596 0.408-0.027 0.409 0.319 0.385 0.594-0.047 0.435 0.181 0.532 0.548 0.595 0.908 0.155 1.479 0.727 1.773 1.577 0.094 0.272 0.236 0.649-0.136 0.785-0.44 0.162-0.431-0.287-0.524-0.542-0.328-0.89-1.111-1.332-2.149-1.198-0.931 0.119-1.517 0.658-1.605 1.473-0.095 0.867 0.373 1.545 1.282 1.815 0.449 0.128 0.925 0.181 1.363 0.339 1.016 0.363 1.562 1.162 1.558 2.19 0 1.078-0.55 1.87-1.6 2.221-0.356 0.118-0.546 0.257-0.513 0.657 0.024 0.256 0.069 0.624-0.332 0.641s-0.392-0.339-0.364-0.609c0.042-0.412-0.128-0.523-0.521-0.6-1.026-0.203-1.727-0.948-1.872-1.87-0.036-0.231-0.046-0.441 0.227-0.513s0.373 0.088 0.459 0.321c0.467 1.263 1.213 1.667 2.526 1.361 0.371-0.072 0.705-0.272 0.943-0.567s0.363-0.663 0.354-1.041z"></path>
<path stroke-linejoin="miter" stroke-linecap="butt" stroke-miterlimit="4" stroke-width="0.768" d="M23.022 12.739c0-0.762-0.486-1.386-1.307-1.617-0.43-0.121-0.886-0.16-1.308-0.303-1.026-0.346-1.593-1.172-1.586-2.235 0-1.093 0.541-1.872 1.608-2.2 0.394-0.121 0.504-0.305 0.473-0.676-0.022-0.256-0.027-0.573 0.319-0.596 0.408-0.027 0.409 0.319 0.385 0.594-0.047 0.435 0.181 0.532 0.548 0.595 0.908 0.155 1.479 0.727 1.773 1.577 0.094 0.272 0.236 0.649-0.136 0.785-0.44 0.162-0.431-0.287-0.524-0.542-0.328-0.89-1.111-1.332-2.149-1.198-0.931 0.119-1.517 0.658-1.605 1.473-0.095 0.867 0.373 1.545 1.282 1.815 0.449 0.128 0.925 0.181 1.363 0.339 1.016 0.363 1.562 1.162 1.558 2.19 0 1.078-0.55 1.87-1.6 2.221-0.356 0.118-0.546 0.257-0.513 0.657 0.024 0.256 0.069 0.624-0.332 0.641s-0.392-0.339-0.364-0.609c0.042-0.412-0.128-0.523-0.521-0.6-1.026-0.203-1.727-0.948-1.872-1.87-0.036-0.231-0.046-0.441 0.227-0.513s0.373 0.088 0.459 0.321c0.467 1.263 1.213 1.667 2.526 1.361 0.371-0.072 0.705-0.272 0.943-0.567s0.363-0.663 0.354-1.041z"></path>
<path d="M6.177 26.467c0.144-0.006 0.288 0.018 0.423 0.070s0.257 0.131 0.36 0.232c0.103 0.101 0.184 0.223 0.238 0.356s0.080 0.277 0.077 0.422c0.008 0.149-0.015 0.298-0.068 0.438s-0.133 0.268-0.237 0.375c-0.104 0.107-0.229 0.192-0.367 0.249s-0.286 0.085-0.436 0.083c-0.641 0-1.104-0.492-1.091-1.154-0.004-0.144 0.022-0.288 0.076-0.422s0.136-0.255 0.239-0.355c0.103-0.101 0.227-0.179 0.362-0.229s0.279-0.072 0.423-0.064zM6.203 27.032c-0.339 0-0.531 0.182-0.544 0.505s0.154 0.53 0.494 0.541c0.070 0.010 0.14 0.005 0.208-0.016s0.129-0.056 0.18-0.104c0.052-0.048 0.092-0.107 0.118-0.172s0.037-0.136 0.032-0.206c0.009-0.069 0.003-0.139-0.017-0.206s-0.055-0.128-0.101-0.18c-0.046-0.052-0.103-0.094-0.167-0.122s-0.133-0.042-0.202-0.042z"></path>
<path stroke-linejoin="miter" stroke-linecap="butt" stroke-miterlimit="4" stroke-width="0.768" d="M6.177 26.467c0.144-0.006 0.288 0.018 0.423 0.070s0.257 0.131 0.36 0.232c0.103 0.101 0.184 0.223 0.238 0.356s0.080 0.277 0.077 0.422c0.008 0.149-0.015 0.298-0.068 0.438s-0.133 0.268-0.237 0.375c-0.104 0.107-0.229 0.192-0.367 0.249s-0.286 0.085-0.436 0.083c-0.641 0-1.104-0.492-1.091-1.154-0.004-0.144 0.022-0.288 0.076-0.422s0.136-0.255 0.239-0.355c0.103-0.101 0.227-0.179 0.362-0.229s0.279-0.072 0.423-0.064zM6.203 27.032c-0.339 0-0.531 0.182-0.544 0.505s0.154 0.53 0.494 0.541c0.070 0.010 0.14 0.005 0.208-0.016s0.129-0.056 0.18-0.104c0.052-0.048 0.092-0.107 0.118-0.172s0.037-0.136 0.032-0.206c0.009-0.069 0.003-0.139-0.017-0.206s-0.055-0.128-0.101-0.18c-0.046-0.052-0.103-0.094-0.167-0.122s-0.133-0.042-0.202-0.042z"></path>
</symbol>
<symbol id="icon-card_driver" viewBox="0 0 31 32">
<path d="M15.361 31.36h-12.415c-1.068 0-1.335-0.314-1.4-1.387-0.125-2.223 0.549-4.109 2.197-5.636 0.667-0.617 1.458-1.015 2.269-1.386 1.396-0.637 2.841-1.162 4.32-1.57 0.453-0.134 0.685-0.351 0.762-0.792 0.069-0.401 0.164-0.784 0.236-1.176 0.203-1.121 0.059-2.073-1.021-2.767-0.768-0.494-1.139-1.298-1.085-2.24 0.020-0.336-0.093-0.502-0.416-0.637-1.045-0.434-1.613-1.238-1.602-2.382 0.007-1.111 0.545-1.909 1.573-2.332 0.33-0.133 0.392-0.275 0.338-0.63-0.133-0.876-0.465-1.542-1.384-1.81-0.294-0.084-0.559-0.267-0.832-0.42-0.801-0.447-1.254-1.135-1.255-2.054 0-0.95 0.466-1.654 1.304-2.092 1.201-0.629 2.508-0.904 3.833-1.084 3.484-0.473 6.962-0.45 10.422 0.22 0.877 0.158 1.727 0.438 2.526 0.833 0.869 0.441 1.363 1.145 1.362 2.124 0 0.949-0.479 1.645-1.315 2.088-0.451 0.24-0.902 0.485-1.37 0.689-0.156 0.057-0.294 0.155-0.397 0.285s-0.17 0.285-0.191 0.45c-0.063 0.371-0.267 0.753-0.22 1.1s0.565 0.332 0.842 0.534c0.781 0.578 1.152 1.335 1.087 2.301-0.068 0.999-0.578 1.735-1.484 2.124-0.422 0.18-0.557 0.387-0.541 0.829 0.035 0.889-0.426 1.547-1.060 2.136-0.401 0.363-1.009 0.581-1.068 1.211-0.104 1.067 0.039 2.145 0.418 3.148 0.104 0.267 0.392 0.26 0.618 0.332 1.781 0.562 3.571 1.113 5.206 2.037 3.112 1.759 3.754 4.272 3.534 7.041-0.051 0.638-0.495 0.912-1.109 0.914-1.291 0-2.582 0-3.871 0h-8.808zM9.235 9.976c-0.761 0.348-1.057 0.857-1.033 1.531 0.023 0.65 0.534 1.314 1.175 1.362 0.826 0.063 0.934 0.523 0.869 1.171-0.054 0.376-0.003 0.76 0.149 1.109s0.398 0.648 0.71 0.864c0.523 0.379 1.008 0.808 1.448 1.28 0.935 1.052 2.069 1.448 3.456 1.276 0.461-0.056 0.864-0.155 1.213-0.465 0.768-0.677 1.515-1.379 2.319-2.011 0.716-0.562 1.043-1.239 0.942-2.136-0.067-0.607 0.069-1.012 0.82-1.076 0.677-0.056 1.181-0.718 1.232-1.39 0.045-0.607-0.319-1.149-0.965-1.423-0.121 0.252-0.039 0.519-0.063 0.777-0.029 0.307-0.174 0.513-0.491 0.534s-0.49-0.186-0.518-0.491c-0.029-0.243-0.032-0.489-0.011-0.733 0.063-0.525-0.134-0.629-0.643-0.561-2.87 0.384-5.778 0.399-8.652 0.045-0.934-0.112-0.934-0.113-0.949 0.868 0.001 0.152-0.009 0.304-0.031 0.455-0.018 0.116-0.077 0.221-0.166 0.297s-0.202 0.118-0.319 0.118c-0.117 0-0.23-0.042-0.319-0.118s-0.148-0.181-0.166-0.297c-0.021-0.329-0.024-0.659-0.008-0.988zM24.053 4.124c0-0.577-0.31-0.953-0.801-1.201-0.64-0.313-1.318-0.542-2.017-0.681-3.271-0.71-6.571-0.705-9.879-0.332-1.324 0.15-2.641 0.401-3.853 0.997-0.801 0.401-1.101 1.227-0.647 1.877 0.51 0.73 1.391 0.913 2.136 1.279 0.075 0.036 0.239-0.080 0.346-0.149 0.721-0.445 1.525-0.74 2.363-0.868 2.050-0.374 4.12-0.364 6.177-0.174 1.268 0.117 2.51 0.358 3.584 1.112 0.071 0.053 0.156 0.082 0.245 0.084s0.175-0.024 0.248-0.073c0.491-0.256 0.996-0.491 1.479-0.764 0.196-0.108 0.359-0.269 0.468-0.465s0.163-0.418 0.152-0.642h-0.001zM15.356 8.823c1.554 0.059 3.11-0.041 4.644-0.299 0.23-0.039 0.479-0.024 0.619-0.302 0.551-1.089 0.369-1.554-0.789-1.934-0.147-0.054-0.296-0.098-0.448-0.133-2.644-0.523-5.366-0.523-8.010 0-0.305 0.059-0.601 0.159-0.88 0.298-0.31 0.158-0.801 0.234-0.619 0.772 0.174 0.513 0 1.213 0.898 1.323 1.529 0.191 3.046 0.328 4.584 0.276zM15.878 27.481c0-0.378 0-0.756 0-1.133 0-1.278 0.619-1.699 1.804-1.189 2.049 0.881 3.312 2.427 3.715 4.624 0.093 0.513 0.339 0.601 0.765 0.543 0.563-0.075 0.223-0.471 0.243-0.725-0.010-0.177-0.047-0.352-0.109-0.518-0.402-1.588-1.337-2.989-2.648-3.971s-2.919-1.484-4.556-1.422c-1.637 0.061-3.203 0.683-4.436 1.759s-2.061 2.545-2.343 4.158c-0.113 0.659 0.055 0.829 0.667 0.723 0.4-0.069 0.3-0.4 0.35-0.623 0.505-2.289 1.84-3.861 4.040-4.664 0.858-0.314 1.455 0.124 1.483 1.039 0.019 0.601 0 1.201 0 1.801 0 0.744 0.148 1.529-0.667 2.011-0.031 0.014-0.058 0.035-0.081 0.060s-0.040 0.055-0.051 0.087c-0.011 0.032-0.016 0.066-0.014 0.1s0.011 0.067 0.026 0.097c0.081 0.134 0.238 0.088 0.364 0.089 0.578 0 1.156 0.008 1.735 0 0.168 0 0.401 0.084 0.489-0.095 0.11-0.219-0.103-0.401-0.252-0.485-0.505-0.299-0.565-0.749-0.534-1.264 0.029-0.334 0.011-0.669 0.011-1.003zM8.305 23.294l-0.133-0.134c-0.768 0.331-1.557 0.623-2.3 1.001-2.313 1.173-3.408 3.070-3.311 5.669 0.013 0.36 0.1 0.518 0.487 0.511 1.243-0.017 2.486-0.011 3.729 0 0.29 0 0.434-0.068 0.466-0.401 0.063-0.687 0.224-1.361 0.478-2.002 0.115-0.286 0.080-0.415-0.251-0.517-1.055-0.323-1.251-0.91-0.65-1.848 0.493-0.765 0.992-1.522 1.486-2.281zM22.39 23.234c0.534 0.832 1.051 1.602 1.545 2.38 0.569 0.896 0.356 1.495-0.657 1.805-0.304 0.092-0.401 0.192-0.278 0.503 0.259 0.64 0.421 1.315 0.48 2.002 0.032 0.377 0.219 0.414 0.518 0.411 1.22-0.008 2.442-0.012 3.662 0 0.367 0 0.489-0.114 0.506-0.494 0.175-3.642-2.2-5.72-5.776-6.608zM12.457 18.688c-0.1 0.814-0.164 1.589-0.412 2.329-0.052 0.155-0.059 0.316 0.133 0.39 1.039 0.391 2.076 0.781 3.118 1.16 0.109 0.019 0.222 0.003 0.322-0.045 0.935-0.347 1.869-0.701 2.803-1.053 0.172-0.065 0.354-0.143 0.279-0.374-0.254-0.772-0.312-1.583-0.441-2.392-1.945 1.271-3.834 1.294-5.803-0.015zM16.911 27.538c0.060 0.401-0.134 0.896 0.102 1.318 0.838 1.484 0.85 1.478 2.594 1.468 0.111 0 0.223-0.009 0.332 0 0.434 0.044 0.541-0.134 0.439-0.549-0.38-1.551-1.247-2.727-2.659-3.481-0.764-0.409-0.801-0.372-0.801 0.514l-0.007 0.73zM13.811 27.644c0-0.511-0.008-0.866 0-1.22s-0.127-0.43-0.439-0.287c-1.662 0.738-2.654 2.013-3.045 3.775-0.060 0.275 0.021 0.422 0.327 0.419 0.619 0 1.24 0 1.861 0 0.133 0 0.3 0.011 0.35-0.134 0.31-0.909 1.368-1.552 0.953-2.554h-0.007zM10.899 23.906c-0.267-0.226-0.545-0.392-0.74-0.625-0.288-0.343-0.447-0.296-0.667 0.067-0.523 0.849-1.093 1.67-1.623 2.516-0.093 0.149-0.431 0.352-0.124 0.527 0.252 0.144 0.598 0.304 0.86-0.124 0.493-0.801 1.168-1.447 1.914-2.017 0.096-0.072 0.187-0.166 0.38-0.339v-0.005zM20.971 23.012c-0.134-0.012-1.036 0.872-1.009 0.956 0.032 0.081 0.085 0.15 0.155 0.202 0.821 0.61 1.532 1.355 2.101 2.205 0.224 0.342 0.559 0.134 0.777 0.019 0.279-0.144-0.009-0.342-0.093-0.477-0.545-0.862-1.108-1.714-1.669-2.566-0.084-0.121-0.186-0.236-0.262-0.334v-0.005zM17.634 22.861c1.172 0.722 1.253 0.72 2.028-0.117 0.107-0.115 0.364-0.216 0.223-0.41-0.115-0.153-0.352-0.167-0.555-0.093-0.557 0.206-1.105 0.41-1.699 0.626l0.004-0.005zM13.216 22.892c-0.708-0.255-1.266-0.462-1.826-0.657-0.2-0.069-0.434-0.045-0.543 0.123-0.093 0.146 0.133 0.248 0.208 0.371 0.43 0.641 0.954 0.842 1.642 0.384 0.167-0.084 0.339-0.156 0.515-0.216l0.004-0.005z"></path>
<path d="M15.361 15.991c-0.354 0-0.709 0.019-1.060-0.008-0.062-0.001-0.123-0.015-0.179-0.039s-0.107-0.061-0.15-0.105-0.076-0.097-0.098-0.155c-0.022-0.058-0.032-0.119-0.030-0.181-0.007-0.062-0.002-0.124 0.016-0.184s0.048-0.114 0.089-0.161 0.090-0.085 0.146-0.112c0.056-0.027 0.117-0.042 0.179-0.044 0.728-0.027 1.458-0.027 2.185 0 0.062 0.002 0.123 0.017 0.179 0.045s0.105 0.066 0.145 0.113c0.040 0.047 0.070 0.103 0.087 0.163s0.022 0.122 0.013 0.184c0.002 0.124-0.046 0.244-0.132 0.334s-0.205 0.141-0.329 0.143c-0.352 0.031-0.708 0.008-1.061 0.008z"></path>
<path d="M12.884 10.385c0.344 0.036 0.862-0.133 0.902 0.523 0.017 0.282-0.682 0.97-0.963 0.98s-1.037-0.714-1.043-0.995c0-0.375 0.288-0.509 1.103-0.509z"></path>
<path d="M17.944 10.385c0.401 0.023 0.901-0.117 0.993 0.498 0.041 0.267-0.74 1.009-1.023 1.008s-0.964-0.69-0.98-0.968c-0.025-0.412 0.214-0.538 1.009-0.538z"></path>
<path d="M15.376 13.981c-0.198 0.003-0.396-0.009-0.591-0.037-0.123-0.016-0.235-0.079-0.313-0.175s-0.115-0.219-0.105-0.343c-0.002-0.061 0.009-0.123 0.031-0.18s0.055-0.11 0.098-0.154c0.043-0.044 0.094-0.080 0.15-0.104s0.117-0.037 0.179-0.038c0.307-0.023 0.615-0.016 0.924-0.015 0.355 0 0.622 0.142 0.609 0.534-0.011 0.346-0.259 0.487-0.583 0.502-0.133 0.007-0.267 0-0.4 0l0.003 0.011z"></path>
<path d="M15.42 16.509c0.176 0.009 0.354 0 0.534 0.029 0.112 0.009 0.216 0.060 0.293 0.142s0.12 0.189 0.122 0.302c0.023 0.275-0.116 0.495-0.391 0.534-0.372 0.039-0.746 0.046-1.119 0.021-0.067 0.002-0.134-0.011-0.196-0.037s-0.118-0.065-0.163-0.115c-0.046-0.049-0.081-0.108-0.102-0.172s-0.029-0.131-0.022-0.198c0.013-0.307 0.214-0.473 0.522-0.485 0.176 0 0.352 0 0.534 0l-0.012-0.021z"></path>
</symbol>
<symbol id="icon-card_companion" viewBox="0 0 31 32">
<path d="M13.405 20.396c-0.367 1.584-1.121 2.632-2.438 3.206-2.191 0.954-4.685-0.245-5.361-2.602-0.128-0.445-0.297-0.619-0.742-0.567-0.23 0.013-0.46 0.013-0.69 0-1.339 0-2.231 0.731-2.43 2.039-0.217 1.43-0.382 2.868-0.599 4.3-0.075 0.491 0.070 0.632 0.566 0.634 1.761 0 1.766 0.025 1.764-1.743 0-0.43-0.066-0.847 0.606-0.757 0.294 0.040 0.392 0.124 0.391 0.414-0.010 1.862-0.015 3.723 0 5.583 0 0.403-0.188 0.437-0.505 0.441s-0.511-0.069-0.497-0.454c0.023-0.689 0-1.379 0.011-2.068 0.007-0.327-0.112-0.422-0.436-0.443-1.577-0.098-1.576-0.108-1.576 1.442 0 0.321-0.011 0.643 0 0.965s-0.015 0.567-0.464 0.564c-0.424 0-0.567-0.138-0.542-0.558 0.030-0.527 0.010-1.056 0-1.584 0-0.378 0.086-0.765-0.339-1.034-0.201-0.13-0.124-0.425-0.092-0.651 0.243-1.753 0.479-3.505 0.738-5.254 0.269-1.812 1.886-2.998 3.422-2.842 0.752 0.076 1.518 0 2.276 0.019 0.355 0.010 0.468-0.099 0.479-0.466 0.018-0.707-0.041-1.27-0.745-1.743-0.919-0.619-1.421-1.609-1.627-2.712-0.063-0.332-0.173-0.503-0.552-0.536-0.324-0.018-0.635-0.135-0.891-0.335s-0.444-0.473-0.54-0.783c-0.239-0.689-0.116-1.333 0.425-1.835 0.103-0.088 0.179-0.203 0.22-0.332s0.045-0.267 0.012-0.398c-0.092-0.614-0.155-1.23-0.243-1.844-0.45-3.103 2.009-5.102 4.238-4.888 1.256 0.119 2.53-0.095 3.785 0.121 0.923 0.16 1.775 0.396 1.88 1.558 0.025 0.276 0.294 0.302 0.527 0.346 1.328 0.252 1.932 0.983 1.932 2.344 0 0.506 0 1.011 0 1.517 0 0.648-0.011 1.207 0.571 1.775 0.934 0.913 0.293 2.501-1.027 2.739-0.444 0.079-0.581 0.245-0.678 0.666-0.259 1.157-0.933 2.179-1.895 2.874-0.349 0.259-0.613 1.444-0.414 1.802 0.029 0.049 0.073 0.088 0.125 0.111s0.11 0.030 0.166 0.019c0.589-0.024 1.231 0.193 1.628-0.527 0.164-0.295 0.552-0.448 0.904-0.423 0.45 0.030 0.534-0.219 0.585-0.565 0.138-0.976 0.324-1.948 0.433-2.929 0.066-0.589 0.294-0.944 0.869-1.172 1.104-0.438 2.187-0.965 3.282-1.441 0.509-0.223 0.564-0.467 0.112-0.827-0.828-0.64-1.395-1.56-1.592-2.587-0.058-0.303-0.185-0.392-0.49-0.433-0.966-0.138-1.588-0.816-1.602-1.684s0.606-1.598 1.551-1.728c0.355-0.048 0.435-0.172 0.48-0.498 0.337-2.398 2.129-3.992 4.441-3.992s4.097 1.608 4.416 3.999c0.047 0.35 0.159 0.43 0.491 0.477 0.944 0.138 1.561 0.865 1.54 1.739-0.006 0.419-0.166 0.821-0.451 1.128s-0.673 0.499-1.091 0.537c-0.364 0.044-0.512 0.16-0.577 0.51-0.186 1.015-0.744 1.812-1.511 2.482-0.513 0.448-0.487 0.612 0.153 0.903 1.104 0.503 2.218 1.009 3.34 1.481 0.183 0.062 0.345 0.176 0.464 0.328s0.19 0.337 0.206 0.529c0.284 1.93 0.593 3.861 0.892 5.791 0.050 0.323 0.098 0.647-0.254 0.855-0.254 0.152-0.166 0.414-0.167 0.626-0.007 1.355 0 2.711 0 4.066 0 1.594-0.636 2.552-2.107 3.119-0.298 0.114-0.391 0.255-0.377 0.552 0.017 0.343-0.019 0.689 0.010 1.033 0.033 0.414-0.098 0.567-0.533 0.565s-0.475-0.212-0.471-0.552c0.011-1.125-0.012-2.252 0.012-3.377 0.010-0.422-0.123-0.552-0.552-0.552-2.345 0.018-4.691 0.018-7.038 0-0.469 0-0.552 0.146-0.439 0.56 0.090 0.337 0.121 0.69-0.254 0.917-0.225 0.138-0.16 0.364-0.162 0.561-0.008 0.644-0.022 1.288 0 1.93 0.015 0.401-0.152 0.505-0.527 0.509-0.414 0-0.513-0.163-0.501-0.536 0.021-0.643-0.015-1.287 0.011-1.93 0.018-0.398-0.138-0.495-0.516-0.503-1.457-0.032-1.457-0.045-1.457 1.408 0 0.321-0.012 0.644 0 0.965 0.018 0.354 0 0.604-0.486 0.604s-0.505-0.222-0.504-0.59c0.012-1.769 0.018-3.54 0-5.309 0-0.414 0.11-0.552 0.54-0.552 0.454 0 0.477 0.23 0.451 0.56-0.008 0.092-0.008 0.184 0 0.276 0.061 0.536-0.266 1.329 0.146 1.553 0.502 0.276 1.25 0.085 1.892 0.101 0.301 0.008 0.333-0.174 0.298-0.414-0.235-1.613-0.453-3.229-0.716-4.839-0.087-0.527-0.304-0.869-1.027-0.747-0.919 0.153-1.918 0.21-2.556-1.009zM17.85 21.361c0-1.347 0-2.551 0-3.755 0-0.343-0.077-0.663 0.494-0.66s0.483 0.341 0.483 0.673c0 2.55 0.015 5.102-0.011 7.649 0 0.51 0.123 0.663 0.647 0.656 2.208-0.030 4.416-0.034 6.624 0 0.589 0.010 0.723-0.174 0.716-0.735-0.029-2.572 0-5.145-0.019-7.722 0-0.381 0.109-0.518 0.506-0.518s0.516 0.138 0.499 0.523c-0.025 0.572 0 1.147 0 1.722 0 1.269 0 1.241 1.283 1.241 0.469 0 0.589-0.138 0.515-0.596-0.25-1.517-0.48-3.038-0.69-4.563-0.048-0.349-0.229-0.517-0.524-0.645-0.929-0.401-1.853-0.808-2.771-1.231-0.276-0.128-0.406-0.114-0.582 0.183-1.116 1.895-3.312 1.903-4.399 0.019-0.163-0.284-0.276-0.35-0.574-0.212-0.937 0.436-1.885 0.851-2.832 1.266-0.246 0.109-0.414 0.241-0.454 0.541-0.127 0.932-0.276 1.862-0.433 2.788-0.055 0.323-0.044 0.538 0.308 0.717 0.253 0.12 0.458 0.321 0.583 0.571s0.163 0.535 0.107 0.808c-0.093 0.519 0.149 0.83 0.524 1.281zM14.388 10.24c0-0.815 0-1.547 0-2.279-0.008-0.899-0.298-1.241-1.185-1.371-0.633-0.092-1.14-0.414-1.223-1.031s-0.453-0.782-0.958-0.862c-1.325-0.221-2.661-0.095-3.99-0.11-1.561-0.019-2.79 1.018-3.030 2.547-0.174 1.127 0.157 2.206 0.276 3.398 0.629-0.677 1.437-0.625 2.128-0.877 0.428-0.157 0.778-0.108 1.116 0.245 0.414 0.434 0.966 0.604 1.561 0.625 0.393 0.021 0.785-0.053 1.142-0.216s0.671-0.41 0.912-0.72c0.444-0.552 0.893-0.608 1.488-0.244 0.527 0.321 1.1 0.564 1.762 0.896zM13.394 12.71c0-0.605 0-1.041 0-1.478 0.008-0.689-0.651-0.603-1.003-0.871-0.219-0.168-0.414-0.154-0.667 0.050-1.748 1.435-2.738 1.498-4.739 0.346-0.625-0.36-1.544 0.127-1.546 0.819 0 0.666-0.012 1.332 0 1.998 0.021 0.856 0.315 1.684 0.84 2.362s1.252 1.17 2.076 1.406c1.656 0.465 3.404-0.219 4.387-1.688 0.643-0.957 0.689-2.021 0.651-2.943zM26.264 6.633c0-0.505 0.008-1.009 0-1.517-0.008-0.379 0.068-0.942-0.276-1.041s-0.735 0.276-0.966 0.643c-0.061 0.096-0.129 0.189-0.203 0.276-0.196 0.234-0.436 0.465-0.731 0.484-1.314 0.091-2.746 0.581-3.638-0.957-0.071-0.090-0.159-0.165-0.259-0.221-0.604-0.423-0.78-0.364-0.809 0.378-0.046 1.168-0.050 2.344-0.019 3.509-0.003 0.914 0.357 1.792 1.002 2.441s1.521 1.015 2.436 1.018c0.915 0.003 1.794-0.357 2.443-1.001s1.016-1.52 1.019-2.434c0.019-0.523 0.001-1.051 0.001-1.579zM7.921 18.252v1.216c0 0.903-0.019 0.927-0.911 0.965-0.313 0.014-0.552 0.012-0.425 0.452 0.315 1.128 1.544 2.026 2.836 2.023s2.536-0.909 2.821-2.033c0.073-0.291 0.032-0.407-0.295-0.444-1.031-0.114-1.029-0.127-1.029-1.19 0-0.183-0.010-0.367 0-0.552 0.015-0.299-0.102-0.434-0.414-0.352-0.816 0.227-1.633 0.145-2.582-0.087zM22.806 4.569c0.473-0.043 1.039 0.181 1.37-0.367 0.234-0.397 0.581-0.714 0.998-0.912 0.382-0.182 0.369-0.363 0.087-0.656-1.17-1.222-3.312-1.339-4.64-0.232-0.653 0.542-0.649 0.565 0.040 1.019 0.189 0.124 0.414 0.252 0.517 0.437 0.359 0.687 0.931 0.816 1.627 0.71zM27.78 24.862c0 0.965 0 1.93 0 2.896 0 0.152-0.014 0.378 0.073 0.441 0.17 0.126 0.339-0.061 0.484-0.154 0.286-0.176 0.522-0.424 0.683-0.719s0.242-0.627 0.235-0.963c0.010-1.469-0.015-2.937 0.012-4.404 0.012-0.678-0.451-0.489-0.802-0.505s-0.735-0.099-0.704 0.519c0.055 0.961 0.018 1.926 0.018 2.89zM22.782 14.016c0.763-0.015 1.434-0.622 1.508-1.316 0.032-0.29-0.007-0.425-0.363-0.324-0.597 0.173-1.226 0.207-1.838 0.098-0.246-0.044-0.585-0.301-0.736-0.052-0.163 0.276 0.033 0.616 0.21 0.892 0.128 0.21 0.306 0.384 0.519 0.507s0.454 0.19 0.699 0.195zM15.38 20.429h0.344c0.338 0 0.614-0.112 0.6-0.497s-0.287-0.488-0.625-0.485c-0.276 0-0.552-0.012-0.828 0.012-0.064-0-0.127 0.013-0.186 0.038s-0.111 0.062-0.155 0.109-0.077 0.102-0.099 0.162c-0.021 0.060-0.030 0.124-0.026 0.188 0 0.305 0.2 0.448 0.49 0.466 0.163 0.012 0.324 0.004 0.484 0.004v0.003zM18.402 6.812c-0.236-0.185 0.233-0.689-0.339-0.716-0.414-0.014-0.69 0.287-0.69 0.705-0.010 0.454 0.276 0.768 0.718 0.753 0.497-0.019 0.142-0.477 0.312-0.745v0.003zM27.6 6.084c-0.182-0.010-0.32 0-0.326 0.145-0.017 0.389-0.014 0.778 0 1.168 0 0.149 0.126 0.179 0.246 0.167 0.414-0.043 0.69-0.268 0.712-0.696 0.024-0.467-0.25-0.712-0.632-0.783zM4.519 12.252c-0.239-0.171 0.236-0.689-0.363-0.683-0.428 0-0.669 0.292-0.66 0.721s0.265 0.705 0.69 0.689c0.524-0.019 0.157-0.467 0.333-0.728zM14.361 12.224c0.168 0.23-0.222 0.698 0.292 0.749 0.414 0.041 0.679-0.259 0.69-0.673s-0.226-0.706-0.646-0.728c-0.528-0.029-0.208 0.423-0.337 0.651v0.001z"></path>
<path stroke-linejoin="miter" stroke-linecap="butt" stroke-miterlimit="4" stroke-width="0.512" d="M13.405 20.396c-0.367 1.584-1.121 2.632-2.438 3.206-2.191 0.954-4.685-0.245-5.361-2.602-0.128-0.445-0.297-0.619-0.742-0.567-0.23 0.013-0.46 0.013-0.69 0-1.339 0-2.231 0.731-2.43 2.039-0.217 1.43-0.382 2.868-0.599 4.3-0.075 0.491 0.070 0.632 0.566 0.634 1.761 0 1.766 0.025 1.764-1.743 0-0.43-0.066-0.847 0.606-0.757 0.294 0.040 0.392 0.124 0.391 0.414-0.010 1.862-0.015 3.723 0 5.583 0 0.403-0.188 0.437-0.505 0.441s-0.511-0.069-0.497-0.454c0.023-0.689 0-1.379 0.011-2.068 0.007-0.327-0.112-0.422-0.436-0.443-1.577-0.098-1.576-0.108-1.576 1.442 0 0.321-0.011 0.643 0 0.965s-0.015 0.567-0.464 0.564c-0.424 0-0.567-0.138-0.542-0.558 0.030-0.527 0.010-1.056 0-1.584 0-0.378 0.086-0.765-0.339-1.034-0.201-0.13-0.124-0.425-0.092-0.651 0.243-1.753 0.479-3.505 0.738-5.254 0.269-1.812 1.886-2.998 3.422-2.842 0.752 0.076 1.518 0 2.276 0.019 0.355 0.010 0.468-0.099 0.479-0.466 0.018-0.707-0.041-1.27-0.745-1.743-0.919-0.619-1.421-1.609-1.627-2.712-0.063-0.332-0.173-0.503-0.552-0.536-0.324-0.018-0.635-0.135-0.891-0.335s-0.444-0.473-0.54-0.783c-0.239-0.689-0.116-1.333 0.425-1.835 0.103-0.088 0.179-0.203 0.22-0.332s0.045-0.267 0.012-0.398c-0.092-0.614-0.155-1.23-0.243-1.844-0.45-3.103 2.009-5.102 4.238-4.888 1.256 0.119 2.53-0.095 3.785 0.121 0.923 0.16 1.775 0.396 1.88 1.558 0.025 0.276 0.294 0.302 0.527 0.346 1.328 0.252 1.932 0.983 1.932 2.344 0 0.506 0 1.011 0 1.517 0 0.648-0.011 1.207 0.571 1.775 0.934 0.913 0.293 2.501-1.027 2.739-0.444 0.079-0.581 0.245-0.678 0.666-0.259 1.157-0.933 2.179-1.895 2.874-0.349 0.259-0.613 1.444-0.414 1.802 0.029 0.049 0.073 0.088 0.125 0.111s0.11 0.030 0.166 0.019c0.589-0.024 1.231 0.193 1.628-0.527 0.164-0.295 0.552-0.448 0.904-0.423 0.45 0.030 0.534-0.219 0.585-0.565 0.138-0.976 0.324-1.948 0.433-2.929 0.066-0.589 0.294-0.944 0.869-1.172 1.104-0.438 2.187-0.965 3.282-1.441 0.509-0.223 0.564-0.467 0.112-0.827-0.828-0.64-1.395-1.56-1.592-2.587-0.058-0.303-0.185-0.392-0.49-0.433-0.966-0.138-1.588-0.816-1.602-1.684s0.606-1.598 1.551-1.728c0.355-0.048 0.435-0.172 0.48-0.498 0.337-2.398 2.129-3.992 4.441-3.992s4.097 1.608 4.416 3.999c0.047 0.35 0.159 0.43 0.491 0.477 0.944 0.138 1.561 0.865 1.54 1.739-0.006 0.419-0.166 0.821-0.451 1.128s-0.673 0.499-1.091 0.537c-0.364 0.044-0.512 0.16-0.577 0.51-0.186 1.015-0.744 1.812-1.511 2.482-0.513 0.448-0.487 0.612 0.153 0.903 1.104 0.503 2.218 1.009 3.34 1.481 0.183 0.062 0.345 0.176 0.464 0.328s0.19 0.337 0.206 0.529c0.284 1.93 0.593 3.861 0.892 5.791 0.050 0.323 0.098 0.647-0.254 0.855-0.254 0.152-0.166 0.414-0.167 0.626-0.007 1.355 0 2.711 0 4.066 0 1.594-0.636 2.552-2.107 3.119-0.298 0.114-0.391 0.255-0.377 0.552 0.017 0.343-0.019 0.689 0.010 1.033 0.033 0.414-0.098 0.567-0.533 0.565s-0.475-0.212-0.471-0.552c0.011-1.125-0.012-2.252 0.012-3.377 0.010-0.422-0.123-0.552-0.552-0.552-2.345 0.018-4.691 0.018-7.038 0-0.469 0-0.552 0.146-0.439 0.56 0.090 0.337 0.121 0.69-0.254 0.917-0.225 0.138-0.16 0.364-0.162 0.561-0.008 0.644-0.022 1.288 0 1.93 0.015 0.401-0.152 0.505-0.527 0.509-0.414 0-0.513-0.163-0.501-0.536 0.021-0.643-0.015-1.287 0.011-1.93 0.018-0.398-0.138-0.495-0.516-0.503-1.457-0.032-1.457-0.045-1.457 1.408 0 0.321-0.012 0.644 0 0.965 0.018 0.354 0 0.604-0.486 0.604s-0.505-0.222-0.504-0.59c0.012-1.769 0.018-3.54 0-5.309 0-0.414 0.11-0.552 0.54-0.552 0.454 0 0.477 0.23 0.451 0.56-0.008 0.092-0.008 0.184 0 0.276 0.061 0.536-0.266 1.329 0.146 1.553 0.502 0.276 1.25 0.085 1.892 0.101 0.301 0.008 0.333-0.174 0.298-0.414-0.235-1.613-0.453-3.229-0.716-4.839-0.087-0.527-0.304-0.869-1.027-0.747-0.919 0.153-1.918 0.21-2.556-1.009zM17.85 21.361c0-1.347 0-2.551 0-3.755 0-0.343-0.077-0.663 0.494-0.66s0.483 0.341 0.483 0.673c0 2.55 0.015 5.102-0.011 7.649 0 0.51 0.123 0.663 0.647 0.656 2.208-0.030 4.416-0.034 6.624 0 0.589 0.010 0.723-0.174 0.716-0.735-0.029-2.572 0-5.145-0.019-7.722 0-0.381 0.109-0.518 0.506-0.518s0.516 0.138 0.499 0.523c-0.025 0.572 0 1.147 0 1.722 0 1.269 0 1.241 1.283 1.241 0.469 0 0.589-0.138 0.515-0.596-0.25-1.517-0.48-3.038-0.69-4.563-0.048-0.349-0.229-0.517-0.524-0.645-0.929-0.401-1.853-0.808-2.771-1.231-0.276-0.128-0.406-0.114-0.582 0.183-1.116 1.895-3.312 1.903-4.399 0.019-0.163-0.284-0.276-0.35-0.574-0.212-0.937 0.436-1.885 0.851-2.832 1.266-0.246 0.109-0.414 0.241-0.454 0.541-0.127 0.932-0.276 1.862-0.433 2.788-0.055 0.323-0.044 0.538 0.308 0.717 0.253 0.12 0.458 0.321 0.583 0.571s0.163 0.535 0.107 0.808c-0.093 0.519 0.149 0.83 0.524 1.281zM14.388 10.24c0-0.815 0-1.547 0-2.279-0.008-0.899-0.298-1.241-1.185-1.371-0.633-0.092-1.14-0.414-1.223-1.031s-0.453-0.782-0.958-0.862c-1.325-0.221-2.661-0.095-3.99-0.11-1.561-0.019-2.79 1.018-3.030 2.547-0.174 1.127 0.157 2.206 0.276 3.398 0.629-0.677 1.437-0.625 2.128-0.877 0.428-0.157 0.778-0.108 1.116 0.245 0.414 0.434 0.966 0.604 1.561 0.625 0.393 0.021 0.785-0.053 1.142-0.216s0.671-0.41 0.912-0.72c0.444-0.552 0.893-0.608 1.488-0.244 0.527 0.321 1.1 0.564 1.762 0.896zM13.394 12.71c0-0.605 0-1.041 0-1.478 0.008-0.689-0.651-0.603-1.003-0.871-0.219-0.168-0.414-0.154-0.667 0.050-1.748 1.435-2.738 1.498-4.739 0.346-0.625-0.36-1.544 0.127-1.546 0.819 0 0.666-0.012 1.332 0 1.998 0.021 0.856 0.315 1.684 0.84 2.362s1.252 1.17 2.076 1.406c1.656 0.465 3.404-0.219 4.387-1.688 0.643-0.957 0.689-2.021 0.651-2.943zM26.264 6.633c0-0.505 0.008-1.009 0-1.517-0.008-0.379 0.068-0.942-0.276-1.041s-0.735 0.276-0.966 0.643c-0.061 0.096-0.129 0.189-0.203 0.276-0.196 0.234-0.436 0.465-0.731 0.484-1.314 0.091-2.746 0.581-3.638-0.957-0.071-0.090-0.159-0.165-0.259-0.221-0.604-0.423-0.78-0.364-0.809 0.378-0.046 1.168-0.050 2.344-0.019 3.509-0.003 0.914 0.357 1.792 1.002 2.441s1.521 1.015 2.436 1.018c0.915 0.003 1.794-0.357 2.443-1.001s1.016-1.52 1.019-2.434c0.019-0.523 0.001-1.051 0.001-1.579zM7.921 18.252v1.216c0 0.903-0.019 0.927-0.911 0.965-0.313 0.014-0.552 0.012-0.425 0.452 0.315 1.128 1.544 2.026 2.836 2.023s2.536-0.909 2.821-2.033c0.073-0.291 0.032-0.407-0.295-0.444-1.031-0.114-1.029-0.127-1.029-1.19 0-0.183-0.010-0.367 0-0.552 0.015-0.299-0.102-0.434-0.414-0.352-0.816 0.227-1.633 0.145-2.582-0.087zM22.806 4.569c0.473-0.043 1.039 0.181 1.37-0.367 0.234-0.397 0.581-0.714 0.998-0.912 0.382-0.182 0.369-0.363 0.087-0.656-1.17-1.222-3.312-1.339-4.64-0.232-0.653 0.542-0.649 0.565 0.040 1.019 0.189 0.124 0.414 0.252 0.517 0.437 0.359 0.687 0.931 0.816 1.627 0.71zM27.78 24.862c0 0.965 0 1.93 0 2.896 0 0.152-0.014 0.378 0.073 0.441 0.17 0.126 0.339-0.061 0.484-0.154 0.286-0.176 0.522-0.424 0.683-0.719s0.242-0.627 0.235-0.963c0.010-1.469-0.015-2.937 0.012-4.404 0.012-0.678-0.451-0.489-0.802-0.505s-0.735-0.099-0.704 0.519c0.055 0.961 0.018 1.926 0.018 2.89zM22.782 14.016c0.763-0.015 1.434-0.622 1.508-1.316 0.032-0.29-0.007-0.425-0.363-0.324-0.597 0.173-1.226 0.207-1.838 0.098-0.246-0.044-0.585-0.301-0.736-0.052-0.163 0.276 0.033 0.616 0.21 0.892 0.128 0.21 0.306 0.384 0.519 0.507s0.454 0.19 0.699 0.195zM15.38 20.429h0.344c0.338 0 0.614-0.112 0.6-0.497s-0.287-0.488-0.625-0.485c-0.276 0-0.552-0.012-0.828 0.012-0.064-0-0.127 0.013-0.186 0.038s-0.111 0.062-0.155 0.109-0.077 0.102-0.099 0.162c-0.021 0.060-0.030 0.124-0.026 0.188 0 0.305 0.2 0.448 0.49 0.466 0.163 0.012 0.324 0.004 0.484 0.004v0.003zM18.402 6.812c-0.236-0.185 0.233-0.689-0.339-0.716-0.414-0.014-0.69 0.287-0.69 0.705-0.010 0.454 0.276 0.768 0.718 0.753 0.497-0.019 0.142-0.477 0.312-0.745v0.003zM27.6 6.084c-0.182-0.010-0.32 0-0.326 0.145-0.017 0.389-0.014 0.778 0 1.168 0 0.149 0.126 0.179 0.246 0.167 0.414-0.043 0.69-0.268 0.712-0.696 0.024-0.467-0.25-0.712-0.632-0.783zM4.519 12.252c-0.239-0.171 0.236-0.689-0.363-0.683-0.428 0-0.669 0.292-0.66 0.721s0.265 0.705 0.69 0.689c0.524-0.019 0.157-0.467 0.333-0.728zM14.361 12.224c0.168 0.23-0.222 0.698 0.292 0.749 0.414 0.041 0.679-0.259 0.69-0.673s-0.226-0.706-0.646-0.728c-0.528-0.029-0.208 0.423-0.337 0.651v0.001z"></path>
<path d="M23.44 30.912v0c0.006 0.221-0.053 0.384-0.2 0.476-0.128 0.081-0.299 0.087-0.449 0.088-0.159 0.001-0.328-0.015-0.453-0.11-0.137-0.103-0.187-0.269-0.172-0.483 0.013-0.225 0.009-0.448 0.005-0.676-0.002-0.113-0.004-0.227-0.004-0.343 0-0.102 0.001-0.202 0.002-0.302 0.002-0.196 0.004-0.388-0.002-0.583-0.004-0.088-0.007-0.176 0.001-0.258s0.026-0.166 0.071-0.241c0.096-0.162 0.278-0.231 0.536-0.238l0.664 2.668zM23.44 30.912c-0.019-0.635-0.014-1.273 0-1.911v1.911zM23.434 28.724c0.009 0.087 0.009 0.182 0.007 0.277l-0.007-0.277zM23.434 28.724c-0.009-0.087-0.030-0.176-0.079-0.254M23.434 28.724l-0.079-0.254M23.355 28.47c-0.105-0.17-0.3-0.234-0.579-0.226l0.579 0.226z"></path>
</symbol>
<symbol id="icon-card_bus" viewBox="0 0 31 32">
<path d="M15.322 1.37c3.017 0 6.034 0 9.051 0 1.207 0 2.311 0.225 2.954 1.418 0.241 0.413 0.373 0.88 0.385 1.358 0 0.554 0 1.106 0 1.659 0 1.044 0 1.044 1.033 1.139 1.489 0.136 2.457 1.961 1.724 3.268-0.056 0.113-0.146 0.206-0.257 0.265s-0.238 0.082-0.363 0.066c-0.125-0.017-0.242-0.072-0.334-0.158s-0.154-0.199-0.179-0.323c-0.044-0.273-0.060-0.549-0.045-0.825 0.033-0.689-0.302-0.943-0.962-0.923-0.453 0.012-0.647 0.19-0.617 0.637 0.014 0.201 0 0.403 0 0.603 0 5.052 0 10.103 0 15.155 0 1.365-0.29 1.767-1.626 2.128-0.404 0.109-0.525 0.315-0.517 0.688 0 0.453 0.015 0.905-0.011 1.358-0.010 0.406-0.165 0.795-0.435 1.098s-0.64 0.499-1.043 0.554c-0.671 0.11-1.354 0.123-2.029 0.038-1.104-0.137-1.629-0.729-1.659-1.863-0.012-0.427-0.012-0.855 0-1.282 0-0.379-0.173-0.551-0.548-0.551-3.017 0-6.034 0-9.051 0-0.416 0-0.591 0.189-0.581 0.603s0.011 0.855 0 1.282c-0.042 1.088-0.566 1.676-1.632 1.81-0.674 0.088-1.358 0.078-2.029-0.030-0.403-0.049-0.775-0.239-1.051-0.537s-0.438-0.683-0.458-1.088c-0.012-0.151-0.012-0.302 0-0.452 0.071-0.889 0.088-1.628-1.136-1.837-0.833-0.151-1.020-0.984-1.017-1.81 0.014-5.052 0-10.107 0-15.155 0-0.201-0.014-0.403 0-0.603 0.038-0.483-0.103-0.765-0.662-0.744-0.516 0.018-0.898 0.131-0.905 0.741 0.003 0.326-0.013 0.652-0.048 0.976-0.014 0.143-0.082 0.275-0.189 0.37s-0.247 0.147-0.39 0.144c-0.076 0.009-0.153 0.002-0.227-0.019s-0.142-0.058-0.202-0.107c-0.059-0.049-0.108-0.109-0.144-0.177s-0.057-0.143-0.063-0.219c-0.186-1.459-0.045-3.058 2.144-3.071 0.537 0 0.698-0.241 0.68-0.739-0.023-0.679-0.018-1.358 0-2.035 0.041-1.509 0.996-2.548 2.491-2.729 0.401-0.047 0.804-0.071 1.207-0.071 2.913-0.005 5.827-0.008 8.742-0.008zM15.301 6.841c-3.444 0-6.89 0-10.334 0-0.483 0-0.822 0.041-0.815 0.668 0.024 2.163 0.015 4.325 0 6.487 0 0.424 0.173 0.644 0.582 0.738 3.12 0.712 6.254 1.269 9.462 1.362 3.898 0.112 7.715-0.442 11.497-1.326 0.543-0.127 0.754-0.359 0.745-0.916-0.023-2.037-0.039-4.073 0.008-6.11 0.017-0.754-0.265-0.922-0.964-0.916-3.393 0.030-6.787 0.014-10.181 0.014v-0.002zM15.301 25.498c3.443 0 6.887 0 10.329 0 0.641 0 0.807-0.302 0.816-0.886s-0.217-0.812-0.798-0.789c-0.704 0.033-1.409 0.028-2.112-0.015-0.602-0.042-1.164-0.315-1.57-0.761s-0.623-1.032-0.608-1.636c0.016-0.603 0.264-1.177 0.692-1.602s1.004-0.668 1.608-0.678c0.729-0.021 1.457-0.015 2.186 0 0.413 0 0.594-0.18 0.588-0.591-0.009-0.603-0.032-1.207 0.009-1.81 0.044-0.646-0.128-0.842-0.804-0.646-3.183 0.928-6.461 1.24-9.757 1.281-3.731 0.047-7.43-0.279-11.037-1.306-0.472-0.134-0.714-0.077-0.686 0.487 0.030 0.653 0.020 1.308 0 1.961-0.011 0.453 0.187 0.635 0.632 0.626 0.679-0.015 1.358-0.012 2.037 0 1.312 0.027 2.387 1.056 2.414 2.305 0.032 1.219-1.045 2.331-2.341 2.386-0.677 0.030-1.358 0.026-2.035 0-0.513-0.014-0.721 0.192-0.717 0.712 0 0.807 0.116 0.952 0.965 0.953 3.396 0.011 6.791 0.017 10.184 0.017l0.004-0.009zM15.312 5.568h2.942c2.46 0 4.922 0 7.383 0 0.309 0 0.664 0.083 0.786-0.379 0.364-1.406-0.418-2.476-1.871-2.477-6.179-0.006-12.358-0.006-18.536 0-1.312 0-1.822 0.516-1.854 1.81-0.026 1.005 0 1.038 1.056 1.038l10.094 0.008zM5.775 22.49c0.351 0 0.701 0 1.056 0 0.628 0 0.987-0.312 1.039-0.943 0.048-0.596-0.329-1.056-0.974-1.104-0.548-0.045-1.101-0.021-1.659-0.021-1.083 0-1.083 0-1.079 1.067 0 0.982 0.023 1.002 1.014 1.008l0.603-0.006zM24.702 22.482c1.854 0.009 1.854 0.009 1.724-1.487 0-0.050 0-0.1-0.008-0.151 0.004-0.057-0.004-0.114-0.024-0.167s-0.052-0.102-0.092-0.142c-0.041-0.040-0.089-0.070-0.143-0.090s-0.111-0.026-0.168-0.021c-0.801 0-1.608-0.041-2.402 0.035-0.555 0.051-0.894 0.444-0.867 1.041 0.030 0.623 0.364 0.967 1.002 0.979 0.326 0.011 0.652 0.001 0.978 0.001v0.002zM8.918 28.029c0-1.156 0-1.156-1.079-1.159-1.441 0-1.441 0-1.445 1.033 0 1.346 0.017 1.37 1.232 1.371 1.249 0.003 1.288-0.036 1.291-1.246zM22.915 26.864c-1.243 0-1.243 0-1.243 1.070 0 1.306 0.027 1.337 1.276 1.335 1.22 0 1.249-0.030 1.247-1.282 0-1.122 0-1.122-1.281-1.122z"></path>
<path d="M15.257 23.73c-1.006 0-2.011 0.018-3.017 0-1.119-0.026-1.768-0.682-1.81-1.789-0.011-0.276-0.008-0.554 0-0.83 0.024-1.146 0.649-1.896 1.779-1.925 2.059-0.053 4.12-0.053 6.185 0 1.13 0.029 1.756 0.777 1.779 1.925 0 0.302 0.012 0.603 0 0.905-0.056 1.020-0.703 1.659-1.735 1.717-0.050 0-0.101 0-0.151 0l-3.029-0.003zM15.371 20.538c-0.952 0-1.904 0.017-2.856 0-0.646-0.015-0.818 0.318-0.809 0.892 0.009 0.545 0.035 1.021 0.766 1.018 1.88-0.008 3.759-0.008 5.637 0 0.729 0 0.763-0.466 0.771-1.014 0-0.57-0.151-0.913-0.804-0.896-0.901 0.017-1.804 0-2.706 0z"></path>
</symbol>
<symbol id="icon-card_water" viewBox="0 0 31 32">
<path d="M15.372 0.64c0.445 0 0.89 0 1.336 0 0.61 0.012 0.97 0.345 1.007 0.933s0.079 1.16-0.335 1.711c-0.357 0.473-0.134 1.007 0.258 1.442 0.82 0.905 1.614 1.838 2.45 2.728 0.333 0.345 0.593 0.752 0.766 1.199s0.254 0.923 0.239 1.402c-0.016 2.732-0.008 5.467 0 8.196 0.001 0.623-0.123 1.24-0.366 1.814-0.868 2.070-0.883 4.15 0 6.215 0.482 1.133 0.434 2.307 0.302 3.467-0.045 0.428-0.249 0.824-0.572 1.109s-0.741 0.44-1.172 0.433c-1.163 0.016-2.356 0.215-3.447-0.46-0.377-0.232-0.823-0.116-1.214 0.096-1.151 0.625-2.39 0.437-3.588 0.284-0.849-0.101-1.374-0.832-1.408-1.708-0.047-1.243 0-2.45 0.494-3.655 0.72-1.767 0.676-3.618-0.015-5.401-0.342-0.867-0.512-1.791-0.501-2.723 0.028-2.553 0.028-5.107 0-7.662-0.016-0.477 0.064-0.953 0.235-1.398s0.431-0.852 0.764-1.195c0.833-0.895 1.635-1.818 2.446-2.732 0.518-0.587 0.52-0.993 0.133-1.658-0.359-0.612-0.307-1.285-0.075-1.924 0.134-0.36 0.478-0.507 0.867-0.508l1.397-0.004zM10.673 27.010c0.25 0.017 0.422 0.036 0.594 0.041 0.331 0.011 0.668 0.048 0.652 0.479-0.012 0.379-0.327 0.481-0.626 0.427-0.773-0.141-0.841 0.291-0.783 0.873 0.024 0.241 0 0.489 0.031 0.731 0.045 0.388 0.275 0.737 0.636 0.771 1.007 0.091 2.045 0.304 3.008-0.196 0.653-0.339 1.353-0.508 1.978-0.141 0.988 0.579 2.028 0.4 3.057 0.4 0.598 0 0.922-0.388 0.963-0.983 0.019-0.287-0.023-0.58 0.012-0.865 0.060-0.477-0.134-0.593-0.594-0.588-1.87 0.025-3.74 0.011-5.61 0.011-0.178 0.005-0.357 0.001-0.534-0.012-0.275-0.029-0.47-0.181-0.463-0.468 0-0.253 0.192-0.392 0.439-0.42 0.178-0.014 0.356-0.019 0.534-0.015 1.825 0 3.649-0.011 5.476 0 0.442 0 0.594-0.056 0.401-0.545-0.918-2.32-0.875-4.638 0.103-6.934 0.079-0.183 0.146-0.372 0.199-0.564 0.12-0.451 0.031-0.667-0.534-0.667-2.715 0.029-5.429 0.013-8.147 0.013-1.069 0-1.15 0.123-0.76 1.123 0.024 0.061 0.055 0.121 0.083 0.181 0.56 1.24 0.749 2.547 0.709 3.898-0.046 1.193-0.325 2.365-0.823 3.451zM20.023 14.306l0.152-0.080c0-0.765 0-1.532 0-2.298 0-0.303-0.214-0.283-0.413-0.3-0.298-0.025-0.534-0.145-0.513-0.483 0.017-0.297 0.246-0.4 0.514-0.417 0.199-0.015 0.415 0 0.411-0.299-0.008-0.552 0.059-1.108-0.222-1.628-0.158-0.293-0.307-0.427-0.668-0.277-0.42 0.185-0.882 0.259-1.339 0.215s-0.895-0.206-1.272-0.469c-0.904-0.605-1.763-0.608-2.662 0-0.721 0.489-1.529 0.576-2.365 0.355-0.741-0.195-0.959-0.075-1.090 0.684-0.045 0.267-0.017 0.533-0.053 0.8-0.071 0.513 0.159 0.636 0.644 0.631 2.003-0.023 4.007-0.011 6.010-0.009 0.2-0.005 0.399 0.002 0.598 0.020 0.247 0.028 0.419 0.16 0.423 0.427 0.003 0.056-0.005 0.112-0.024 0.165s-0.049 0.101-0.087 0.143c-0.038 0.041-0.085 0.074-0.136 0.097s-0.107 0.035-0.163 0.035c-0.199 0.019-0.399 0.026-0.598 0.021-1.98 0-3.959 0.025-5.937-0.013-0.61-0.017-0.759 0.176-0.74 0.751 0.041 1.264 0.009 2.534 0.017 3.796 0 0.184-0.076 0.4 0.143 0.596 0.72-0.624 1.437-1.244 2.149-1.867 0.387-0.341 0.891-0.653 1.328-0.392 0.801 0.476 1.149-0.039 1.587-0.491 0.308-0.319 0.616-0.64 0.943-0.941 0.721-0.667 1.469-0.667 2.185 0 0.413 0.392 0.789 0.819 1.177 1.229zM19.022 7.647c-0.721-0.813-1.382-1.556-2.041-2.303-0.25-0.283-0.569-0.579-0.557-0.957 0.029-0.991-0.584-0.991-1.281-0.924-0.111 0.011-0.223 0.011-0.334 0-0.298-0.025-0.461 0.083-0.455 0.4 0.011 0.644-0.323 1.131-0.735 1.585-0.647 0.716-1.281 1.443-1.949 2.196 0.704 0.316 1.298 0.235 1.846-0.133 1.225-0.832 2.432-0.829 3.657 0 0.549 0.377 1.142 0.455 1.848 0.136zM18.573 17.442c0.5 0 0.855 0 1.21 0 0.134 0 0.267 0.020 0.363-0.108 0.134-0.188 0.012-1.673-0.168-1.855-0.592-0.6-1.191-1.192-1.789-1.786-0.228-0.228-0.497-0.344-0.761-0.095-0.58 0.549-1.137 1.121-1.703 1.683-0.133 0.133-0.17 0.276-0.017 0.4 0.915 0.74 1.42 2.179 2.865 1.76zM11.326 17.382h4.719c-0.661-0.677-1.261-1.312-1.887-1.919-0.196-0.191-0.465-0.133-0.668 0.043-0.688 0.592-1.368 1.19-2.164 1.882v-0.005zM15.361 2.547c0.354 0 0.708-0.016 1.062 0 0.401 0.021 0.401-0.217 0.407-0.509s-0.041-0.511-0.422-0.5c-0.66 0.021-1.328 0.023-1.995 0.001-0.386-0.012-0.55 0.097-0.554 0.519 0 0.444 0.206 0.515 0.569 0.495 0.312-0.019 0.624-0.004 0.934-0.005z"></path>
</symbol>
<symbol id="icon-card_guide" viewBox="0 0 31 32">
<path d="M9.195 17.1c0.362-0.834 0.286-1.217-0.349-1.799-0.789-0.7-1.356-1.615-1.631-2.633-0.081-0.385-0.307-0.724-0.631-0.948-1.181-0.842-1.444-2.299-0.685-3.548 0.122-0.202 0.2-0.369 0.134-0.613-0.621-2.212 0.629-4.785 3.303-5.84 1.544-0.598 3.206-0.827 4.854-0.668 0.985 0.085 1.8 0.474 2.186 1.489 0.181 0.434 0.497 0.797 0.902 1.035 1.595 1.043 1.889 1.917 1.314 3.74-0.066 0.207-0.142 0.371 0.031 0.609 0.935 1.29 0.661 2.972-0.647 3.911-0.217 0.15-0.373 0.373-0.438 0.629-0.329 1.189-1.008 2.251-1.95 3.048-0.401 0.346-0.43 1.54-0.073 1.914 0.18 0.188 0.302 0.023 0.377-0.080 0.744-1.017 1.777-0.88 2.79-0.668 2.806 0.606 4.797 2.193 5.653 4.989 0.863 2.82 0.935 5.744 0.958 8.662 0 0.601-0.365 0.668-0.842 0.668-4.475-0.007-8.951-0.007-13.427 0-3.362 0-6.724 0-10.087 0-0.879 0-0.945-0.064-0.935-0.962 0.023-2.499 0.156-4.987 0.692-7.435 0.776-3.553 3.474-5.878 6.948-6.043 0.679-0.032 0.679-0.032 1.554 0.542zM12.862 30.018c2.161 0 4.32-0.017 6.479 0.012 0.535 0 0.683-0.148 0.668-0.668-0.035-1.424-0.012-2.849-0.011-4.275 0-0.267-0.020-0.544 0.267-0.703 0.377-0.207 0.704 0.065 0.708 0.633 0.012 1.491 0.016 2.983 0 4.474 0 0.401 0.11 0.553 0.528 0.534 0.778-0.029 1.558-0.016 2.337 0 0.293 0 0.464-0.065 0.453-0.401-0.088-2.692-0.127-5.393-1.022-7.978-0.684-1.978-2.138-3.166-4.083-3.821-0.384-0.134-0.597-0.056-0.802 0.309-0.812 1.407-1.654 2.797-2.5 4.184-0.187 0.298-0.283 0.643-0.278 0.994 0.013 1.67 0.009 3.34 0 5.008 0 0.787-0.11 0.896-0.88 0.899-1.447 0-2.894 0-4.343 0-0.851 0-0.929-0.073-0.935-0.903 0-1.603-0.012-3.206 0-4.809 0.016-0.443-0.102-0.881-0.337-1.257-0.819-1.325-1.634-2.654-2.397-4.007-0.267-0.472-0.534-0.485-0.966-0.315-2.102 0.843-3.477 2.326-4.005 4.558-0.55 2.31-0.675 4.662-0.764 7.022-0.016 0.431 0.159 0.525 0.546 0.514 0.867-0.021 1.737-0.027 2.604 0 0.43 0.015 0.577-0.112 0.569-0.558-0.025-1.447-0.008-2.893-0.011-4.341 0-0.375 0.024-0.781 0.496-0.795s0.508 0.401 0.509 0.775c0 1.403 0.024 2.805-0.011 4.207-0.013 0.542 0.134 0.727 0.7 0.719 2.159-0.036 4.32-0.011 6.479-0.011zM12.469 15.699c0.068 0 0.225-0.009 0.378-0.035 2.177-0.35 3.256-1.823 3.832-3.786 0.114-0.389 0.267-0.641 0.652-0.84 1.045-0.542 1.138-2.004 0.199-2.649-0.218-0.15-0.313-0.369-0.421-0.585-0.391-0.775-0.892-1.49-1.486-2.124-0.147-0.156-0.314-0.442-0.599-0.168-0.615 0.596-1.38 0.641-2.175 0.63-1.312-0.015-2.628-0.029-3.924 0.206-0.838 0.15-1.507 0.545-1.626 1.507-0.045 0.218-0.156 0.417-0.319 0.569-0.834 0.914-0.632 2.092 0.473 2.656 0.394 0.2 0.518 0.473 0.6 0.871 0.446 2.191 2.258 3.748 4.416 3.748zM6.901 6.311c1.069-0.974 2.23-1.069 3.39-1.111 0.954-0.040 1.911-0.032 2.866-0.037 0.482 0 0.922-0.095 1.276-0.461 0.593-0.613 0.77-0.624 1.44-0.12 0.615 0.462 1.052 1.078 1.49 1.695 0.104 0.146 0.134 0.382 0.377 0.401 0.301-0.963 0.191-1.435-0.657-2.013-0.756-0.514-1.391-1.091-1.737-1.956-0.147-0.369-0.488-0.534-0.84-0.585-2.223-0.291-4.351-0.049-6.191 1.368-0.832 0.643-1.331 1.522-1.414 2.82zM17.503 17.654c-0.412-0.168-0.567 0.108-0.751 0.267-1.085 0.956-2.164 1.919-3.238 2.888-0.99 0.902-0.982 0.902-1.975-0.033-1.017-0.964-2.042-1.921-3.059-2.884-0.254-0.24-0.502-0.449-0.898-0.236 0.021 0.084 0.050 0.166 0.087 0.244 0.786 1.317 1.583 2.629 2.358 3.953 0.167 0.285 0.389 0.317 0.668 0.314 0.89 0 1.792-0.092 2.672 0.020 1.118 0.144 1.737-0.295 2.227-1.265 0.557-1.123 1.259-2.172 1.907-3.267zM10.422 25.705c0 0.689 0.015 1.377 0 2.065-0.009 0.343 0.108 0.476 0.456 0.472 1.069-0.015 2.138-0.019 3.199 0 0.417 0.008 0.534-0.159 0.534-0.552-0.017-1.336-0.017-2.669 0-3.998 0-0.409-0.134-0.542-0.534-0.534-1.044 0.020-2.088 0.024-3.132 0-0.425-0.009-0.528 0.162-0.513 0.55 0.017 0.664-0.001 1.332-0.001 1.997h-0.008zM14.71 18.128c-0.21-0.419-0.346-0.871-0.401-1.336-0.032-0.409-0.187-0.401-0.508-0.305-0.791 0.242-1.63 0.279-2.438 0.107-0.897-0.175-0.898-0.178-1.124 0.719-0.082 0.325-0.307 0.633 0.076 0.962 0.656 0.562 1.276 1.171 1.897 1.774 0.212 0.206 0.375 0.255 0.615 0.032 0.553-0.513 1.128-1.003 1.69-1.507 0.126-0.099 0.273-0.19 0.2-0.446h-0.008z"></path>
<path d="M21.984 9.187v-6.671c0-0.067 0-0.134 0-0.2 0.013-0.345 0.112-0.639 0.525-0.624 0.367 0.013 0.516 0.293 0.461 0.604-0.123 0.715 0.281 1.069 0.791 1.455 2.167 1.632 4.307 3.302 6.452 4.964 0.256 0.198 0.617 0.375 0.474 0.788s-0.518 0.35-0.852 0.35h-5.27c-1.579 0-1.579 0-1.579 1.614 0 1.468 0 2.937 0 4.408 0 0.362 0.024 0.788-0.47 0.802-0.548 0.020-0.534-0.431-0.534-0.816 0-2.224 0.001-4.448 0.003-6.672zM28.563 8.695c-1.746-1.344-3.474-2.682-5.219-4.016-0.341-0.267-0.353 0-0.353 0.246 0 1.113 0.020 2.227-0.011 3.34-0.012 0.484 0.176 0.602 0.624 0.596 1.47-0.020 2.94 0 4.409-0.011 0.164-0.001 0.353 0.061 0.549-0.155z"></path>
<path d="M12.545 23.741c0.29 0 0.58-0.013 0.868 0 0.062-0.003 0.124 0.008 0.182 0.030s0.111 0.056 0.156 0.099c0.045 0.043 0.080 0.095 0.104 0.152s0.036 0.119 0.036 0.181c0.009 0.062 0.004 0.125-0.013 0.184s-0.048 0.115-0.089 0.162c-0.041 0.047-0.092 0.085-0.148 0.11s-0.119 0.039-0.181 0.039c-0.621 0.023-1.245 0.020-1.871 0-0.062 0.002-0.124-0.010-0.182-0.035s-0.109-0.061-0.151-0.107-0.074-0.1-0.094-0.16c-0.020-0.059-0.026-0.122-0.020-0.184-0.003-0.062 0.007-0.124 0.030-0.182s0.056-0.111 0.1-0.155c0.044-0.044 0.096-0.079 0.154-0.102s0.12-0.034 0.182-0.032c0.314-0.012 0.625 0.001 0.937 0z"></path>
<path d="M12.544 26.171c-0.311 0-0.623 0.012-0.935 0-0.062 0.002-0.124-0.009-0.181-0.032s-0.11-0.058-0.153-0.102c-0.043-0.044-0.077-0.097-0.099-0.155s-0.032-0.12-0.029-0.182c-0.007-0.062-0-0.125 0.019-0.184s0.052-0.114 0.094-0.159c0.042-0.046 0.094-0.082 0.151-0.106s0.119-0.036 0.182-0.034c0.6-0.016 1.201-0.016 1.801 0 0.311 0.007 0.506 0.184 0.496 0.506-0.011 0.287-0.2 0.441-0.48 0.455s-0.576-0.005-0.866-0.007z"></path>
<path d="M12.494 27.633c-0.287 0-0.576 0-0.864 0-0.062 0.004-0.124-0.004-0.182-0.025s-0.111-0.053-0.156-0.096c-0.045-0.043-0.081-0.094-0.105-0.151s-0.036-0.118-0.036-0.18c-0.010-0.061-0.006-0.124 0.011-0.184s0.047-0.115 0.088-0.162 0.091-0.084 0.148-0.109c0.057-0.025 0.118-0.038 0.181-0.037 0.62-0.017 1.243-0.016 1.863 0 0.062-0.003 0.124 0.008 0.181 0.031s0.109 0.059 0.152 0.104 0.075 0.099 0.095 0.158c0.020 0.059 0.027 0.121 0.020 0.183 0.003 0.062-0.007 0.123-0.029 0.181s-0.056 0.11-0.1 0.154c-0.044 0.044-0.096 0.078-0.153 0.1s-0.119 0.033-0.181 0.030c-0.31 0.016-0.621 0-0.935 0l0.003 0.003z"></path>
</symbol>
<symbol id="icon-card_mountain" viewBox="0 0 31 32">
<path d="M15.335 16.785c-0.194 1.298-0.356 2.396-0.524 3.491-0.037 0.242 0.084 0.301 0.291 0.338 0.362 0.064 0.504 0.314 0.349 0.635-0.114 0.233-0.060 0.414-0.013 0.635 0.154 0.71-0.234 1.479-0.936 1.619-0.552 0.111-0.6 0.382-0.654 0.846-0.261 2.254-2.329 3.779-4.477 3.343-2.273-0.464-3.61-2.647-2.964-4.855 0.159-0.56 0.453-1.073 0.858-1.491 0.23-0.238 0.489-0.463 0.796-0.164 0.267 0.267 0.091 0.523-0.118 0.754-0.306 0.327-0.533 0.72-0.662 1.149s-0.157 0.882-0.081 1.323c0.229 1.559 1.694 2.627 3.307 2.413 1.492-0.201 2.61-1.657 2.463-3.162-0.041-0.42-0.202-0.414-0.511-0.274-0.65 0.295-1.305 0.576-1.96 0.856-0.604 0.259-0.821 0.134-0.889-0.5-0.174-1.661-0.382-3.32-0.489-4.986-0.045-0.709-0.535-0.98-0.953-1.355-0.199-0.18-0.366 0.053-0.535 0.134-0.295 0.134-0.571 0.178-0.739-0.162s0.051-0.521 0.308-0.635c0.517-0.229 0.669-0.425 0.267-0.988-0.693-0.971-0.341-2.262 0.695-2.895 0.951-0.579 1.92-1.131 2.889-1.679 0.139-0.062 0.258-0.16 0.344-0.286s0.136-0.272 0.143-0.423c0.031-0.359 0.2-0.693 0.473-0.929s0.626-0.358 0.986-0.338c0.338 0.015 0.658 0.151 0.904 0.384s0.399 0.545 0.433 0.881c0.024 0.178 0.013 0.359-0.034 0.532s-0.128 0.335-0.239 0.476c-0.111 0.141-0.249 0.258-0.406 0.345s-0.33 0.141-0.508 0.159c-0.382 0.056-0.5 0.182-0.437 0.546 0.068 0.39 0.11 0.786 0.171 1.239 0.578-0.289 0.975-0.742 1.447-1.091 0.267-0.197 0.535-0.401 0.802-0.056 0.242 0.308 0.013 0.526-0.211 0.734-0.936 0.866-0.936 0.869-0.015 1.786l0.047 0.048c0.35 0.342 0.646 0.838 1.070 0.988 0.5 0.179 0.727-0.5 1.124-0.742 1.409-0.858 3.241-0.786 4.507 0.242 0.62 0.502 1.066 1.186 1.278 1.955s0.177 1.585-0.099 2.334c-0.276 0.749-0.779 1.392-1.439 1.84s-1.443 0.679-2.241 0.659c-0.797-0.014-1.57-0.28-2.206-0.761s-1.105-1.15-1.337-1.913c-0.079-0.258-0.215-0.555 0.061-0.737 0.499-0.326 0.637 0.047 0.781 0.444 0.548 1.511 1.847 2.273 3.353 1.996 1.246-0.23 2.153-1.211 2.328-2.518 0.069-0.602-0.051-1.211-0.344-1.742s-0.744-0.957-1.291-1.219c-0.547-0.262-1.161-0.348-1.759-0.244s-1.148 0.391-1.574 0.821c-0.362 0.357-0.279 0.566 0.090 0.826 0.544 0.384 1.171 0.535 1.793 0.701 0.334 0.091 0.714 0.18 0.591 0.634s-0.503 0.301-0.833 0.246c-1.39-0.234-2.454-1.005-3.471-2.209zM8.198 13.879c1.213 0.412 1.337 0.401 2.179-0.091 0.249-0.144 0.481-0.333 0.746-0.431 0.751-0.275 0.856-0.765 0.519-1.485l-3.444 2.007zM13.858 19.519l0.148-0.036c0.163-1.032 0.327-2.064 0.491-3.097 0.023-0.15 0.092-0.32-0.075-0.427s-0.287 0.047-0.414 0.116c-0.313 0.171-0.615 0.36-0.936 0.535-0.199 0.107-0.326 0.233-0.226 0.476l1.012 2.432zM13.262 20.832c0.028-0.134 0.057-0.178 0.044-0.21-0.287-0.725-0.579-1.445-0.869-2.169-0.325-0.802-1.149-1.001-1.82-0.439-0.164 0.134-0.172 0.226-0.024 0.362 0.88 0.806 1.757 1.615 2.669 2.455zM10.277 21.501c0.025 0.286 0.040 0.484 0.063 0.682 0.126 1.080 0.134 1.091 1.115 0.635 0.328-0.152 0.915-0.184 0.912-0.521 0-0.465-0.535-0.71-0.936-0.936-0.178-0.088-0.362-0.161-0.552-0.218-0.421-0.144-0.717-0.13-0.602 0.361v-0.003zM11.668 16.604c-0.89-1.139-2.127-1.575-3.546-1.698 0.21 0.792 1.483 1.424 3.546 1.701v-0.003zM10.716 14.648c0.487 0.301 0.959 0.473 1.253 0.802 0.385 0.433 0.699 0.447 1.098 0.108 0.17-0.145 0.556-0.134 0.473-0.455-0.071-0.275-0.342-0.35-0.652-0.3-0.334 0.055-0.669-0.087-0.755-0.411-0.146-0.58-0.412-0.349-0.702-0.175l-0.714 0.429zM12.912 10.102c-0.302 0.055-0.481 0.227-0.465 0.535-0 0.062 0.012 0.123 0.037 0.179s0.061 0.107 0.106 0.149c0.045 0.042 0.099 0.074 0.157 0.094s0.12 0.028 0.182 0.023c0.309 0 0.512-0.182 0.504-0.495s-0.21-0.463-0.52-0.484v-0.001zM14.556 22.217c0-0.324-0.17-0.507-0.479-0.519-0.061-0.008-0.122-0.002-0.181 0.015s-0.113 0.048-0.159 0.087c-0.046 0.040-0.084 0.089-0.11 0.144s-0.041 0.115-0.042 0.177c-0.031 0.308 0.123 0.515 0.436 0.542s0.485-0.147 0.535-0.445v-0.001zM10.15 19.209c-0.053 0.936-0.053 0.944 1.046 0.953l-1.046-0.953z"></path>
<path d="M30.118 25.335c-1.408-0.417-2.816-0.836-4.231-1.233-0.293-0.083-0.453-0.171-0.452-0.521 0.013-3.454 0.013-6.908 0-10.361 0-0.488 0.177-0.455 0.505-0.259 0.632 0.376 1.273 0.735 1.912 1.098 0.251 0.143 0.509 0.328 0.802 0.088 0.259-0.218 0.142-0.489 0.066-0.742-1.073-3.515-2.147-7.029-3.222-10.543-0.079-0.259-0.16-0.535-0.503-0.535s-0.435 0.267-0.514 0.524c-0.604 1.992-1.854 6.176-2.516 8.372-0.039 0.075-0.071 0.154-0.095 0.235-0.201 0.661-0.401 1.318-0.606 1.98-0.076 0.255-0.177 0.535 0.1 0.731s0.509 0.035 0.742-0.096c0.62-0.352 1.25-0.689 1.853-1.070 0.453-0.283 0.587-0.211 0.584 0.334-0.016 3.341-0.016 6.684 0 10.028 0 0.475-0.164 0.616-0.612 0.618-0.925 0-1.802 0.259-2.653 0.61-2.532 1.042-5.108 1.998-7.584 3.16s-4.911 1.27-7.417 0.17c-0.384-0.167-0.596-0.346-0.694-0.773-0.556-2.431-1.146-4.855-1.726-7.28-0.071-0.298-0.087-0.669-0.499-0.691-0.471-0.025-0.485 0.381-0.56 0.697-0.459 1.907-0.914 3.812-1.365 5.717-0.074 0.308-0.104 0.64-0.58 0.425-0.32-0.143-0.703-0.227-0.83 0.222s0.279 0.543 0.591 0.653c2.273 0.802 4.533 1.604 6.813 2.375 1.749 0.602 3.658 0.535 5.36-0.187 2.906-1.193 5.807-2.396 8.703-3.61 1.632-0.706 3.464-0.801 5.16-0.267 1.070 0.322 2.129 0.653 3.193 0.981 0.328 0.102 0.705 0.235 0.846-0.205s-0.249-0.547-0.572-0.643zM2.44 26.56c-0.202-0.068-0.29-0.156-0.234-0.386 0.353-1.432 0.695-2.868 1.194-4.308 0.424 1.777 0.849 3.555 1.313 5.498-0.848-0.301-1.556-0.56-2.269-0.804h-0.004zM24.387 11.718c-0.61 0.361-1.232 0.701-1.967 1.115 0.098-0.342 0.17-0.618 0.243-0.876 0.023-0.059 0.041-0.12 0.060-0.182 0.401-1.3 1.499-5.010 1.904-6.306 0.095-0.306 0.134-0.642 0.416-0.984 0.848 2.784 1.67 5.489 2.54 8.357-0.774-0.434-1.393-0.774-2.006-1.13-0.178-0.113-0.384-0.172-0.595-0.171s-0.416 0.064-0.592 0.18l-0.004-0.004z"></path>
</symbol>
<symbol id="icon-card_support" viewBox="0 0 31 32">
<path d="M1.897 17.29c0-0.868-0.009-1.736 0-2.605 0.025-1.935 0.731-2.922 2.571-3.473 0.453-0.134 0.383-0.431 0.401-0.713 0.147-2.524 1.115-4.688 2.805-6.545 2.738-3.008 7.211-4.103 11.166-2.727 3.863 1.344 6.69 4.975 6.932 8.988 0.040 0.653 0.228 0.935 0.873 1.131 1.219 0.361 1.966 1.261 2.058 2.53 0.166 2.286 0.166 4.582 0 6.868-0.104 1.419-0.994 2.304-2.351 2.662-0.407 0.107-0.557 0.282-0.562 0.668-0.005 0.245-0.028 0.489-0.068 0.731-0.514 3.152-2.231 4.643-5.675 4.942-0.222 0.025-0.445 0.036-0.668 0.035-0.425-0.016-0.628 0.134-0.677 0.596-0.068 0.613-0.502 0.947-1.102 0.962-1.224 0.029-2.447 0.029-3.672 0-0.707-0.013-1.155-0.463-1.195-1.181-0.035-0.623-0.035-1.247 0-1.87 0.044-0.727 0.47-1.146 1.202-1.162 1.202-0.028 2.404-0.024 3.606 0 0.668 0.013 1.109 0.367 1.157 1.051 0.031 0.441 0.219 0.492 0.597 0.453 0.935-0.095 1.863-0.167 2.749-0.506 1.619-0.62 2.826-2.615 2.613-4.274-0.047-0.365-0.293-0.267-0.49-0.278-1.157-0.057-1.189-0.085-1.19-1.238 0-3.361 0-6.722 0-10.083 0-1.050 0.084-1.157 1.134-1.154 0.438 0 0.566-0.119 0.544-0.568-0.239-4.768-4.141-8.523-9.124-8.75-4.551-0.218-8.805 3.371-9.408 7.943-0.013 0.11-0.028 0.22-0.043 0.33-0.127 0.96-0.127 0.974 0.821 1.016 0.556 0.024 0.801 0.284 0.801 0.835 0 3.606 0 7.213 0 10.819 0 0.585-0.248 0.869-0.843 0.85-0.733-0.027-1.469 0.055-2.199-0.079-1.573-0.28-2.566-1.28-2.695-2.868-0.091-1.105-0.017-2.223-0.017-3.339l-0.051 0.004zM6.518 17.318v-3.873c0-1.274 0-1.274-1.306-1.213-1.245 0.059-2.097 0.768-2.126 1.947-0.053 2.090-0.048 4.183 0 6.278 0.024 1.016 0.691 1.684 1.694 1.87 0.347 0.061 0.711 0.027 1.069 0.068 0.516 0.060 0.701-0.119 0.688-0.661-0.036-1.477-0.013-2.946-0.013-4.416h-0.004zM24.158 17.318c0 1.491 0.013 2.983-0.009 4.473 0 0.457 0.126 0.668 0.602 0.612 0.267-0.029 0.534 0 0.801-0.023 1.202-0.096 1.986-0.801 2.022-1.989 0.061-2.046 0.060-4.096 0.021-6.144-0.016-1.053-0.656-1.72-1.708-1.919-0.369-0.069-0.755-0.036-1.129-0.079-0.465-0.055-0.616 0.12-0.608 0.592 0.027 1.491 0.011 2.983 0.011 4.475l-0.004 0.003zM15.71 30.17h0.534c1.436 0 1.424 0 1.353-1.425-0.016-0.346-0.134-0.466-0.469-0.461-0.935 0.013-1.859 0-2.789 0-0.196 0-0.439-0.025-0.438 0.267 0 0.505-0.18 1.081 0.083 1.492 0.199 0.31 0.743 0.083 1.13 0.116 0.199 0.021 0.406 0.008 0.6 0.008l-0.004 0.003z"></path>
</symbol>
<symbol id="icon-card_map" viewBox="0 0 31 32">
<path d="M15.367 27.215c-4.797 0-9.595 0-14.393 0-0.958 0-0.974-0.018-0.974-0.98v-18.294c0-0.916 0.023-0.942 0.942-0.942 5.717 0 11.434 0.003 17.152 0.008 0.46 0 0.772-0.108 1.077-0.483 0.452-0.545 1.019-0.984 1.66-1.285s1.341-0.457 2.049-0.457 1.408 0.156 2.049 0.457c0.641 0.301 1.208 0.74 1.66 1.285 0.288 0.349 0.568 0.503 1.015 0.486 0.808-0.030 1.615 0 2.422-0.011 0.468-0.008 0.696 0.155 0.696 0.662-0.009 6.301-0.009 12.601 0 18.9 0 0.638-0.37 0.659-0.834 0.658-3.275-0.005-6.549-0.005-9.824 0l-4.694-0.004zM19.067 13.469c0.022-0.126 0.036-0.153 0.028-0.17-0.089-0.18-0.182-0.358-0.269-0.538-0.673-1.362-1.032-2.783-0.638-4.29 0.148-0.565-0.035-0.627-0.525-0.624-3.092 0.016-6.184 0.016-9.276 0-0.524 0-0.688 0.135-0.684 0.673 0.024 3.383 0.011 6.768 0.016 10.151 0 0.166-0.075 0.361 0.11 0.499 0.287-0.098 0.472-0.331 0.686-0.521 1.794-1.591 3.596-3.179 5.37-4.786 0.142-0.137 0.311-0.244 0.496-0.313s0.383-0.1 0.58-0.091c1.369 0.026 2.735 0.009 4.105 0.009zM0.829 13.873c0 1.814 0.011 3.634-0.009 5.442 0 0.428 0.104 0.589 0.559 0.583 1.657-0.024 3.315-0.021 4.973 0 0.42 0 0.529-0.135 0.528-0.538-0.012-3.651-0.012-7.302 0-10.953 0-0.404-0.101-0.554-0.522-0.549-1.658 0.019-3.316 0.019-4.973 0-0.441 0-0.569 0.141-0.564 0.579 0.022 1.802 0.009 3.612 0.009 5.432v0.005zM14.039 14.874l-6.16 5.465c-0.172 0.153-0.166 0.355-0.166 0.557 0 1.636 0.012 3.272-0.008 4.907 0 0.445 0.145 0.573 0.583 0.568 1.725-0.021 3.451-0.025 5.176 0 0.497 0.008 0.592-0.182 0.584-0.626-0.026-1.187-0.009-2.374-0.009-3.562v-7.309zM29.895 18.205c0-1.12-0.011-2.239 0.007-3.364 0-0.369-0.108-0.524-0.494-0.517-1.008 0.018-2.019 0.015-3.023 0-0.133-0.004-0.264 0.027-0.381 0.090s-0.215 0.157-0.284 0.27c-0.615 0.827-1.313 1.589-2.083 2.274-0.186 0.167-0.335 0.33-0.332 0.618 0.013 1.346 0.013 2.689 0 4.031 0 0.355 0.135 0.46 0.47 0.459 1.884-0.013 3.765-0.013 5.643 0 0.394 0 0.491-0.144 0.484-0.51-0.018-1.113-0.007-2.233-0.007-3.351zM22.913 5.64c-0.596-0.004-1.186 0.125-1.726 0.377s-1.018 0.621-1.398 1.081c-0.38 0.459-0.653 0.998-0.8 1.576s-0.163 1.181-0.047 1.766c0.475 2.416 1.985 4.165 3.667 5.822 0.292 0.287 0.464 0.088 0.666-0.106 1.068-0.995 1.984-2.143 2.717-3.405 0.476-0.816 0.778-1.721 0.888-2.659 0.063-0.559 0.007-1.125-0.164-1.661s-0.452-1.030-0.827-1.45c-0.374-0.42-0.833-0.756-1.346-0.987s-1.069-0.351-1.631-0.353zM17.704 14.336c-0.97 0-1.615 0.011-2.269 0-0.349 0-0.538 0.081-0.538 0.483 0.015 1.253 0.008 2.506 0 3.76 0 0.277 0.083 0.451 0.365 0.557 2.261 0.85 4.519 1.709 6.773 2.577 0.418 0.162 0.445-0.032 0.44-0.358-0.011-0.649-0.066-1.305 0.009-1.946 0.164-1.398-0.307-2.398-1.293-3.469-1.108-1.214-2.129-2.028-3.487-1.604zM18.658 26.365c1.098 0 2.195-0.016 3.292 0 0.416 0.009 0.538-0.135 0.538-0.538-0.026-0.873-0.015-1.75 0-2.62 0-0.28-0.069-0.456-0.351-0.563-2.243-0.844-4.482-1.697-6.716-2.557-0.383-0.148-0.519-0.071-0.517 0.354 0.013 1.791 0.019 3.582 0 5.374 0 0.471 0.202 0.554 0.608 0.548 1.040-0.012 2.093 0.001 3.145 0.001v0.001zM3.864 20.712c-0.849 0-1.7 0.017-2.549-0.008-0.385-0.011-0.498 0.12-0.494 0.498 0.017 1.565 0.015 3.132 0 4.697 0 0.345 0.109 0.472 0.462 0.47 1.7-0.013 3.4-0.013 5.101 0 0.388 0 0.495-0.135 0.491-0.51-0.014-1.565-0.014-3.13 0-4.697 0-0.355-0.116-0.464-0.463-0.457-0.846 0.020-1.701 0.007-2.548 0.007v0.001zM26.531 26.365c0.964 0 1.927-0.008 2.889 0 0.331 0 0.49-0.086 0.482-0.452-0.020-0.851-0.018-1.702 0-2.557 0-0.349-0.117-0.468-0.466-0.467-1.884 0.013-3.765 0.013-5.644 0-0.33 0-0.494 0.086-0.486 0.452 0.018 0.851 0.018 1.703 0 2.557 0 0.351 0.135 0.471 0.472 0.466 0.916-0.011 1.834-0.001 2.752-0.001v0.003zM29.895 10.669v-0.942c0-2.019 0-2.019-2.019-1.872-0.046 0-0.090 0-0.135 0-0.198 0-0.291 0.077-0.223 0.293 0.538 1.749 0.087 3.364-0.742 4.909-0.198 0.37-0.023 0.412 0.288 0.404 0.785 0 1.569-0.020 2.354 0 0.404 0.013 0.483-0.17 0.475-0.524-0.011-0.747 0.003-1.509 0.003-2.272l-0.001 0.003z"></path>
<path stroke-linejoin="miter" stroke-linecap="butt" stroke-miterlimit="4" stroke-width="0.512" d="M15.367 27.215c-4.797 0-9.595 0-14.393 0-0.958 0-0.974-0.018-0.974-0.98v-18.294c0-0.916 0.023-0.942 0.942-0.942 5.717 0 11.434 0.003 17.152 0.008 0.46 0 0.772-0.108 1.077-0.483 0.452-0.545 1.019-0.984 1.66-1.285s1.341-0.457 2.049-0.457 1.408 0.156 2.049 0.457c0.641 0.301 1.208 0.74 1.66 1.285 0.288 0.349 0.568 0.503 1.015 0.486 0.808-0.030 1.615 0 2.422-0.011 0.468-0.008 0.696 0.155 0.696 0.662-0.009 6.301-0.009 12.601 0 18.9 0 0.638-0.37 0.659-0.834 0.658-3.275-0.005-6.549-0.005-9.824 0l-4.694-0.004zM19.067 13.469c0.022-0.126 0.036-0.153 0.028-0.17-0.089-0.18-0.182-0.358-0.269-0.538-0.673-1.362-1.032-2.783-0.638-4.29 0.148-0.565-0.035-0.627-0.525-0.624-3.092 0.016-6.184 0.016-9.276 0-0.524 0-0.688 0.135-0.684 0.673 0.024 3.383 0.011 6.768 0.016 10.151 0 0.166-0.075 0.361 0.11 0.499 0.287-0.098 0.472-0.331 0.686-0.521 1.794-1.591 3.596-3.179 5.37-4.786 0.142-0.137 0.311-0.244 0.496-0.313s0.383-0.1 0.58-0.091c1.369 0.026 2.735 0.009 4.105 0.009zM0.829 13.873c0 1.814 0.011 3.634-0.009 5.442 0 0.428 0.104 0.589 0.559 0.583 1.657-0.024 3.315-0.021 4.973 0 0.42 0 0.529-0.135 0.528-0.538-0.012-3.651-0.012-7.302 0-10.953 0-0.404-0.101-0.554-0.522-0.549-1.658 0.019-3.316 0.019-4.973 0-0.441 0-0.569 0.141-0.564 0.579 0.022 1.802 0.009 3.612 0.009 5.432v0.005zM14.039 14.874l-6.16 5.465c-0.172 0.153-0.166 0.355-0.166 0.557 0 1.636 0.012 3.272-0.008 4.907 0 0.445 0.145 0.573 0.583 0.568 1.725-0.021 3.451-0.025 5.176 0 0.497 0.008 0.592-0.182 0.584-0.626-0.026-1.187-0.009-2.374-0.009-3.562v-7.309zM29.895 18.205c0-1.12-0.011-2.239 0.007-3.364 0-0.369-0.108-0.524-0.494-0.517-1.008 0.018-2.019 0.015-3.023 0-0.133-0.004-0.264 0.027-0.381 0.090s-0.215 0.157-0.284 0.27c-0.615 0.827-1.313 1.589-2.083 2.274-0.186 0.167-0.335 0.33-0.332 0.618 0.013 1.346 0.013 2.689 0 4.031 0 0.355 0.135 0.46 0.47 0.459 1.884-0.013 3.765-0.013 5.643 0 0.394 0 0.491-0.144 0.484-0.51-0.018-1.113-0.007-2.233-0.007-3.351zM22.913 5.64c-0.596-0.004-1.186 0.125-1.726 0.377s-1.018 0.621-1.398 1.081c-0.38 0.459-0.653 0.998-0.8 1.576s-0.163 1.181-0.047 1.766c0.475 2.416 1.985 4.165 3.667 5.822 0.292 0.287 0.464 0.088 0.666-0.106 1.068-0.995 1.984-2.143 2.717-3.405 0.476-0.816 0.778-1.721 0.888-2.659 0.063-0.559 0.007-1.125-0.164-1.661s-0.452-1.030-0.827-1.45c-0.374-0.42-0.833-0.756-1.346-0.987s-1.069-0.351-1.631-0.353zM17.704 14.336c-0.97 0-1.615 0.011-2.269 0-0.349 0-0.538 0.081-0.538 0.483 0.015 1.253 0.008 2.506 0 3.76 0 0.277 0.083 0.451 0.365 0.557 2.261 0.85 4.519 1.709 6.773 2.577 0.418 0.162 0.445-0.032 0.44-0.358-0.011-0.649-0.066-1.305 0.009-1.946 0.164-1.398-0.307-2.398-1.293-3.469-1.108-1.214-2.129-2.028-3.487-1.604zM18.658 26.365c1.098 0 2.195-0.016 3.292 0 0.416 0.009 0.538-0.135 0.538-0.538-0.026-0.873-0.015-1.75 0-2.62 0-0.28-0.069-0.456-0.351-0.563-2.243-0.844-4.482-1.697-6.716-2.557-0.383-0.148-0.519-0.071-0.517 0.354 0.013 1.791 0.019 3.582 0 5.374 0 0.471 0.202 0.554 0.608 0.548 1.040-0.012 2.093 0.001 3.145 0.001v0.001zM3.864 20.712c-0.849 0-1.7 0.017-2.549-0.008-0.385-0.011-0.498 0.12-0.494 0.498 0.017 1.565 0.015 3.132 0 4.697 0 0.345 0.109 0.472 0.462 0.47 1.7-0.013 3.4-0.013 5.101 0 0.388 0 0.495-0.135 0.491-0.51-0.014-1.565-0.014-3.13 0-4.697 0-0.355-0.116-0.464-0.463-0.457-0.846 0.020-1.701 0.007-2.548 0.007v0.001zM26.531 26.365c0.964 0 1.927-0.008 2.889 0 0.331 0 0.49-0.086 0.482-0.452-0.020-0.851-0.018-1.702 0-2.557 0-0.349-0.117-0.468-0.466-0.467-1.884 0.013-3.765 0.013-5.644 0-0.33 0-0.494 0.086-0.486 0.452 0.018 0.851 0.018 1.703 0 2.557 0 0.351 0.135 0.471 0.472 0.466 0.916-0.011 1.834-0.001 2.752-0.001v0.003zM29.895 10.669v-0.942c0-2.019 0-2.019-2.019-1.872-0.046 0-0.090 0-0.135 0-0.198 0-0.291 0.077-0.223 0.293 0.538 1.749 0.087 3.364-0.742 4.909-0.198 0.37-0.023 0.412 0.288 0.404 0.785 0 1.569-0.020 2.354 0 0.404 0.013 0.483-0.17 0.475-0.524-0.011-0.747 0.003-1.509 0.003-2.272l-0.001 0.003z"></path>
<path d="M22.892 7.093c-0.336-0.002-0.669 0.063-0.979 0.19s-0.594 0.315-0.832 0.552-0.428 0.519-0.557 0.829c-0.129 0.31-0.195 0.642-0.195 0.977-0.011 0.337 0.046 0.672 0.167 0.986s0.304 0.603 0.538 0.846 0.514 0.437 0.825 0.57c0.31 0.133 0.643 0.203 0.98 0.205 0.342 0.011 0.684-0.047 1.003-0.17s0.613-0.309 0.861-0.546c0.248-0.237 0.446-0.522 0.582-0.837s0.209-0.654 0.212-0.997c0.004-0.343-0.061-0.684-0.191-1.001s-0.321-0.606-0.564-0.849c-0.243-0.243-0.531-0.435-0.849-0.564s-0.657-0.195-1-0.191zM22.892 7.093c-0 0-0.001 0-0.001 0l0.001 0.128 0.001-0.128c-0 0-0.001 0-0.001 0zM21.849 10.733c-0.277-0.277-0.433-0.653-0.433-1.046s0.156-0.768 0.433-1.046c0.277-0.277 0.654-0.433 1.046-0.433s0.768 0.156 1.046 0.433c0.277 0.277 0.433 0.653 0.433 1.046s-0.156 0.768-0.433 1.046c-0.277 0.277-0.653 0.433-1.046 0.433s-0.768-0.156-1.046-0.433z"></path>
</symbol>
<symbol id="icon-card_calendar" viewBox="0 0 31 32">
<path d="M15.29 31.359h-12.485c-1.832 0-2.804-0.97-2.804-2.793 0-7.656 0-15.313 0-22.97 0-1.777 0.988-2.771 2.762-2.783 1.135-0.007 2.27-0.029 3.403 0.011 0.548 0.020 0.713-0.175 0.653-0.685-0.025-0.267-0.025-0.535 0-0.802 0.031-0.412 0.267-0.668 0.676-0.695s0.653 0.233 0.752 0.62c0.019 0.109 0.027 0.22 0.023 0.331 0.040 1.219 0.039 1.219 1.293 1.219 1.469 0 2.938-0.025 4.407 0.013 0.574 0.015 0.752-0.182 0.689-0.724-0.029-0.288-0.023-0.578 0.020-0.864 0.012-0.169 0.090-0.327 0.218-0.438s0.294-0.168 0.463-0.158c0.382 0 0.617 0.224 0.685 0.601 0.018 0.133 0.025 0.267 0.021 0.401 0.021 1.17 0.021 1.17 1.225 1.17 1.534 0 3.072-0.015 4.605 0.009 0.438 0.007 0.6-0.134 0.558-0.567-0.032-0.311-0.029-0.625 0.011-0.935 0.056-0.424 0.308-0.708 0.761-0.677 0.401 0.028 0.633 0.289 0.668 0.699 0 0.044 0 0.090 0 0.134 0.076 1.336 0.076 1.336 1.454 1.336 0.912 0 1.824-0.013 2.736 0 1.624 0.033 2.634 1.053 2.634 2.658 0 7.749 0 15.495 0 23.236 0 1.643-1.022 2.651-2.679 2.652-4.249 0.004-8.498 0.005-12.747 0.001zM15.358 11.596c-4.407 0-8.814 0.011-13.221-0.013-0.564 0-0.7 0.162-0.698 0.709 0.020 5.431 0.011 10.863 0.013 16.301 0 0.998 0.314 1.309 1.321 1.309h25.17c1.004 0 1.32-0.313 1.32-1.311 0-5.431-0.007-10.863 0.013-16.294 0-0.552-0.14-0.711-0.701-0.708-4.402 0.021-8.809 0.007-13.216 0.007zM15.358 10.144c4.426 0 8.852 0 13.277 0.012 0.497 0 0.646-0.134 0.634-0.631-0.036-1.356 0-2.715-0.015-4.072 0-0.819-0.361-1.177-1.185-1.189-0.935-0.015-1.87 0-2.804 0-1.321 0-1.321 0-1.368 1.287 0 0.065 0 0.134 0 0.199-0.032 0.42-0.276 0.668-0.676 0.695-0.443 0.027-0.704-0.247-0.759-0.679-0.037-0.266-0.041-0.535-0.009-0.802 0.068-0.534-0.104-0.735-0.683-0.718-1.445 0.043-2.891 0.015-4.336 0.015-1.321 0-1.321 0-1.369 1.291 0 0.090 0 0.179-0.013 0.267-0.055 0.386-0.296 0.615-0.668 0.628-0.090 0.010-0.18 0.001-0.267-0.027s-0.165-0.072-0.233-0.132c-0.068-0.060-0.123-0.132-0.161-0.214s-0.059-0.171-0.061-0.261c-0.037-0.31-0.042-0.624-0.012-0.935 0.057-0.516-0.159-0.637-0.646-0.629-1.623 0.028-3.246 0.011-4.87 0.011-0.869 0-0.868 0-0.871 0.842 0.010 0.223 0.005 0.446-0.013 0.668-0.052 0.401-0.295 0.668-0.701 0.676-0.429 0-0.706-0.251-0.732-0.704-0.020-0.311-0.020-0.624 0-0.935 0.028-0.383-0.076-0.563-0.509-0.553-1.223 0.024-2.447 0-3.67 0.012-0.82 0.009-1.173 0.374-1.178 1.202-0.009 1.336 0.027 2.672-0.016 4.008-0.019 0.569 0.163 0.696 0.708 0.693 4.402-0.029 8.806-0.020 13.205-0.020v-0.005z"></path>
<path d="M15.441 17.808c-0.192 0.212-0.371 0.441-0.582 0.633-0.058 0.061-0.128 0.111-0.205 0.145s-0.161 0.053-0.245 0.055c-0.084 0.002-0.168-0.013-0.247-0.044s-0.151-0.077-0.211-0.136c-0.315-0.267-0.401-0.637-0.133-0.949 0.668-0.779 1.335-1.55 2.071-2.263 0.401-0.39 1.002-0.134 1.133 0.414 0.028 0.153 0.038 0.309 0.029 0.465 0 3.095 0 6.189 0 9.282 0.007 0.134-0.001 0.268-0.021 0.401-0.084 0.401-0.327 0.632-0.748 0.609-0.389-0.021-0.606-0.254-0.656-0.632-0.015-0.178-0.019-0.356-0.012-0.534 0-2.247 0-4.496 0-6.745v-0.641l-0.172-0.060z"></path>
</symbol>
</defs>
</svg>
