<svg aria-hidden="true" style="position: absolute; width: 0; height: 0; overflow: hidden;" version="1.1" xmlns="http://www.w3.org/2000/svg" xmlns:xlink="http://www.w3.org/1999/xlink">
<defs>
<symbol id="icon-tour_clock" viewBox="0 0 32 32">
<path stroke-linejoin="round" stroke-linecap="round" stroke-miterlimit="4" d="M15.274 31.213c-8.008 0-14.5-6.492-14.5-14.5s6.492-14.5 14.5-14.5c8.008 0 14.5 6.492 14.5 14.5s-6.492 14.5-14.5 14.5z"></path>
<path stroke-linejoin="round" stroke-linecap="round" stroke-miterlimit="4" d="M15.275 11.276v7.25h6.344"></path>
</symbol>
<symbol id="icon-tour_calendar" viewBox="0 0 32 32">
<path stroke-linejoin="round" stroke-linecap="round" stroke-miterlimit="4" d="M0.81 8.405h30.381M4.608 0.81h22.786c1.007 0 1.973 0.4 2.685 1.112s1.112 1.678 1.112 2.685v22.786c0 1.007-0.4 1.973-1.112 2.685s-1.678 1.112-2.685 1.112h-22.786c-1.007 0-1.973-0.4-2.685-1.112s-1.112-1.678-1.112-2.685v-22.786c0-1.007 0.4-1.973 1.112-2.685s1.678-1.112 2.685-1.112v0z"></path>
<path d="M16 17.899c1.049 0 1.899-0.85 1.899-1.899s-0.85-1.899-1.899-1.899c-1.049 0-1.899 0.85-1.899 1.899s0.85 1.899 1.899 1.899z"></path>
<path d="M8.405 17.899c1.049 0 1.899-0.85 1.899-1.899s-0.85-1.899-1.899-1.899c-1.049 0-1.899 0.85-1.899 1.899s0.85 1.899 1.899 1.899z"></path>
<path d="M16 25.494c1.049 0 1.899-0.85 1.899-1.899s-0.85-1.899-1.899-1.899-1.899 0.85-1.899 1.899c0 1.049 0.85 1.899 1.899 1.899z"></path>
<path d="M23.596 17.899c1.049 0 1.899-0.85 1.899-1.899s-0.85-1.899-1.899-1.899c-1.049 0-1.899 0.85-1.899 1.899s0.85 1.899 1.899 1.899z"></path>
<path d="M8.405 25.494c1.049 0 1.899-0.85 1.899-1.899s-0.85-1.899-1.899-1.899-1.899 0.85-1.899 1.899c0 1.049 0.85 1.899 1.899 1.899z"></path>
<path d="M23.596 25.494c1.049 0 1.899-0.85 1.899-1.899s-0.85-1.899-1.899-1.899-1.899 0.85-1.899 1.899c0 1.049 0.85 1.899 1.899 1.899z"></path>
</symbol>
<symbol id="icon-tour_language" viewBox="0 0 32 32">
<path d="M31.997 18.887c0 3.314 0 6.628 0 9.942 0 2.032-1.131 3.166-3.156 3.167-4.869 0-9.739 0-14.608 0-1.867 0-2.925-0.941-3.151-2.79-0.103-0.843-0.222-1.685-0.3-2.532-0.036-0.417-0.301-0.342-0.549-0.342-2.314 0-4.628 0-6.944 0-2.164-0.002-3.289-1.113-3.289-3.274v-19.829c0-2.112 1.111-3.23 3.207-3.23h8.888c1.974 0 3.081 1.039 3.249 3.014 0.062 0.737 0.192 1.467 0.258 2.203 0.034 0.379 0.195 0.459 0.555 0.458 4.184-0.014 8.368-0.010 12.554-0.009 2.165 0 3.285 1.121 3.285 3.281 0 3.314 0 6.628 0 9.94zM14.345 30.079c0.184 0.017 0.255 0.029 0.327 0.029 4.794 0 9.588 0 14.382 0 0.76 0 1.053-0.333 1.054-1.162 0-6.74 0-13.477 0-20.211 0-0.847-0.326-1.18-1.172-1.18-4.184 0-8.367 0-12.554-0.008-0.379 0-0.499 0.058-0.444 0.488 0.333 2.47 0.637 4.945 0.944 7.418 0.385 3.099 0.748 6.199 1.161 9.293 0.087 0.647-0.041 1.13-0.475 1.612-1.069 1.194-2.103 2.427-3.222 3.721zM1.889 13.164c0 3.388 0 6.776 0 10.164 0 0.725 0.333 1.111 1.012 1.111 4.277 0.009 8.555 0 12.832 0.010 0.298 0 0.381-0.086 0.339-0.383-0.12-0.861-0.208-1.725-0.318-2.586-0.361-2.822-0.734-5.643-1.088-8.465-0.419-3.356-0.821-6.714-1.233-10.070-0.096-0.778-0.414-1.050-1.212-1.051-3.037 0-6.073 0-9.11 0-0.949 0-1.222 0.273-1.222 1.222 0 3.346 0 6.696 0 10.048zM15.1 26.331c-0.82 0-1.495 0-2.17 0-0.222 0-0.301 0.079-0.274 0.293 0.088 0.698 0.171 1.395 0.271 2.222l2.173-2.515z"></path>
<path d="M21.013 14.11c0.129 0 0.259 0 0.389 0 0.351 0 0.769 0.111 1.035-0.047s0.073-0.611 0.12-0.931c0.076-0.51 0.509-0.917 0.969-0.898s0.847 0.409 0.911 0.898c0.041 0.308-0.139 0.725 0.083 0.901 0.277 0.222 0.71 0.063 1.075 0.073 0.5 0.014 1 0 1.5 0.007 0.623 0.012 1.045 0.358 1.1 0.88 0.049 0.474-0.314 0.904-0.909 0.993-0.090 0.004-0.175 0.038-0.243 0.097s-0.114 0.138-0.131 0.226c-0.41 1.27-1.050 2.453-1.889 3.491-0.208 0.259-0.143 0.403 0.086 0.582 0.54 0.421 1.067 0.859 1.599 1.289 0.565 0.457 0.69 1.038 0.318 1.484s-0.925 0.444-1.475 0c-0.607-0.485-1.209-0.977-1.799-1.482-0.193-0.167-0.318-0.167-0.511 0-0.59 0.507-1.192 1-1.799 1.482-0.555 0.444-1.111 0.431-1.475-0.006s-0.247-1.027 0.319-1.483c0.532-0.43 1.059-0.868 1.599-1.289 0.23-0.179 0.292-0.324 0.084-0.582-0.839-1.037-1.478-2.221-1.883-3.492-0.073-0.231-0.198-0.293-0.433-0.325-0.233-0.024-0.448-0.133-0.606-0.305s-0.247-0.397-0.252-0.63c0.011-0.493 0.431-0.901 0.994-0.931 0.407-0.021 0.814 0 1.222 0l0.002-0.002zM21.975 15.998c0.32 0.871 0.76 1.694 1.307 2.444 0.169 0.238 0.275 0.222 0.437 0 0.471-0.659 0.869-1.367 1.188-2.111 0.127-0.3 0.020-0.333-0.247-0.333-0.867 0.007-1.734 0-2.684 0z"></path>
<path d="M8.544 6.645c1.667 0 1.679 0.022 2 1.657 0.543 2.732 1.102 5.461 1.643 8.191 0.084 0.423 0.111 0.859-0.292 1.167-0.301 0.23-0.627 0.294-0.985 0.12s-0.493-0.481-0.563-0.839c-0.156-0.797-0.318-1.592-0.46-2.391-0.057-0.323-0.187-0.467-0.544-0.444-0.573 0.034-1.147 0.034-1.72 0-0.343-0.020-0.453 0.135-0.508 0.423-0.148 0.778-0.309 1.555-0.455 2.333-0.131 0.698-0.556 1.095-1.087 1.012-0.604-0.092-0.919-0.628-0.778-1.358 0.454-2.261 0.918-4.52 1.375-6.777 0.142-0.705 0.264-1.414 0.417-2.118 0.169-0.778 0.426-0.969 1.222-0.974 0.254-0.003 0.495-0.002 0.735-0.002zM8.47 12.221c0.092 0 0.184 0 0.277 0 0.684 0 0.667 0 0.522-0.698-0.182-0.863-0.333-1.734-0.508-2.599-0.033-0.16-0.022-0.417-0.284-0.394-0.208 0.017-0.207 0.239-0.238 0.39-0.162 0.811-0.312 1.624-0.463 2.444-0.16 0.857-0.158 0.857 0.694 0.857z"></path>
</symbol>
<symbol id="icon-tour_location" viewBox="0 0 32 32">
<path stroke-linejoin="round" stroke-linecap="round" stroke-miterlimit="4" d="M16 17.433c2.375 0 4.3-1.925 4.3-4.3s-1.925-4.3-4.3-4.3-4.3 1.925-4.3 4.3c0 2.375 1.925 4.3 4.3 4.3z"></path>
<path stroke-linejoin="round" stroke-linecap="round" stroke-miterlimit="4" d="M16 1.667c-3.041 0-5.958 1.208-8.108 3.359s-3.358 5.067-3.358 8.108c0 2.712 0.576 4.486 2.15 6.45l9.317 10.75 9.317-10.75c1.574-1.964 2.15-3.738 2.15-6.45 0-3.041-1.208-5.958-3.358-8.108s-5.067-3.358-8.108-3.358v0z"></path>
</symbol>
<symbol id="icon-tour_duration" viewBox="0 0 32 32">
<path d="M15.971 31.996h-12.061c-0.19 0.007-0.381 0.004-0.571-0.009-0.287-0.023-0.555-0.153-0.75-0.365s-0.303-0.49-0.302-0.778c0.002-0.289 0.114-0.566 0.314-0.775s0.473-0.332 0.761-0.346c0.613-0.034 1.227-0.034 1.84 0 0.434 0.025 0.529-0.141 0.517-0.54-0.061-1.973 0.052-3.924 0.724-5.809 0.934-2.624 2.539-4.653 5.125-5.81 0.687-0.306 1.082-0.832 1.075-1.574s-0.415-1.249-1.098-1.562c-3.256-1.497-4.875-4.21-5.571-7.591-0.263-1.27-0.291-2.562-0.24-3.851 0.020-0.529-0.080-0.792-0.675-0.703-0.352 0.052-0.717 0.009-1.078 0.009-1.132-0.005-1.7-0.386-1.689-1.16s0.561-1.13 1.65-1.13h24.113c0.19 0 0.381-0.010 0.57 0.008 0.289 0.016 0.561 0.14 0.763 0.347s0.318 0.483 0.326 0.773c0.003 0.149-0.023 0.297-0.077 0.436s-0.135 0.266-0.239 0.373-0.227 0.194-0.363 0.253c-0.137 0.060-0.284 0.092-0.433 0.095-0.592 0.035-1.185 0.035-1.777 0-0.463-0.032-0.562 0.143-0.548 0.574 0.061 1.95-0.056 3.88-0.715 5.747-0.936 2.65-2.548 4.697-5.163 5.854-0.664 0.295-1.040 0.815-1.046 1.523 0 0.741 0.387 1.262 1.073 1.577 3.301 1.523 4.94 4.259 5.619 7.701 0.254 1.254 0.273 2.52 0.229 3.788-0.018 0.508 0.091 0.741 0.645 0.669 0.359-0.026 0.719-0.029 1.078-0.009 1.151 0 1.703 0.363 1.713 1.129s-0.551 1.154-1.681 1.154h-12.056zM16.009 2.288c-2.476 0-4.951 0.014-7.426-0.011-0.481 0-0.609 0.127-0.59 0.599 0.037 0.971-0.022 1.946 0.127 2.912 0.454 2.958 1.689 5.359 4.583 6.667 1.484 0.67 2.236 1.944 2.231 3.555 0 1.664-0.821 2.92-2.356 3.604-1.715 0.762-2.882 2.031-3.653 3.701-0.889 1.936-0.969 3.999-0.926 6.081 0 0.32 0.183 0.317 0.409 0.317 5.057 0 10.113 0 15.169 0 0.338 0 0.433-0.105 0.427-0.434-0.018-1.036 0.035-2.075-0.127-3.103-0.46-2.931-1.683-5.325-4.55-6.622-1.488-0.674-2.252-1.926-2.26-3.533-0.008-1.633 0.762-2.902 2.275-3.585 1.725-0.777 2.935-2.031 3.72-3.722 0.867-1.873 0.971-3.867 0.948-5.887-0.006-0.462-0.15-0.552-0.578-0.548-2.478 0.025-4.949 0.010-7.423 0.010z"></path>
<path d="M15.992 28.568c-1.818 0-3.636 0-5.453 0-1.004 0-1.422-0.443-1.397-1.447 0.103-3.418 2.937-6.32 6.385-6.54 3.546-0.226 6.711 2.285 7.225 5.738 0.019 0.127 0.047 0.254 0.063 0.381 0.18 1.385-0.245 1.875-1.629 1.875l-5.195-0.008z"></path>
<path d="M16.072 6.859c1.078 0 2.158 0 3.232 0 0.929 0.006 1.351 0.486 1.253 1.405-0.085 0.849-0.477 1.638-1.101 2.221s-1.439 0.918-2.292 0.944c-0.779 0.025-1.563 0.027-2.344 0-0.841-0.029-1.644-0.359-2.263-0.93s-1.012-1.345-1.108-2.181c-0.119-0.952 0.302-1.45 1.263-1.46 1.12 0 2.239 0 3.358 0z"></path>
</symbol>
<symbol id="icon-tour_group" viewBox="0 0 32 32">
<path stroke-linejoin="miter" stroke-linecap="butt" stroke-miterlimit="4" d="M10.571 10.311c0.928-3.254 2.803-4.881 5.509-4.855 2.619 0.027 4.49 1.695 5.347 4.862 0.114-0.325 0.189-0.551 0.27-0.775 0.638-1.721 1.874-2.747 3.692-2.897 1.672-0.135 3.023 0.599 3.866 2.050 0.912 1.561 0.809 3.137-0.269 4.584-0.373 0.5-0.343 0.635 0.212 0.916 1.864 0.939 2.778 2.506 2.797 4.588 0.025 2.554 0.023 2.555-2.442 3.366-0.644 0.228-1.311 0.383-1.99 0.461-0.407 0.037-0.731-0.096-0.795-0.521s0.206-0.667 0.605-0.733c0.967-0.145 1.91-0.42 2.803-0.818 0.237-0.109 0.533-0.178 0.533-0.525 0-0.975 0.125-1.967-0.32-2.886-0.549-1.136-1.414-1.919-2.696-2.072-1.327-0.14-2.665-0.143-3.992-0.011-0.353 0.042-0.696 0.143-1.015 0.299-1.040 0.471-1.053 0.63-0.269 1.455 1.072 1.089 1.702 2.537 1.768 4.063 0.032 0.711-0.075 1.433 0.028 2.134 0.178 1.161-0.373 1.672-1.38 2.095-4.816 2.024-9.557 1.937-14.276-0.297-0.564-0.267-0.806-0.603-0.761-1.231 0.050-0.711 0.020-1.423 0-2.134-0.032-1.956 0.638-3.606 2.091-4.899 0.484-0.43 0.327-0.622-0.082-0.911-1.346-0.95-5.691-0.928-7.021 0.048-1.2 0.887-1.896 2.975-1.49 4.405 0.092 0.32 0.356 0.384 0.582 0.487 0.838 0.376 1.725 0.636 2.634 0.772 0.42 0.062 0.779 0.244 0.72 0.727-0.066 0.533-0.484 0.601-0.941 0.533-1.362-0.201-2.63-0.686-3.861-1.284-0.113-0.042-0.211-0.115-0.283-0.212s-0.114-0.212-0.121-0.332c0.016-1.383-0.203-2.785 0.404-4.117 0.492-1.125 1.385-2.027 2.504-2.532 0.356-0.165 0.533-0.254 0.21-0.672-1.191-1.504-1.348-3.146-0.356-4.801 0.861-1.435 2.218-2.159 3.889-1.988 1.976 0.201 3.215 1.373 3.749 3.284 0.023 0.084 0.068 0.162 0.146 0.372zM16.005 16.171c-0.711 0-1.423-0.025-2.134 0-1.255 0.060-2.441 0.589-3.325 1.483s-1.399 2.086-1.445 3.341c-0.020 0.592 0.039 1.19-0.025 1.778-0.075 0.685 0.231 0.998 0.831 1.245 3.846 1.569 7.712 1.654 11.61 0.224 1.407-0.517 1.401-0.533 1.4-1.993 0-0.414 0-0.829-0.011-1.245-0.045-1.256-0.56-2.449-1.443-3.344s-2.069-1.425-3.325-1.486c-0.711-0.030-1.423-0.003-2.134-0.003zM20.072 10.774c-0.006-1.079-0.441-2.111-1.209-2.87s-1.805-1.181-2.884-1.175-2.111 0.441-2.87 1.209c-0.759 0.768-1.181 1.805-1.175 2.884 0.014 2.193 1.913 4.078 4.094 4.060s4.067-1.915 4.044-4.108zM6.369 13.669c0.764-0.010 1.492-0.323 2.026-0.87s0.828-1.283 0.82-2.046c-0.027-1.561-1.378-2.888-2.925-2.86s-2.89 1.407-2.863 2.939c0.023 0.763 0.344 1.488 0.894 2.017s1.285 0.824 2.049 0.819zM25.672 13.669c0.763-0.005 1.495-0.308 2.038-0.844s0.856-1.263 0.871-2.026c-0.019-0.763-0.33-1.49-0.868-2.031s-1.264-0.855-2.027-0.878c-0.765 0.014-1.494 0.325-2.034 0.866s-0.849 1.271-0.861 2.036c0.002 0.763 0.306 1.495 0.846 2.034s1.272 0.843 2.035 0.845v-0.002zM12.627 14.938c-1.127-0.981-1.847-2.348-2.018-3.832-0.196 0.585-0.27 0.939-0.427 1.245-0.258 0.514-0.889 1.102-0.772 1.476 0.13 0.423 0.991 0.567 1.391 0.973 0.558 0.571 1.071 0.653 1.826 0.139zM19.299 15.036c0.639 0.080 1.024 0.58 1.503 0.099 0.455-0.466 1-0.835 1.601-1.087 0.265-0.108 0.425-0.235 0.162-0.503-0.606-0.617-0.85-1.423-1.184-2.438-0.196 1.67-0.916 2.833-2.082 3.928h0.002z"></path>
</symbol>
</defs>
</svg>
