<svg aria-hidden="true" style="position: absolute; width: 0; height: 0; overflow: hidden;" version="1.1" xmlns="http://www.w3.org/2000/svg" xmlns:xlink="http://www.w3.org/1999/xlink">
<defs>
<symbol id="icon-user_settings" viewBox="0 0 32 32">
<path d="M14.031 0.056c-0.313 0.081-0.7 0.306-0.944 0.55-0.406 0.4-0.506 0.731-0.694 2.212-0.088 0.738-0.194 1.369-0.225 1.413s-0.156 0.106-0.281 0.144c-0.125 0.044-0.519 0.2-0.875 0.356l-0.644 0.287-0.231-0.188c-1.081-0.856-1.9-1.462-2.138-1.581-0.381-0.194-0.994-0.237-1.475-0.094-0.356 0.1-0.419 0.156-1.819 1.55-1.394 1.4-1.45 1.462-1.55 1.819-0.144 0.487-0.1 1.094 0.094 1.475 0.081 0.156 0.475 0.7 0.875 1.219 0.994 1.269 0.925 1.125 0.706 1.563-0.106 0.206-0.269 0.588-0.362 0.844s-0.206 0.5-0.244 0.537c-0.037 0.037-0.675 0.144-1.413 0.238-1.488 0.188-1.806 0.287-2.206 0.688-0.131 0.125-0.306 0.375-0.406 0.556l-0.169 0.325v4l0.163 0.35c0.094 0.194 0.269 0.456 0.4 0.587 0.412 0.413 0.75 0.519 2.169 0.694 0.694 0.081 1.325 0.175 1.394 0.206 0.075 0.031 0.175 0.188 0.244 0.387 0.063 0.188 0.231 0.581 0.369 0.881 0.169 0.381 0.231 0.575 0.188 0.625-0.031 0.044-0.4 0.519-0.813 1.050s-0.813 1.094-0.894 1.25c-0.194 0.381-0.237 0.988-0.094 1.475 0.1 0.356 0.156 0.419 1.55 1.819 1.4 1.394 1.462 1.45 1.819 1.55 0.481 0.144 1.094 0.1 1.475-0.094 0.238-0.119 1.056-0.725 2.138-1.581l0.231-0.188 0.644 0.288c0.356 0.156 0.75 0.313 0.875 0.356 0.125 0.038 0.25 0.1 0.281 0.144s0.137 0.675 0.225 1.413c0.188 1.488 0.287 1.813 0.7 2.225 0.131 0.131 0.394 0.306 0.588 0.4l0.35 0.163h3.937l0.35-0.163c0.194-0.094 0.456-0.269 0.587-0.4 0.419-0.419 0.519-0.75 0.7-2.231 0.087-0.731 0.194-1.363 0.231-1.4s0.281-0.15 0.538-0.244c0.256-0.094 0.637-0.256 0.844-0.363 0.438-0.219 0.294-0.288 1.563 0.706 0.519 0.4 1.063 0.794 1.219 0.875 0.381 0.194 0.988 0.238 1.475 0.094 0.356-0.1 0.419-0.156 1.819-1.55 1.394-1.4 1.45-1.462 1.55-1.819 0.144-0.488 0.1-1.094-0.094-1.475-0.113-0.219-0.7-1.012-1.706-2.294-0.038-0.056 0.031-0.281 0.225-0.719 0.156-0.356 0.313-0.75 0.356-0.875 0.038-0.125 0.1-0.25 0.144-0.281s0.675-0.137 1.413-0.225c1.488-0.188 1.813-0.288 2.225-0.7 0.131-0.131 0.306-0.394 0.4-0.587l0.163-0.35v-3.938l-0.163-0.35c-0.094-0.194-0.269-0.456-0.4-0.588-0.413-0.412-0.744-0.512-2.244-0.713-0.744-0.094-1.375-0.2-1.406-0.231s-0.131-0.269-0.225-0.525c-0.094-0.256-0.256-0.637-0.363-0.844-0.219-0.438-0.288-0.294 0.706-1.563 0.4-0.519 0.794-1.063 0.875-1.219 0.194-0.381 0.238-0.987 0.094-1.475-0.1-0.356-0.156-0.419-1.55-1.819-1.4-1.394-1.462-1.45-1.819-1.55-0.488-0.144-1.094-0.1-1.475 0.094-0.156 0.081-0.7 0.475-1.219 0.875-1.269 0.994-1.125 0.925-1.563 0.706-0.206-0.106-0.587-0.269-0.844-0.362s-0.5-0.206-0.538-0.244c-0.038-0.037-0.144-0.669-0.231-1.406-0.188-1.488-0.288-1.806-0.7-2.225-0.131-0.131-0.394-0.306-0.587-0.4l-0.35-0.163-1.875-0.013c-1.031-0.006-1.956 0.013-2.063 0.037zM17.744 1.394c0.337 0.169 0.381 0.306 0.6 2.013 0.156 1.237 0.231 1.644 0.319 1.763 0.087 0.112 0.337 0.231 0.875 0.425 0.413 0.144 1.056 0.412 1.431 0.594 0.594 0.287 0.7 0.319 0.869 0.269 0.106-0.031 0.769-0.506 1.475-1.056 1.719-1.338 1.444-1.362 3.044 0.244 1.606 1.6 1.587 1.313 0.225 3.069-0.556 0.719-1.031 1.394-1.056 1.488-0.025 0.144 0.038 0.331 0.288 0.85 0.181 0.363 0.438 0.969 0.575 1.344 0.294 0.825 0.325 0.894 0.5 0.988 0.075 0.044 0.856 0.169 1.731 0.281 1.681 0.213 1.819 0.256 1.988 0.594 0.113 0.213 0.113 3.275 0 3.488-0.169 0.337-0.306 0.381-1.994 0.594-0.875 0.119-1.65 0.244-1.725 0.281-0.175 0.094-0.212 0.163-0.506 0.994-0.131 0.381-0.394 0.988-0.569 1.356-0.294 0.594-0.325 0.688-0.269 0.869 0.031 0.106 0.506 0.769 1.056 1.475 1.337 1.719 1.363 1.444-0.244 3.044-1.6 1.606-1.313 1.587-3.069 0.225-0.719-0.556-1.394-1.031-1.488-1.056-0.144-0.025-0.331 0.038-0.85 0.288-0.363 0.181-0.975 0.438-1.356 0.575-0.375 0.137-0.75 0.288-0.825 0.337-0.194 0.125-0.244 0.356-0.45 2.019-0.194 1.544-0.238 1.694-0.575 1.863-0.212 0.113-3.275 0.113-3.488 0-0.338-0.175-0.381-0.306-0.594-2.006-0.162-1.256-0.231-1.644-0.325-1.769-0.088-0.113-0.331-0.231-0.869-0.425-0.419-0.144-1.056-0.413-1.425-0.587-0.525-0.256-0.706-0.319-0.85-0.288-0.1 0.019-0.725 0.462-1.387 0.975-0.669 0.519-1.294 0.988-1.388 1.038-0.369 0.188-0.487 0.106-1.794-1.2-1.581-1.587-1.563-1.306-0.206-3.056 0.556-0.719 1.031-1.387 1.050-1.481 0.031-0.131-0.037-0.337-0.281-0.837-0.175-0.369-0.438-0.981-0.569-1.363-0.138-0.387-0.294-0.762-0.344-0.837-0.125-0.194-0.356-0.244-2.019-0.45-1.544-0.194-1.694-0.238-1.863-0.575-0.113-0.212-0.113-3.275 0-3.488 0.169-0.338 0.319-0.381 1.863-0.575 1.663-0.206 1.894-0.256 2.019-0.45 0.050-0.075 0.2-0.45 0.338-0.825 0.138-0.381 0.394-0.994 0.575-1.363 0.294-0.6 0.325-0.7 0.269-0.875-0.031-0.113-0.506-0.775-1.056-1.481-1.338-1.719-1.362-1.444 0.244-3.044 1.6-1.606 1.325-1.581 3.044-0.244 0.706 0.55 1.369 1.025 1.475 1.056 0.175 0.056 0.281 0.025 0.912-0.287 0.387-0.188 1-0.444 1.363-0.575 0.363-0.125 0.719-0.269 0.794-0.313 0.194-0.131 0.244-0.362 0.45-2.025 0.194-1.544 0.238-1.694 0.575-1.863 0.106-0.056 0.6-0.081 1.744-0.081s1.638 0.025 1.744 0.081z"></path>
<path d="M15.238 9.375c-2.306 0.287-4.269 1.719-5.269 3.831-1.2 2.544-0.637 5.588 1.394 7.556 2.006 1.938 4.95 2.45 7.419 1.275 1.488-0.7 2.556-1.769 3.25-3.244 1.619-3.425 0.012-7.494-3.55-8.975-0.919-0.381-2.275-0.569-3.244-0.444zM17.063 10.775c1.381 0.294 2.575 1.106 3.369 2.287 0.606 0.906 0.881 1.838 0.881 2.962-0.006 1.806-0.856 3.381-2.381 4.406-0.581 0.394-1.356 0.706-2.031 0.825-0.244 0.044-0.731 0.063-1.175 0.044-0.912-0.038-1.65-0.256-2.444-0.725-0.594-0.35-1.4-1.125-1.769-1.7-0.306-0.469-0.613-1.225-0.738-1.813-0.113-0.525-0.113-1.6 0-2.125 0.444-2.081 2.050-3.7 4.131-4.156 0.5-0.113 1.65-0.113 2.156-0.006z"></path>
</symbol>
<symbol id="icon-user_logout" viewBox="0 0 31 32">
<path d="M5.974 5.76h13.653v8.363h1.707v-8.363c0-0.453-0.18-0.887-0.5-1.207s-0.754-0.5-1.207-0.5h-13.653c-0.453 0-0.887 0.18-1.207 0.5s-0.5 0.754-0.5 1.207v20.48c0 0.453 0.18 0.887 0.5 1.207s0.754 0.5 1.207 0.5h13.653c0.453 0 0.887-0.18 1.207-0.5s0.5-0.754 0.5-1.207h-15.36v-20.48z"></path>
<path d="M24.031 15.385c-0.163-0.14-0.373-0.213-0.588-0.205s-0.418 0.097-0.57 0.249c-0.152 0.152-0.241 0.356-0.249 0.571s0.065 0.425 0.205 0.588l2.884 2.825h-12.373c-0.226 0-0.443 0.090-0.603 0.25s-0.25 0.377-0.25 0.603c0 0.226 0.090 0.443 0.25 0.603s0.377 0.25 0.603 0.25h12.373l-2.884 2.953c-0.089 0.077-0.162 0.171-0.213 0.276s-0.080 0.221-0.084 0.339c-0.005 0.117 0.015 0.235 0.058 0.344s0.108 0.209 0.191 0.292c0.083 0.083 0.183 0.148 0.292 0.191s0.227 0.063 0.344 0.058c0.117-0.004 0.233-0.033 0.339-0.084s0.2-0.124 0.276-0.213l4.983-4.949-4.983-4.941z"></path>
</symbol>
</defs>
</svg>
